<ttFont>
    <TTGlyph name=".notdef" xMin="196" yMin="0" xMax="1136" yMax="1434">
      <contour>
        <pt x="241" y="0" on="1"/>
        <pt x="196" y="0" on="0"/>
        <pt x="196" y="45" on="1"/>
        <pt x="196" y="1389" on="1"/>
        <pt x="196" y="1434" on="0"/>
        <pt x="233" y="1434" on="1"/>
        <pt x="1091" y="1434" on="1"/>
        <pt x="1136" y="1434" on="0"/>
        <pt x="1136" y="1389" on="1"/>
        <pt x="1136" y="45" on="1"/>
        <pt x="1136" y="0" on="0"/>
        <pt x="1091" y="0" on="1"/>
      </contour>
      <contour>
        <pt x="316" y="120" on="1"/>
        <pt x="1016" y="120" on="1"/>
        <pt x="1016" y="1314" on="1"/>
        <pt x="316" y="1314" on="1"/>
      </contour>
    </TTGlyph>
    <TTGlyph name="A" xMin="-98" yMin="0" xMax="1220" yMax="1434">
      <contour>
        <pt x="-47" y="0" on="1"/>
        <pt x="-98" y="0" on="0"/>
        <pt x="-59" y="66" on="1"/>
        <pt x="711" y="1373" on="1"/>
        <pt x="747" y="1434" on="0"/>
        <pt x="791" y="1434" on="1"/>
        <pt x="931" y="1434" on="1"/>
        <pt x="972" y="1434" on="0"/>
        <pt x="983" y="1373" on="1"/>
        <pt x="1209" y="66" on="1"/>
        <pt x="1220" y="0" on="0"/>
        <pt x="1167" y="0" on="1"/>
        <pt x="1076" y="0" on="1"/>
        <pt x="1023" y="0" on="0"/>
        <pt x="1015" y="49" on="1"/>
        <pt x="958" y="380" on="1"/>
        <pt x="343" y="380" on="1"/>
        <pt x="148" y="49" on="1"/>
        <pt x="119" y="0" on="0"/>
        <pt x="65" y="0" on="1"/>
      </contour>
      <contour>
        <pt x="441" y="544" on="1"/>
        <pt x="929" y="544" on="1"/>
        <pt x="859" y="944" on="1"/>
        <pt x="846" y="1016" on="0"/>
        <pt x="830" y="1187" on="0"/>
        <pt x="830" y="1261" on="1"/>
        <pt x="826" y="1261" on="1"/>
        <pt x="808" y="1190" on="0"/>
        <pt x="732" y="1042" on="0"/>
        <pt x="675" y="944" on="1"/>
      </contour>
    </TTGlyph>
    <TTGlyph name="AE" xMin="-105" yMin="0" xMax="2048" yMax="1434">
      <contour>
        <pt x="-46" y="0" on="1"/>
        <pt x="-105" y="0" on="0"/>
        <pt x="-59" y="66" on="1"/>
        <pt x="865" y="1382" on="1"/>
        <pt x="902" y="1434" on="0"/>
        <pt x="944" y="1434" on="1"/>
        <pt x="1993" y="1434" on="1"/>
        <pt x="2048" y="1434" on="0"/>
        <pt x="2038" y="1389" on="1"/>
        <pt x="2021" y="1315" on="1"/>
        <pt x="2011" y="1270" on="0"/>
        <pt x="1955" y="1270" on="1"/>
        <pt x="1262" y="1270" on="1"/>
        <pt x="1160" y="826" on="1"/>
        <pt x="1793" y="826" on="1"/>
        <pt x="1847" y="826" on="0"/>
        <pt x="1837" y="781" on="1"/>
        <pt x="1820" y="707" on="1"/>
        <pt x="1810" y="662" on="0"/>
        <pt x="1755" y="662" on="1"/>
        <pt x="1122" y="662" on="1"/>
        <pt x="1007" y="164" on="1"/>
        <pt x="1730" y="164" on="1"/>
        <pt x="1784" y="164" on="0"/>
        <pt x="1774" y="119" on="1"/>
        <pt x="1757" y="45" on="1"/>
        <pt x="1747" y="0" on="0"/>
        <pt x="1692" y="0" on="1"/>
        <pt x="827" y="0" on="1"/>
        <pt x="777" y="0" on="0"/>
        <pt x="790" y="55" on="1"/>
        <pt x="865" y="380" on="1"/>
        <pt x="391" y="380" on="1"/>
        <pt x="159" y="49" on="1"/>
        <pt x="125" y="0" on="0"/>
        <pt x="81" y="0" on="1"/>
      </contour>
      <contour>
        <pt x="506" y="544" on="1"/>
        <pt x="903" y="544" on="1"/>
        <pt x="1070" y="1270" on="1"/>
        <pt x="998" y="1270" on="1"/>
        <pt x="968" y="1211" on="0"/>
        <pt x="895" y="1099" on="0"/>
        <pt x="863" y="1053" on="1"/>
      </contour>
    </TTGlyph>
    <TTGlyph name="AEacute" xMin="-105" yMin="0" xMax="2048" yMax="1785">
      <component glyphName="uni0301.cap" x="1431" y="0" flags="0x1004"/>
      <component glyphName="AE" x="0" y="0" flags="0x1204"/>
    </TTGlyph>
    <TTGlyph name="Aacute" xMin="-98" yMin="0" xMax="1311" yMax="1785">
      <component glyphName="uni0301.cap" x="1134" y="0" flags="0x1004"/>
      <component glyphName="A" x="0" y="0" flags="0x1204"/>
    </TTGlyph>
    <TTGlyph name="Abreve" xMin="-98" yMin="0" xMax="1322" yMax="1871">
      <component glyphName="breve.cap" x="241" y="0" flags="0x1004"/>
      <component glyphName="A" x="0" y="0" flags="0x1204"/>
    </TTGlyph>
    <TTGlyph name="Acircumflex" xMin="-98" yMin="0" xMax="1282" yMax="1762">
      <component glyphName="circumflex.cap" x="239" y="0" flags="0x1004"/>
      <component glyphName="A" x="0" y="0" flags="0x1204"/>
    </TTGlyph>
    <TTGlyph name="Adieresis" xMin="-98" yMin="0" xMax="1260" yMax="1732">
      <component glyphName="A" x="0" y="0" flags="0x1204"/>
      <component glyphName="dieresis.cap" x="240" y="0" flags="0x1004"/>
    </TTGlyph>
    <TTGlyph name="Agrave" xMin="-98" yMin="0" xMax="1220" yMax="1785">
      <component glyphName="uni0300.cap" x="996" y="0" flags="0x1004"/>
      <component glyphName="A" x="0" y="0" flags="0x1204"/>
    </TTGlyph>
    <TTGlyph name="Amacron" xMin="-98" yMin="0" xMax="1285" yMax="1688">
      <component glyphName="uni0304.cap" x="1060" y="0" flags="0x1004"/>
      <component glyphName="A" x="0" y="0" flags="0x1204"/>
    </TTGlyph>
    <TTGlyph name="Aogonek" xMin="-98" yMin="-417" xMax="1216" yMax="1434">
      <contour>
        <pt x="-47" y="0" on="1"/>
        <pt x="-98" y="0" on="0"/>
        <pt x="-59" y="66" on="1"/>
        <pt x="711" y="1373" on="1"/>
        <pt x="747" y="1434" on="0"/>
        <pt x="791" y="1434" on="1"/>
        <pt x="931" y="1434" on="1"/>
        <pt x="972" y="1434" on="0"/>
        <pt x="983" y="1373" on="1"/>
        <pt x="1209" y="66" on="1"/>
        <pt x="1216" y="19" on="0"/>
        <pt x="1186" y="0" on="1"/>
        <pt x="1156" y="-18" on="0"/>
        <pt x="936" y="-179" on="0"/>
        <pt x="936" y="-233" on="1"/>
        <pt x="936" y="-260" on="0"/>
        <pt x="966" y="-287" on="0"/>
        <pt x="1002" y="-287" on="1"/>
        <pt x="1045" y="-287" on="0"/>
        <pt x="1075" y="-281" on="1"/>
        <pt x="1100" y="-276" on="0"/>
        <pt x="1102" y="-303" on="1"/>
        <pt x="1108" y="-380" on="1"/>
        <pt x="1110" y="-404" on="0"/>
        <pt x="1090" y="-408" on="1"/>
        <pt x="1045" y="-417" on="0"/>
        <pt x="972" y="-417" on="1"/>
        <pt x="872" y="-417" on="0"/>
        <pt x="776" y="-342" on="0"/>
        <pt x="776" y="-284" on="1"/>
        <pt x="776" y="-232" on="0"/>
        <pt x="814" y="-142" on="0"/>
        <pt x="955" y="-38" on="0"/>
        <pt x="980" y="-20" on="1"/>
        <pt x="1022" y="9" on="0"/>
        <pt x="1015" y="49" on="1"/>
        <pt x="958" y="380" on="1"/>
        <pt x="343" y="380" on="1"/>
        <pt x="148" y="49" on="1"/>
        <pt x="119" y="0" on="0"/>
        <pt x="65" y="0" on="1"/>
      </contour>
      <contour>
        <pt x="441" y="544" on="1"/>
        <pt x="929" y="544" on="1"/>
        <pt x="859" y="944" on="1"/>
        <pt x="846" y="1016" on="0"/>
        <pt x="830" y="1187" on="0"/>
        <pt x="830" y="1261" on="1"/>
        <pt x="826" y="1261" on="1"/>
        <pt x="808" y="1190" on="0"/>
        <pt x="732" y="1042" on="0"/>
        <pt x="675" y="944" on="1"/>
      </contour>
    </TTGlyph>
    <TTGlyph name="Aring" xMin="-98" yMin="0" xMax="1220" yMax="1820">
      <component glyphName="A" x="0" y="0" flags="0x1204"/>
      <component glyphName="ring.cap" x="207" y="-60" flags="0x1004"/>
    </TTGlyph>
    <TTGlyph name="Atilde" xMin="-98" yMin="0" xMax="1296" yMax="1781">
      <component glyphName="tilde.cap" x="240" y="0" flags="0x1004"/>
      <component glyphName="A" x="0" y="0" flags="0x1204"/>
    </TTGlyph>
    <TTGlyph name="B" xMin="50" yMin="0" xMax="1286" yMax="1434">
      <contour>
        <pt x="100" y="0" on="1"/>
        <pt x="50" y="0" on="0"/>
        <pt x="63" y="55" on="1"/>
        <pt x="368" y="1379" on="1"/>
        <pt x="381" y="1434" on="0"/>
        <pt x="431" y="1434" on="1"/>
        <pt x="801" y="1434" on="1"/>
        <pt x="1074" y="1434" on="0"/>
        <pt x="1286" y="1233" on="0"/>
        <pt x="1286" y="1084" on="1"/>
        <pt x="1286" y="945" on="0"/>
        <pt x="1095" y="780" on="0"/>
        <pt x="953" y="750" on="1"/>
        <pt x="953" y="747" on="1"/>
        <pt x="1056" y="726" on="0"/>
        <pt x="1217" y="567" on="0"/>
        <pt x="1217" y="431" on="1"/>
        <pt x="1217" y="264" on="0"/>
        <pt x="915" y="0" on="0"/>
        <pt x="570" y="0" on="1"/>
      </contour>
      <contour>
        <pt x="280" y="164" on="1"/>
        <pt x="576" y="164" on="1"/>
        <pt x="786" y="164" on="0"/>
        <pt x="1012" y="306" on="0"/>
        <pt x="1012" y="439" on="1"/>
        <pt x="1012" y="560" on="0"/>
        <pt x="807" y="664" on="0"/>
        <pt x="631" y="664" on="1"/>
        <pt x="395" y="664" on="1"/>
      </contour>
      <contour>
        <pt x="429" y="808" on="1"/>
        <pt x="700" y="808" on="1"/>
        <pt x="842" y="808" on="0"/>
        <pt x="1091" y="960" on="0"/>
        <pt x="1091" y="1076" on="1"/>
        <pt x="1091" y="1179" on="0"/>
        <pt x="945" y="1270" on="0"/>
        <pt x="766" y="1270" on="1"/>
        <pt x="535" y="1270" on="1"/>
      </contour>
    </TTGlyph>
    <TTGlyph name="C" xMin="110" yMin="-30" xMax="1390" yMax="1464">
      <contour>
        <pt x="110" y="580" on="1"/>
        <pt x="110" y="975" on="0"/>
        <pt x="531" y="1464" on="0"/>
        <pt x="908" y="1464" on="1"/>
        <pt x="1092" y="1464" on="0"/>
        <pt x="1320" y="1336" on="0"/>
        <pt x="1367" y="1230" on="1"/>
        <pt x="1390" y="1177" on="0"/>
        <pt x="1344" y="1150" on="1"/>
        <pt x="1266" y="1104" on="1"/>
        <pt x="1239" y="1088" on="0"/>
        <pt x="1214" y="1132" on="1"/>
        <pt x="1184" y="1186" on="0"/>
        <pt x="1026" y="1308" on="0"/>
        <pt x="891" y="1308" on="1"/>
        <pt x="641" y="1308" on="0"/>
        <pt x="315" y="942" on="0"/>
        <pt x="315" y="557" on="1"/>
        <pt x="315" y="375" on="0"/>
        <pt x="507" y="126" on="0"/>
        <pt x="737" y="126" on="1"/>
        <pt x="873" y="126" on="0"/>
        <pt x="1062" y="269" on="0"/>
        <pt x="1114" y="341" on="1"/>
        <pt x="1156" y="399" on="0"/>
        <pt x="1192" y="376" on="1"/>
        <pt x="1282" y="318" on="1"/>
        <pt x="1315" y="297" on="0"/>
        <pt x="1274" y="238" on="1"/>
        <pt x="1195" y="123" on="0"/>
        <pt x="927" y="-30" on="0"/>
        <pt x="710" y="-30" on="1"/>
        <pt x="408" y="-30" on="0"/>
        <pt x="110" y="315" on="0"/>
      </contour>
    </TTGlyph>
    <TTGlyph name="Cacute" xMin="110" yMin="-30" xMax="1390" yMax="1785">
      <component glyphName="uni0301.cap" x="1174" y="0" flags="0x1004"/>
      <component glyphName="C" x="0" y="0" flags="0x1204"/>
    </TTGlyph>
    <TTGlyph name="Ccaron" xMin="110" yMin="-30" xMax="1390" yMax="1774">
      <component glyphName="caron.cap" x="280" y="0" flags="0x1004"/>
      <component glyphName="C" x="0" y="0" flags="0x1204"/>
    </TTGlyph>
    <TTGlyph name="Ccedilla" xMin="110" yMin="-416" xMax="1390" yMax="1464">
      <component glyphName="C" x="0" y="0" flags="0x1204"/>
      <component glyphName="cedilla" x="504" y="0" flags="0x1004"/>
    </TTGlyph>
    <TTGlyph name="Ccircumflex" xMin="110" yMin="-30" xMax="1390" yMax="1762">
      <component glyphName="circumflex.cap" x="279" y="0" flags="0x1004"/>
      <component glyphName="C" x="0" y="0" flags="0x1204"/>
    </TTGlyph>
    <TTGlyph name="Cdotaccent" xMin="110" yMin="-30" xMax="1390" yMax="1737">
      <component glyphName="dotaccent.cap" x="280" y="0" flags="0x1004"/>
      <component glyphName="C" x="0" y="0" flags="0x1204"/>
    </TTGlyph>
    <TTGlyph name="D" xMin="50" yMin="0" xMax="1384" yMax="1434">
      <contour>
        <pt x="100" y="0" on="1"/>
        <pt x="50" y="0" on="0"/>
        <pt x="63" y="55" on="1"/>
        <pt x="368" y="1379" on="1"/>
        <pt x="381" y="1434" on="0"/>
        <pt x="431" y="1434" on="1"/>
        <pt x="750" y="1434" on="1"/>
        <pt x="1108" y="1434" on="0"/>
        <pt x="1384" y="1084" on="0"/>
        <pt x="1384" y="848" on="1"/>
        <pt x="1384" y="508" on="0"/>
        <pt x="964" y="0" on="0"/>
        <pt x="519" y="0" on="1"/>
      </contour>
      <contour>
        <pt x="280" y="164" on="1"/>
        <pt x="548" y="164" on="1"/>
        <pt x="880" y="164" on="0"/>
        <pt x="1179" y="588" on="0"/>
        <pt x="1179" y="860" on="1"/>
        <pt x="1179" y="1032" on="0"/>
        <pt x="1016" y="1272" on="0"/>
        <pt x="704" y="1272" on="1"/>
        <pt x="536" y="1272" on="1"/>
      </contour>
    </TTGlyph>
    <TTGlyph name="Dcaron" xMin="50" yMin="0" xMax="1384" yMax="1774">
      <component glyphName="caron.cap" x="297" y="0" flags="0x1004"/>
      <component glyphName="D" x="0" y="0" flags="0x1204"/>
    </TTGlyph>
    <TTGlyph name="Dcroat" xMin="71" yMin="0" xMax="1424" yMax="1434">
      <component glyphName="Eth" x="0" y="0" flags="0x1204"/>
    </TTGlyph>
    <TTGlyph name="Delta" xMin="100" yMin="0" xMax="1392" yMax="1434">
      <contour>
        <pt x="150" y="0" on="1"/>
        <pt x="100" y="0" on="0"/>
        <pt x="100" y="55" on="1"/>
        <pt x="100" y="75" on="1"/>
        <pt x="100" y="92" on="0"/>
        <pt x="116" y="132" on="1"/>
        <pt x="610" y="1373" on="1"/>
        <pt x="634" y="1434" on="0"/>
        <pt x="676" y="1434" on="1"/>
        <pt x="816" y="1434" on="1"/>
        <pt x="858" y="1434" on="0"/>
        <pt x="882" y="1373" on="1"/>
        <pt x="1376" y="132" on="1"/>
        <pt x="1392" y="92" on="0"/>
        <pt x="1392" y="75" on="1"/>
        <pt x="1392" y="55" on="1"/>
        <pt x="1392" y="0" on="0"/>
        <pt x="1342" y="0" on="1"/>
      </contour>
      <contour>
        <pt x="336" y="162" on="1"/>
        <pt x="363" y="164" on="0"/>
        <pt x="416" y="164" on="1"/>
        <pt x="1076" y="164" on="1"/>
        <pt x="1129" y="164" on="0"/>
        <pt x="1156" y="162" on="1"/>
        <pt x="1156" y="166" on="1"/>
        <pt x="846" y="944" on="1"/>
        <pt x="813" y="1026" on="0"/>
        <pt x="761" y="1204" on="0"/>
        <pt x="748" y="1261" on="1"/>
        <pt x="744" y="1261" on="1"/>
        <pt x="731" y="1204" on="0"/>
        <pt x="679" y="1026" on="0"/>
        <pt x="646" y="944" on="1"/>
        <pt x="336" y="166" on="1"/>
      </contour>
    </TTGlyph>
    <TTGlyph name="E" xMin="50" yMin="0" xMax="1361" yMax="1434">
      <contour>
        <pt x="100" y="0" on="1"/>
        <pt x="50" y="0" on="0"/>
        <pt x="63" y="55" on="1"/>
        <pt x="368" y="1379" on="1"/>
        <pt x="381" y="1434" on="0"/>
        <pt x="431" y="1434" on="1"/>
        <pt x="1306" y="1434" on="1"/>
        <pt x="1361" y="1434" on="0"/>
        <pt x="1351" y="1389" on="1"/>
        <pt x="1334" y="1315" on="1"/>
        <pt x="1323" y="1270" on="0"/>
        <pt x="1268" y="1270" on="1"/>
        <pt x="535" y="1270" on="1"/>
        <pt x="433" y="826" on="1"/>
        <pt x="1106" y="826" on="1"/>
        <pt x="1161" y="826" on="0"/>
        <pt x="1150" y="781" on="1"/>
        <pt x="1133" y="707" on="1"/>
        <pt x="1123" y="662" on="0"/>
        <pt x="1068" y="662" on="1"/>
        <pt x="395" y="662" on="1"/>
        <pt x="280" y="164" on="1"/>
        <pt x="1043" y="164" on="1"/>
        <pt x="1098" y="164" on="0"/>
        <pt x="1087" y="119" on="1"/>
        <pt x="1070" y="45" on="1"/>
        <pt x="1060" y="0" on="0"/>
        <pt x="1005" y="0" on="1"/>
      </contour>
    </TTGlyph>
    <TTGlyph name="Eacute" xMin="50" yMin="0" xMax="1361" yMax="1785">
      <component glyphName="uni0301.cap" x="1159" y="0" flags="0x1004"/>
      <component glyphName="E" x="0" y="0" flags="0x1204"/>
    </TTGlyph>
    <TTGlyph name="Ebreve" xMin="50" yMin="0" xMax="1361" yMax="1871">
      <component glyphName="breve.cap" x="266" y="0" flags="0x1004"/>
      <component glyphName="E" x="0" y="0" flags="0x1204"/>
    </TTGlyph>
    <TTGlyph name="Ecaron" xMin="50" yMin="0" xMax="1361" yMax="1774">
      <component glyphName="caron.cap" x="265" y="0" flags="0x1004"/>
      <component glyphName="E" x="0" y="0" flags="0x1204"/>
    </TTGlyph>
    <TTGlyph name="Ecircumflex" xMin="50" yMin="0" xMax="1361" yMax="1762">
      <component glyphName="circumflex.cap" x="264" y="0" flags="0x1004"/>
      <component glyphName="E" x="0" y="0" flags="0x1204"/>
    </TTGlyph>
    <TTGlyph name="Edieresis" xMin="50" yMin="0" xMax="1361" yMax="1732">
      <component glyphName="dieresis.cap" x="265" y="0" flags="0x1004"/>
      <component glyphName="E" x="0" y="0" flags="0x1204"/>
    </TTGlyph>
    <TTGlyph name="Edotaccent" xMin="50" yMin="0" xMax="1361" yMax="1737">
      <component glyphName="dotaccent.cap" x="265" y="0" flags="0x1004"/>
      <component glyphName="E" x="0" y="0" flags="0x1204"/>
    </TTGlyph>
    <TTGlyph name="Egrave" xMin="50" yMin="0" xMax="1361" yMax="1785">
      <component glyphName="uni0300.cap" x="1021" y="0" flags="0x1004"/>
      <component glyphName="E" x="0" y="0" flags="0x1204"/>
    </TTGlyph>
    <TTGlyph name="Emacron" xMin="50" yMin="0" xMax="1361" yMax="1688">
      <component glyphName="uni0304.cap" x="1085" y="0" flags="0x1004"/>
      <component glyphName="E" x="0" y="0" flags="0x1204"/>
    </TTGlyph>
    <TTGlyph name="Eng" xMin="50" yMin="-417" xMax="1416" yMax="1464">
      <contour>
        <pt x="100" y="0" on="1"/>
        <pt x="50" y="0" on="0"/>
        <pt x="63" y="55" on="1"/>
        <pt x="368" y="1379" on="1"/>
        <pt x="381" y="1434" on="0"/>
        <pt x="431" y="1434" on="1"/>
        <pt x="513" y="1434" on="1"/>
        <pt x="559" y="1434" on="0"/>
        <pt x="550" y="1379" on="1"/>
        <pt x="521" y="1199" on="1"/>
        <pt x="525" y="1199" on="1"/>
        <pt x="604" y="1320" on="0"/>
        <pt x="870" y="1464" on="0"/>
        <pt x="1031" y="1464" on="1"/>
        <pt x="1227" y="1464" on="0"/>
        <pt x="1416" y="1229" on="0"/>
        <pt x="1370" y="1032" on="1"/>
        <pt x="1130" y="-9" on="1"/>
        <pt x="1078" y="-236" on="0"/>
        <pt x="864" y="-417" on="0"/>
        <pt x="696" y="-417" on="1"/>
        <pt x="612" y="-417" on="0"/>
        <pt x="530" y="-382" on="1"/>
        <pt x="492" y="-366" on="0"/>
        <pt x="511" y="-320" on="1"/>
        <pt x="540" y="-249" on="1"/>
        <pt x="557" y="-208" on="0"/>
        <pt x="608" y="-232" on="1"/>
        <pt x="669" y="-261" on="0"/>
        <pt x="715" y="-261" on="1"/>
        <pt x="786" y="-261" on="0"/>
        <pt x="907" y="-146" on="0"/>
        <pt x="949" y="38" on="1"/>
        <pt x="1158" y="944" on="1"/>
        <pt x="1203" y="1140" on="0"/>
        <pt x="1104" y="1308" on="0"/>
        <pt x="910" y="1308" on="1"/>
        <pt x="752" y="1308" on="0"/>
        <pt x="474" y="1003" on="0"/>
        <pt x="429" y="809" on="1"/>
        <pt x="255" y="55" on="1"/>
        <pt x="242" y="0" on="0"/>
        <pt x="192" y="0" on="1"/>
      </contour>
    </TTGlyph>
    <TTGlyph name="Eogonek" xMin="50" yMin="-417" xMax="1361" yMax="1434">
      <contour>
        <pt x="100" y="0" on="1"/>
        <pt x="50" y="0" on="0"/>
        <pt x="63" y="55" on="1"/>
        <pt x="368" y="1379" on="1"/>
        <pt x="381" y="1434" on="0"/>
        <pt x="431" y="1434" on="1"/>
        <pt x="1306" y="1434" on="1"/>
        <pt x="1361" y="1434" on="0"/>
        <pt x="1351" y="1389" on="1"/>
        <pt x="1334" y="1315" on="1"/>
        <pt x="1324" y="1270" on="0"/>
        <pt x="1268" y="1270" on="1"/>
        <pt x="535" y="1270" on="1"/>
        <pt x="433" y="826" on="1"/>
        <pt x="1106" y="826" on="1"/>
        <pt x="1160" y="826" on="0"/>
        <pt x="1150" y="781" on="1"/>
        <pt x="1133" y="707" on="1"/>
        <pt x="1123" y="662" on="0"/>
        <pt x="1068" y="662" on="1"/>
        <pt x="395" y="662" on="1"/>
        <pt x="280" y="164" on="1"/>
        <pt x="1043" y="164" on="1"/>
        <pt x="1097" y="164" on="0"/>
        <pt x="1087" y="119" on="1"/>
        <pt x="1070" y="45" on="1"/>
        <pt x="1060" y="0" on="0"/>
        <pt x="1005" y="0" on="1"/>
        <pt x="998" y="0" on="1"/>
        <pt x="894" y="-70" on="0"/>
        <pt x="752" y="-186" on="0"/>
        <pt x="752" y="-233" on="1"/>
        <pt x="752" y="-260" on="0"/>
        <pt x="782" y="-287" on="0"/>
        <pt x="818" y="-287" on="1"/>
        <pt x="861" y="-287" on="0"/>
        <pt x="891" y="-281" on="1"/>
        <pt x="916" y="-276" on="0"/>
        <pt x="918" y="-303" on="1"/>
        <pt x="924" y="-380" on="1"/>
        <pt x="926" y="-404" on="0"/>
        <pt x="906" y="-408" on="1"/>
        <pt x="848" y="-417" on="0"/>
        <pt x="788" y="-417" on="1"/>
        <pt x="688" y="-417" on="0"/>
        <pt x="592" y="-342" on="0"/>
        <pt x="592" y="-284" on="1"/>
        <pt x="592" y="-232" on="0"/>
        <pt x="627" y="-149" on="0"/>
        <pt x="717" y="-68" on="0"/>
        <pt x="818" y="-2" on="1"/>
        <pt x="818" y="2" on="1"/>
        <pt x="778" y="0" on="0"/>
        <pt x="738" y="0" on="1"/>
      </contour>
    </TTGlyph>
    <TTGlyph name="Eth" xMin="71" yMin="0" xMax="1424" yMax="1434">
      <contour>
        <pt x="126" y="654" on="1"/>
        <pt x="71" y="654" on="0"/>
        <pt x="81" y="699" on="1"/>
        <pt x="98" y="773" on="1"/>
        <pt x="108" y="818" on="0"/>
        <pt x="164" y="818" on="1"/>
        <pt x="279" y="818" on="1"/>
        <pt x="408" y="1379" on="1"/>
        <pt x="421" y="1434" on="0"/>
        <pt x="471" y="1434" on="1"/>
        <pt x="790" y="1434" on="1"/>
        <pt x="1148" y="1434" on="0"/>
        <pt x="1424" y="1084" on="0"/>
        <pt x="1424" y="848" on="1"/>
        <pt x="1424" y="508" on="0"/>
        <pt x="1004" y="0" on="0"/>
        <pt x="559" y="0" on="1"/>
        <pt x="140" y="0" on="1"/>
        <pt x="90" y="0" on="0"/>
        <pt x="103" y="55" on="1"/>
        <pt x="241" y="654" on="1"/>
      </contour>
      <contour>
        <pt x="320" y="164" on="1"/>
        <pt x="588" y="164" on="1"/>
        <pt x="920" y="164" on="0"/>
        <pt x="1219" y="588" on="0"/>
        <pt x="1219" y="860" on="1"/>
        <pt x="1219" y="1032" on="0"/>
        <pt x="1056" y="1272" on="0"/>
        <pt x="744" y="1272" on="1"/>
        <pt x="576" y="1272" on="1"/>
        <pt x="471" y="818" on="1"/>
        <pt x="792" y="818" on="1"/>
        <pt x="847" y="818" on="0"/>
        <pt x="836" y="773" on="1"/>
        <pt x="819" y="699" on="1"/>
        <pt x="809" y="654" on="0"/>
        <pt x="754" y="654" on="1"/>
        <pt x="433" y="654" on="1"/>
      </contour>
    </TTGlyph>
    <TTGlyph name="Euro" xMin="16" yMin="-30" xMax="1206" yMax="1452">
      <contour>
        <pt x="101" y="798" on="1"/>
        <pt x="59" y="798" on="0"/>
        <pt x="70" y="833" on="1"/>
        <pt x="90" y="895" on="1"/>
        <pt x="101" y="930" on="0"/>
        <pt x="149" y="930" on="1"/>
        <pt x="213" y="930" on="1"/>
        <pt x="243" y="1062" on="0"/>
        <pt x="576" y="1452" on="0"/>
        <pt x="852" y="1452" on="1"/>
        <pt x="930" y="1452" on="0"/>
        <pt x="1110" y="1392" on="0"/>
        <pt x="1167" y="1307" on="1"/>
        <pt x="1206" y="1249" on="0"/>
        <pt x="1178" y="1227" on="1"/>
        <pt x="1129" y="1189" on="1"/>
        <pt x="1091" y="1160" on="0"/>
        <pt x="1051" y="1209" on="1"/>
        <pt x="1014" y="1254" on="0"/>
        <pt x="917" y="1302" on="0"/>
        <pt x="828" y="1302" on="1"/>
        <pt x="666" y="1302" on="0"/>
        <pt x="432" y="1008" on="0"/>
        <pt x="418" y="930" on="1"/>
        <pt x="818" y="930" on="1"/>
        <pt x="860" y="930" on="0"/>
        <pt x="849" y="895" on="1"/>
        <pt x="829" y="833" on="1"/>
        <pt x="818" y="798" on="0"/>
        <pt x="770" y="798" on="1"/>
        <pt x="370" y="798" on="1"/>
        <pt x="348" y="724" on="0"/>
        <pt x="337" y="646" on="1"/>
        <pt x="774" y="646" on="1"/>
        <pt x="816" y="646" on="0"/>
        <pt x="805" y="611" on="1"/>
        <pt x="786" y="549" on="1"/>
        <pt x="775" y="514" on="0"/>
        <pt x="727" y="514" on="1"/>
        <pt x="325" y="514" on="1"/>
        <pt x="324" y="489" on="0"/>
        <pt x="324" y="464" on="1"/>
        <pt x="324" y="342" on="0"/>
        <pt x="437" y="120" on="0"/>
        <pt x="575" y="120" on="1"/>
        <pt x="639" y="120" on="0"/>
        <pt x="776" y="195" on="0"/>
        <pt x="822" y="243" on="1"/>
        <pt x="873" y="297" on="0"/>
        <pt x="900" y="260" on="1"/>
        <pt x="941" y="204" on="1"/>
        <pt x="969" y="166" on="0"/>
        <pt x="927" y="125" on="1"/>
        <pt x="870" y="70" on="0"/>
        <pt x="698" y="-30" on="0"/>
        <pt x="550" y="-30" on="1"/>
        <pt x="357" y="-30" on="0"/>
        <pt x="128" y="231" on="0"/>
        <pt x="128" y="416" on="1"/>
        <pt x="128" y="466" on="0"/>
        <pt x="131" y="514" on="1"/>
        <pt x="58" y="514" on="1"/>
        <pt x="16" y="514" on="0"/>
        <pt x="27" y="549" on="1"/>
        <pt x="46" y="611" on="1"/>
        <pt x="57" y="646" on="0"/>
        <pt x="105" y="646" on="1"/>
        <pt x="143" y="646" on="1"/>
        <pt x="154" y="725" on="0"/>
        <pt x="172" y="798" on="1"/>
      </contour>
    </TTGlyph>
    <TTGlyph name="F" xMin="50" yMin="0" xMax="1301" yMax="1434">
      <contour>
        <pt x="100" y="0" on="1"/>
        <pt x="50" y="0" on="0"/>
        <pt x="63" y="55" on="1"/>
        <pt x="368" y="1379" on="1"/>
        <pt x="381" y="1434" on="0"/>
        <pt x="431" y="1434" on="1"/>
        <pt x="1246" y="1434" on="1"/>
        <pt x="1301" y="1434" on="0"/>
        <pt x="1291" y="1389" on="1"/>
        <pt x="1274" y="1315" on="1"/>
        <pt x="1263" y="1270" on="0"/>
        <pt x="1208" y="1270" on="1"/>
        <pt x="535" y="1270" on="1"/>
        <pt x="426" y="796" on="1"/>
        <pt x="1013" y="796" on="1"/>
        <pt x="1068" y="796" on="0"/>
        <pt x="1057" y="751" on="1"/>
        <pt x="1040" y="677" on="1"/>
        <pt x="1030" y="632" on="0"/>
        <pt x="975" y="632" on="1"/>
        <pt x="388" y="632" on="1"/>
        <pt x="255" y="55" on="1"/>
        <pt x="242" y="0" on="0"/>
        <pt x="192" y="0" on="1"/>
      </contour>
    </TTGlyph>
    <TTGlyph name="G" xMin="110" yMin="-30" xMax="1426" yMax="1464">
      <contour>
        <pt x="110" y="580" on="1"/>
        <pt x="110" y="975" on="0"/>
        <pt x="531" y="1464" on="0"/>
        <pt x="916" y="1464" on="1"/>
        <pt x="1110" y="1464" on="0"/>
        <pt x="1338" y="1332" on="0"/>
        <pt x="1382" y="1248" on="1"/>
        <pt x="1408" y="1197" on="0"/>
        <pt x="1363" y="1167" on="1"/>
        <pt x="1287" y="1117" on="1"/>
        <pt x="1259" y="1098" on="0"/>
        <pt x="1234" y="1142" on="1"/>
        <pt x="1209" y="1185" on="0"/>
        <pt x="1041" y="1308" on="0"/>
        <pt x="899" y="1308" on="1"/>
        <pt x="642" y="1308" on="0"/>
        <pt x="315" y="942" on="0"/>
        <pt x="315" y="557" on="1"/>
        <pt x="315" y="375" on="0"/>
        <pt x="507" y="126" on="0"/>
        <pt x="737" y="126" on="1"/>
        <pt x="867" y="126" on="0"/>
        <pt x="1087" y="206" on="0"/>
        <pt x="1139" y="262" on="1"/>
        <pt x="1196" y="510" on="1"/>
        <pt x="899" y="510" on="1"/>
        <pt x="844" y="510" on="0"/>
        <pt x="854" y="555" on="1"/>
        <pt x="871" y="629" on="1"/>
        <pt x="882" y="674" on="0"/>
        <pt x="937" y="674" on="1"/>
        <pt x="1371" y="674" on="1"/>
        <pt x="1426" y="674" on="0"/>
        <pt x="1415" y="629" on="1"/>
        <pt x="1306" y="157" on="1"/>
        <pt x="1164" y="51" on="0"/>
        <pt x="908" y="-30" on="0"/>
        <pt x="710" y="-30" on="1"/>
        <pt x="408" y="-30" on="0"/>
        <pt x="110" y="315" on="0"/>
      </contour>
    </TTGlyph>
    <TTGlyph name="Gbreve" xMin="110" yMin="-30" xMax="1426" yMax="1871">
      <component glyphName="breve.cap" x="289" y="0" flags="0x1004"/>
      <component glyphName="G" x="0" y="0" flags="0x1204"/>
    </TTGlyph>
    <TTGlyph name="Gcaron" xMin="110" yMin="-30" xMax="1426" yMax="1774">
      <component glyphName="caron.cap" x="288" y="0" flags="0x1004"/>
      <component glyphName="G" x="0" y="0" flags="0x1204"/>
    </TTGlyph>
    <TTGlyph name="Gcircumflex" xMin="110" yMin="-30" xMax="1426" yMax="1762">
      <component glyphName="circumflex.cap" x="287" y="0" flags="0x1004"/>
      <component glyphName="G" x="0" y="0" flags="0x1204"/>
    </TTGlyph>
    <TTGlyph name="Gdotaccent" xMin="110" yMin="-30" xMax="1426" yMax="1737">
      <component glyphName="dotaccent.cap" x="288" y="0" flags="0x1004"/>
      <component glyphName="G" x="0" y="0" flags="0x1204"/>
    </TTGlyph>
    <TTGlyph name="H" xMin="50" yMin="0" xMax="1463" yMax="1434">
      <contour>
        <pt x="100" y="0" on="1"/>
        <pt x="50" y="0" on="0"/>
        <pt x="63" y="55" on="1"/>
        <pt x="368" y="1379" on="1"/>
        <pt x="381" y="1434" on="0"/>
        <pt x="431" y="1434" on="1"/>
        <pt x="523" y="1434" on="1"/>
        <pt x="573" y="1434" on="0"/>
        <pt x="560" y="1379" on="1"/>
        <pt x="433" y="828" on="1"/>
        <pt x="1131" y="828" on="1"/>
        <pt x="1258" y="1379" on="1"/>
        <pt x="1271" y="1434" on="0"/>
        <pt x="1321" y="1434" on="1"/>
        <pt x="1413" y="1434" on="1"/>
        <pt x="1463" y="1434" on="0"/>
        <pt x="1450" y="1379" on="1"/>
        <pt x="1145" y="55" on="1"/>
        <pt x="1132" y="0" on="0"/>
        <pt x="1082" y="0" on="1"/>
        <pt x="990" y="0" on="1"/>
        <pt x="940" y="0" on="0"/>
        <pt x="953" y="55" on="1"/>
        <pt x="1093" y="664" on="1"/>
        <pt x="395" y="664" on="1"/>
        <pt x="255" y="55" on="1"/>
        <pt x="242" y="0" on="0"/>
        <pt x="192" y="0" on="1"/>
      </contour>
    </TTGlyph>
    <TTGlyph name="Hcircumflex" xMin="50" yMin="0" xMax="1463" yMax="1762">
      <component glyphName="circumflex.cap" x="299" y="0" flags="0x1004"/>
      <component glyphName="H" x="0" y="0" flags="0x1204"/>
    </TTGlyph>
    <TTGlyph name="I" xMin="50" yMin="0" xMax="573" yMax="1434">
      <contour>
        <pt x="100" y="0" on="1"/>
        <pt x="50" y="0" on="0"/>
        <pt x="63" y="55" on="1"/>
        <pt x="368" y="1379" on="1"/>
        <pt x="381" y="1434" on="0"/>
        <pt x="431" y="1434" on="1"/>
        <pt x="523" y="1434" on="1"/>
        <pt x="573" y="1434" on="0"/>
        <pt x="560" y="1379" on="1"/>
        <pt x="255" y="55" on="1"/>
        <pt x="242" y="0" on="0"/>
        <pt x="192" y="0" on="1"/>
      </contour>
    </TTGlyph>
    <TTGlyph name="Iacute" xMin="50" yMin="0" xMax="926" yMax="1785">
      <component glyphName="uni0301.cap" x="749" y="0" flags="0x1004"/>
      <component glyphName="I" x="0" y="0" flags="0x1204"/>
    </TTGlyph>
    <TTGlyph name="Ibreve" xMin="50" yMin="0" xMax="937" yMax="1871">
      <component glyphName="breve.cap" x="-144" y="0" flags="0x1004"/>
      <component glyphName="I" x="0" y="0" flags="0x1204"/>
    </TTGlyph>
    <TTGlyph name="Icircumflex" xMin="50" yMin="0" xMax="897" yMax="1762">
      <component glyphName="circumflex.cap" x="-146" y="0" flags="0x1004"/>
      <component glyphName="I" x="0" y="0" flags="0x1204"/>
    </TTGlyph>
    <TTGlyph name="Idieresis" xMin="50" yMin="0" xMax="834" yMax="1732">
      <component glyphName="I" x="0" y="0" flags="0x1204"/>
      <component glyphName="dieresis.alt1" x="-144" y="0" flags="0x1004"/>
    </TTGlyph>
    <TTGlyph name="Idotaccent" xMin="50" yMin="0" xMax="642" yMax="1737">
      <component glyphName="dotaccent.cap" x="-145" y="0" flags="0x1004"/>
      <component glyphName="I" x="0" y="0" flags="0x1204"/>
    </TTGlyph>
    <TTGlyph name="Igrave" xMin="50" yMin="0" xMax="625" yMax="1785">
      <component glyphName="uni0300.cap" x="611" y="0" flags="0x1004"/>
      <component glyphName="I" x="0" y="0" flags="0x1204"/>
    </TTGlyph>
    <TTGlyph name="Imacron" xMin="50" yMin="0" xMax="900" yMax="1688">
      <component glyphName="uni0304.cap" x="675" y="0" flags="0x1004"/>
      <component glyphName="I" x="0" y="0" flags="0x1204"/>
    </TTGlyph>
    <TTGlyph name="Itilde" xMin="50" yMin="0" xMax="911" yMax="1781">
      <component glyphName="tilde.cap" x="-145" y="0" flags="0x1004"/>
      <component glyphName="I" x="0" y="0" flags="0x1204"/>
    </TTGlyph>
    <TTGlyph name="J" xMin="-72" yMin="-30" xMax="865" yMax="1434">
      <contour>
        <pt x="-37" y="29" on="1"/>
        <pt x="-72" y="50" on="0"/>
        <pt x="-50" y="94" on="1"/>
        <pt x="-14" y="165" on="1"/>
        <pt x="12" y="217" on="0"/>
        <pt x="62" y="179" on="1"/>
        <pt x="132" y="126" on="0"/>
        <pt x="194" y="126" on="1"/>
        <pt x="291" y="126" on="0"/>
        <pt x="401" y="256" on="0"/>
        <pt x="429" y="378" on="1"/>
        <pt x="660" y="1379" on="1"/>
        <pt x="673" y="1434" on="0"/>
        <pt x="723" y="1434" on="1"/>
        <pt x="815" y="1434" on="1"/>
        <pt x="865" y="1434" on="0"/>
        <pt x="852" y="1379" on="1"/>
        <pt x="627" y="401" on="1"/>
        <pt x="587" y="225" on="0"/>
        <pt x="403" y="-30" on="0"/>
        <pt x="175" y="-30" on="1"/>
        <pt x="59" y="-30" on="0"/>
      </contour>
    </TTGlyph>
    <TTGlyph name="Jcircumflex" xMin="-72" yMin="-30" xMax="1189" yMax="1762">
      <component glyphName="circumflex.cap" x="146" y="0" flags="0x1004"/>
      <component glyphName="J" x="0" y="0" flags="0x1204"/>
    </TTGlyph>
    <TTGlyph name="K" xMin="50" yMin="0" xMax="1517" yMax="1434">
      <contour>
        <pt x="100" y="0" on="1"/>
        <pt x="50" y="0" on="0"/>
        <pt x="63" y="55" on="1"/>
        <pt x="368" y="1379" on="1"/>
        <pt x="381" y="1434" on="0"/>
        <pt x="431" y="1434" on="1"/>
        <pt x="523" y="1434" on="1"/>
        <pt x="573" y="1434" on="0"/>
        <pt x="560" y="1379" on="1"/>
        <pt x="430" y="814" on="1"/>
        <pt x="425" y="792" on="0"/>
        <pt x="409" y="734" on="1"/>
        <pt x="413" y="734" on="1"/>
        <pt x="1212" y="1395" on="1"/>
        <pt x="1259" y="1434" on="0"/>
        <pt x="1291" y="1434" on="1"/>
        <pt x="1434" y="1434" on="1"/>
        <pt x="1517" y="1434" on="0"/>
        <pt x="1437" y="1368" on="1"/>
        <pt x="809" y="850" on="1"/>
        <pt x="1163" y="66" on="1"/>
        <pt x="1193" y="0" on="0"/>
        <pt x="1130" y="0" on="1"/>
        <pt x="1023" y="0" on="1"/>
        <pt x="980" y="0" on="0"/>
        <pt x="962" y="39" on="1"/>
        <pt x="655" y="723" on="1"/>
        <pt x="351" y="471" on="1"/>
        <pt x="255" y="55" on="1"/>
        <pt x="242" y="0" on="0"/>
        <pt x="192" y="0" on="1"/>
      </contour>
    </TTGlyph>
    <TTGlyph name="L" xMin="50" yMin="0" xMax="998" yMax="1434">
      <contour>
        <pt x="100" y="0" on="1"/>
        <pt x="50" y="0" on="0"/>
        <pt x="63" y="55" on="1"/>
        <pt x="368" y="1379" on="1"/>
        <pt x="381" y="1434" on="0"/>
        <pt x="431" y="1434" on="1"/>
        <pt x="523" y="1434" on="1"/>
        <pt x="573" y="1434" on="0"/>
        <pt x="560" y="1379" on="1"/>
        <pt x="280" y="164" on="1"/>
        <pt x="943" y="164" on="1"/>
        <pt x="998" y="164" on="0"/>
        <pt x="987" y="119" on="1"/>
        <pt x="970" y="45" on="1"/>
        <pt x="960" y="0" on="0"/>
        <pt x="905" y="0" on="1"/>
      </contour>
    </TTGlyph>
    <TTGlyph name="Lacute" xMin="50" yMin="0" xMax="1286" yMax="1785">
      <component glyphName="uni0301.cap" x="1109" y="0" flags="0x1004"/>
      <component glyphName="L" x="0" y="0" flags="0x1204"/>
    </TTGlyph>
    <TTGlyph name="Lcaron" xMin="50" yMin="0" xMax="1085" yMax="1476">
      <component glyphName="L" x="0" y="0" flags="0x1004"/>
      <component glyphName="caron.alt" x="470" y="0" flags="0x1004"/>
    </TTGlyph>
    <TTGlyph name="Lslash" xMin="34" yMin="0" xMax="1102" yMax="1434">
      <contour>
        <pt x="97" y="444" on="1"/>
        <pt x="34" y="407" on="0"/>
        <pt x="46" y="459" on="1"/>
        <pt x="74" y="581" on="1"/>
        <pt x="83" y="620" on="0"/>
        <pt x="124" y="644" on="1"/>
        <pt x="332" y="765" on="1"/>
        <pt x="473" y="1379" on="1"/>
        <pt x="486" y="1434" on="0"/>
        <pt x="536" y="1434" on="1"/>
        <pt x="628" y="1434" on="1"/>
        <pt x="678" y="1434" on="0"/>
        <pt x="665" y="1379" on="1"/>
        <pt x="573" y="977" on="1"/>
        <pt x="563" y="935" on="0"/>
        <pt x="552" y="897" on="1"/>
        <pt x="556" y="897" on="1"/>
        <pt x="866" y="1078" on="1"/>
        <pt x="929" y="1115" on="0"/>
        <pt x="917" y="1063" on="1"/>
        <pt x="889" y="941" on="1"/>
        <pt x="880" y="901" on="0"/>
        <pt x="840" y="878" on="1"/>
        <pt x="505" y="683" on="1"/>
        <pt x="385" y="164" on="1"/>
        <pt x="1048" y="164" on="1"/>
        <pt x="1102" y="164" on="0"/>
        <pt x="1092" y="119" on="1"/>
        <pt x="1075" y="45" on="1"/>
        <pt x="1065" y="0" on="0"/>
        <pt x="1010" y="0" on="1"/>
        <pt x="205" y="0" on="1"/>
        <pt x="155" y="0" on="0"/>
        <pt x="168" y="55" on="1"/>
        <pt x="264" y="471" on="1"/>
        <pt x="274" y="516" on="0"/>
        <pt x="284" y="551" on="1"/>
        <pt x="280" y="551" on="1"/>
      </contour>
    </TTGlyph>
    <TTGlyph name="M" xMin="50" yMin="0" xMax="1749" yMax="1434">
      <contour>
        <pt x="100" y="0" on="1"/>
        <pt x="50" y="0" on="0"/>
        <pt x="63" y="55" on="1"/>
        <pt x="368" y="1379" on="1"/>
        <pt x="381" y="1434" on="0"/>
        <pt x="431" y="1434" on="1"/>
        <pt x="632" y="1434" on="1"/>
        <pt x="670" y="1434" on="0"/>
        <pt x="675" y="1374" on="1"/>
        <pt x="754" y="477" on="1"/>
        <pt x="761" y="395" on="0"/>
        <pt x="767" y="266" on="0"/>
        <pt x="767" y="206" on="1"/>
        <pt x="773" y="206" on="1"/>
        <pt x="800" y="269" on="0"/>
        <pt x="864" y="393" on="0"/>
        <pt x="910" y="477" on="1"/>
        <pt x="1403" y="1374" on="1"/>
        <pt x="1436" y="1434" on="0"/>
        <pt x="1474" y="1434" on="1"/>
        <pt x="1699" y="1434" on="1"/>
        <pt x="1749" y="1434" on="0"/>
        <pt x="1736" y="1379" on="1"/>
        <pt x="1431" y="55" on="1"/>
        <pt x="1418" y="0" on="0"/>
        <pt x="1368" y="0" on="1"/>
        <pt x="1276" y="0" on="1"/>
        <pt x="1226" y="0" on="0"/>
        <pt x="1239" y="55" on="1"/>
        <pt x="1481" y="1104" on="1"/>
        <pt x="1491" y="1149" on="0"/>
        <pt x="1501" y="1184" on="1"/>
        <pt x="1497" y="1184" on="1"/>
        <pt x="869" y="61" on="1"/>
        <pt x="835" y="0" on="0"/>
        <pt x="789" y="0" on="1"/>
        <pt x="679" y="0" on="1"/>
        <pt x="633" y="0" on="0"/>
        <pt x="627" y="61" on="1"/>
        <pt x="517" y="1184" on="1"/>
        <pt x="513" y="1184" on="1"/>
        <pt x="505" y="1140" on="0"/>
        <pt x="497" y="1104" on="1"/>
        <pt x="255" y="55" on="1"/>
        <pt x="242" y="0" on="0"/>
        <pt x="192" y="0" on="1"/>
      </contour>
    </TTGlyph>
    <TTGlyph name="N" xMin="50" yMin="0" xMax="1479" yMax="1434">
      <contour>
        <pt x="100" y="0" on="1"/>
        <pt x="50" y="0" on="0"/>
        <pt x="63" y="55" on="1"/>
        <pt x="368" y="1379" on="1"/>
        <pt x="381" y="1434" on="0"/>
        <pt x="431" y="1434" on="1"/>
        <pt x="552" y="1434" on="1"/>
        <pt x="623" y="1434" on="0"/>
        <pt x="641" y="1384" on="1"/>
        <pt x="1029" y="324" on="1"/>
        <pt x="1033" y="324" on="1"/>
        <pt x="1042" y="370" on="0"/>
        <pt x="1050" y="404" on="1"/>
        <pt x="1274" y="1379" on="1"/>
        <pt x="1287" y="1434" on="0"/>
        <pt x="1337" y="1434" on="1"/>
        <pt x="1429" y="1434" on="1"/>
        <pt x="1479" y="1434" on="0"/>
        <pt x="1466" y="1379" on="1"/>
        <pt x="1161" y="55" on="1"/>
        <pt x="1148" y="0" on="0"/>
        <pt x="1098" y="0" on="1"/>
        <pt x="1016" y="0" on="1"/>
        <pt x="946" y="0" on="0"/>
        <pt x="928" y="50" on="1"/>
        <pt x="515" y="1175" on="1"/>
        <pt x="511" y="1175" on="1"/>
        <pt x="503" y="1131" on="0"/>
        <pt x="495" y="1095" on="1"/>
        <pt x="255" y="55" on="1"/>
        <pt x="242" y="0" on="0"/>
        <pt x="192" y="0" on="1"/>
      </contour>
    </TTGlyph>
    <TTGlyph name="Nacute" xMin="50" yMin="0" xMax="1479" yMax="1785">
      <component glyphName="uni0301.cap" x="1202" y="0" flags="0x1004"/>
      <component glyphName="N" x="0" y="0" flags="0x1204"/>
    </TTGlyph>
    <TTGlyph name="Ncaron" xMin="50" yMin="0" xMax="1479" yMax="1774">
      <component glyphName="caron.cap" x="308" y="0" flags="0x1004"/>
      <component glyphName="N" x="0" y="0" flags="0x1204"/>
    </TTGlyph>
    <TTGlyph name="Ntilde" xMin="50" yMin="0" xMax="1479" yMax="1781">
      <component glyphName="tilde.cap" x="308" y="0" flags="0x1004"/>
      <component glyphName="N" x="0" y="0" flags="0x1204"/>
    </TTGlyph>
    <TTGlyph name="O" xMin="110" yMin="-30" xMax="1495" yMax="1464">
      <contour>
        <pt x="110" y="580" on="1"/>
        <pt x="110" y="980" on="0"/>
        <pt x="538" y="1464" on="0"/>
        <pt x="878" y="1464" on="1"/>
        <pt x="1183" y="1464" on="0"/>
        <pt x="1495" y="1139" on="0"/>
        <pt x="1495" y="854" on="1"/>
        <pt x="1495" y="454" on="0"/>
        <pt x="1067" y="-30" on="0"/>
        <pt x="727" y="-30" on="1"/>
        <pt x="422" y="-30" on="0"/>
        <pt x="110" y="295" on="0"/>
      </contour>
      <contour>
        <pt x="315" y="556" on="1"/>
        <pt x="315" y="351" on="0"/>
        <pt x="528" y="126" on="0"/>
        <pt x="738" y="126" on="1"/>
        <pt x="958" y="126" on="0"/>
        <pt x="1290" y="493" on="0"/>
        <pt x="1290" y="878" on="1"/>
        <pt x="1290" y="1083" on="0"/>
        <pt x="1077" y="1308" on="0"/>
        <pt x="867" y="1308" on="1"/>
        <pt x="647" y="1308" on="0"/>
        <pt x="315" y="941" on="0"/>
      </contour>
    </TTGlyph>
    <TTGlyph name="Oacute" xMin="110" yMin="-30" xMax="1495" yMax="1785">
      <component glyphName="O" x="0" y="0" flags="0x1204"/>
      <component glyphName="acute.cap" x="324" y="0" flags="0x1004"/>
    </TTGlyph>
    <TTGlyph name="Obreve" xMin="110" yMin="-30" xMax="1495" yMax="1871">
      <component glyphName="breve.cap" x="251" y="0" flags="0x1004"/>
      <component glyphName="O" x="0" y="0" flags="0x1204"/>
    </TTGlyph>
    <TTGlyph name="Ocircumflex" xMin="110" yMin="-30" xMax="1495" yMax="1762">
      <component glyphName="circumflex.cap" x="249" y="0" flags="0x1004"/>
      <component glyphName="O" x="0" y="0" flags="0x1204"/>
    </TTGlyph>
    <TTGlyph name="Odieresis" xMin="110" yMin="-30" xMax="1495" yMax="1732">
      <component glyphName="O" x="0" y="0" flags="0x1204"/>
      <component glyphName="dieresis.cap" x="247" y="0" flags="0x1004"/>
    </TTGlyph>
    <TTGlyph name="Ograve" xMin="110" yMin="-30" xMax="1495" yMax="1785">
      <component glyphName="uni0300.cap" x="1006" y="0" flags="0x1004"/>
      <component glyphName="O" x="0" y="0" flags="0x1204"/>
    </TTGlyph>
    <TTGlyph name="Ohungarumlaut" xMin="110" yMin="-30" xMax="1495" yMax="1785">
      <component glyphName="hungarumlaut.cap" x="351" y="0" flags="0x1004"/>
      <component glyphName="O" x="0" y="0" flags="0x1204"/>
    </TTGlyph>
    <TTGlyph name="Omacron" xMin="110" yMin="-30" xMax="1495" yMax="1688">
      <component glyphName="uni0304.cap" x="1070" y="0" flags="0x1004"/>
      <component glyphName="O" x="0" y="0" flags="0x1204"/>
    </TTGlyph>
    <TTGlyph name="Omega" xMin="-60" yMin="0" xMax="1522" yMax="1464">
      <component glyphName="uni03A9" x="0" y="0" flags="0x1204"/>
    </TTGlyph>
    <TTGlyph name="Oslash" xMin="-12" yMin="-30" xMax="1616" yMax="1464">
      <contour>
        <pt x="110" y="580" on="1"/>
        <pt x="110" y="980" on="0"/>
        <pt x="538" y="1464" on="0"/>
        <pt x="878" y="1464" on="1"/>
        <pt x="1185" y="1464" on="0"/>
        <pt x="1342" y="1299" on="1"/>
        <pt x="1475" y="1417" on="1"/>
        <pt x="1516" y="1453" on="0"/>
        <pt x="1546" y="1419" on="1"/>
        <pt x="1586" y="1374" on="1"/>
        <pt x="1616" y="1340" on="0"/>
        <pt x="1575" y="1303" on="1"/>
        <pt x="1429" y="1173" on="1"/>
        <pt x="1495" y="1039" on="0"/>
        <pt x="1495" y="854" on="1"/>
        <pt x="1495" y="454" on="0"/>
        <pt x="1067" y="-30" on="0"/>
        <pt x="727" y="-30" on="1"/>
        <pt x="419" y="-30" on="0"/>
        <pt x="263" y="136" on="1"/>
        <pt x="129" y="17" on="1"/>
        <pt x="88" y="-19" on="0"/>
        <pt x="58" y="15" on="1"/>
        <pt x="18" y="60" on="1"/>
        <pt x="-12" y="94" on="0"/>
        <pt x="29" y="131" on="1"/>
        <pt x="176" y="262" on="1"/>
        <pt x="110" y="395" on="0"/>
      </contour>
      <contour>
        <pt x="315" y="556" on="1"/>
        <pt x="315" y="471" on="0"/>
        <pt x="333" y="402" on="1"/>
        <pt x="1202" y="1174" on="1"/>
        <pt x="1095" y="1308" on="0"/>
        <pt x="867" y="1308" on="1"/>
        <pt x="647" y="1308" on="0"/>
        <pt x="315" y="941" on="0"/>
      </contour>
      <contour>
        <pt x="403" y="260" on="1"/>
        <pt x="510" y="126" on="0"/>
        <pt x="738" y="126" on="1"/>
        <pt x="958" y="126" on="0"/>
        <pt x="1290" y="493" on="0"/>
        <pt x="1290" y="878" on="1"/>
        <pt x="1290" y="964" on="0"/>
        <pt x="1271" y="1033" on="1"/>
      </contour>
    </TTGlyph>
    <TTGlyph name="Oslashacute" xMin="-12" yMin="-30" xMax="1616" yMax="1831">
      <component glyphName="uni0301.cap" x="1256" y="46" flags="0x1004"/>
      <component glyphName="Oslash" x="0" y="0" flags="0x1204"/>
    </TTGlyph>
    <TTGlyph name="Otilde" xMin="110" yMin="-30" xMax="1495" yMax="1781">
      <component glyphName="tilde.cap" x="250" y="0" flags="0x1004"/>
      <component glyphName="O" x="0" y="0" flags="0x1204"/>
    </TTGlyph>
    <TTGlyph name="P" xMin="50" yMin="0" xMax="1318" yMax="1434">
      <contour>
        <pt x="100" y="0" on="1"/>
        <pt x="50" y="0" on="0"/>
        <pt x="63" y="55" on="1"/>
        <pt x="368" y="1379" on="1"/>
        <pt x="381" y="1434" on="0"/>
        <pt x="431" y="1434" on="1"/>
        <pt x="841" y="1434" on="1"/>
        <pt x="1075" y="1434" on="0"/>
        <pt x="1318" y="1224" on="0"/>
        <pt x="1318" y="1045" on="1"/>
        <pt x="1318" y="864" on="0"/>
        <pt x="1027" y="576" on="0"/>
        <pt x="673" y="576" on="1"/>
        <pt x="375" y="576" on="1"/>
        <pt x="255" y="55" on="1"/>
        <pt x="242" y="0" on="0"/>
        <pt x="192" y="0" on="1"/>
      </contour>
      <contour>
        <pt x="413" y="740" on="1"/>
        <pt x="724" y="740" on="1"/>
        <pt x="931" y="740" on="0"/>
        <pt x="1123" y="897" on="0"/>
        <pt x="1123" y="1025" on="1"/>
        <pt x="1123" y="1161" on="0"/>
        <pt x="973" y="1270" on="0"/>
        <pt x="806" y="1270" on="1"/>
        <pt x="535" y="1270" on="1"/>
      </contour>
    </TTGlyph>
    <TTGlyph name="Q" xMin="110" yMin="-377" xMax="1495" yMax="1464">
      <contour>
        <pt x="110" y="580" on="1"/>
        <pt x="110" y="980" on="0"/>
        <pt x="538" y="1464" on="0"/>
        <pt x="878" y="1464" on="1"/>
        <pt x="1183" y="1464" on="0"/>
        <pt x="1495" y="1139" on="0"/>
        <pt x="1495" y="854" on="1"/>
        <pt x="1495" y="454" on="0"/>
        <pt x="1281" y="212" on="1"/>
        <pt x="1096" y="3" on="0"/>
        <pt x="817" y="-26" on="1"/>
        <pt x="818" y="-149" on="0"/>
        <pt x="921" y="-237" on="0"/>
        <pt x="1036" y="-237" on="1"/>
        <pt x="1087" y="-237" on="0"/>
        <pt x="1152" y="-224" on="1"/>
        <pt x="1192" y="-217" on="0"/>
        <pt x="1195" y="-239" on="1"/>
        <pt x="1207" y="-329" on="1"/>
        <pt x="1210" y="-353" on="0"/>
        <pt x="1179" y="-357" on="1"/>
        <pt x="1057" y="-377" on="0"/>
        <pt x="1004" y="-377" on="1"/>
        <pt x="799" y="-377" on="0"/>
        <pt x="625" y="-208" on="0"/>
        <pt x="625" y="-25" on="1"/>
        <pt x="395" y="-2" on="0"/>
        <pt x="266" y="132" on="1"/>
        <pt x="110" y="295" on="0"/>
      </contour>
      <contour>
        <pt x="315" y="556" on="1"/>
        <pt x="315" y="351" on="0"/>
        <pt x="528" y="126" on="0"/>
        <pt x="738" y="126" on="1"/>
        <pt x="958" y="126" on="0"/>
        <pt x="1290" y="493" on="0"/>
        <pt x="1290" y="878" on="1"/>
        <pt x="1290" y="1083" on="0"/>
        <pt x="1077" y="1308" on="0"/>
        <pt x="867" y="1308" on="1"/>
        <pt x="647" y="1308" on="0"/>
        <pt x="315" y="941" on="0"/>
      </contour>
    </TTGlyph>
    <TTGlyph name="R" xMin="50" yMin="0" xMax="1352" yMax="1434">
      <contour>
        <pt x="100" y="0" on="1"/>
        <pt x="50" y="0" on="0"/>
        <pt x="63" y="55" on="1"/>
        <pt x="368" y="1379" on="1"/>
        <pt x="381" y="1434" on="0"/>
        <pt x="431" y="1434" on="1"/>
        <pt x="884" y="1434" on="1"/>
        <pt x="1136" y="1434" on="0"/>
        <pt x="1352" y="1218" on="0"/>
        <pt x="1352" y="1056" on="1"/>
        <pt x="1352" y="891" on="0"/>
        <pt x="1077" y="673" on="0"/>
        <pt x="881" y="657" on="1"/>
        <pt x="880" y="655" on="1"/>
        <pt x="965" y="579" on="0"/>
        <pt x="1013" y="494" on="0"/>
        <pt x="1035" y="433" on="1"/>
        <pt x="1166" y="66" on="1"/>
        <pt x="1190" y="0" on="0"/>
        <pt x="1133" y="0" on="1"/>
        <pt x="1040" y="0" on="1"/>
        <pt x="992" y="0" on="0"/>
        <pt x="979" y="39" on="1"/>
        <pt x="863" y="396" on="1"/>
        <pt x="839" y="470" on="0"/>
        <pt x="696" y="621" on="0"/>
        <pt x="559" y="621" on="1"/>
        <pt x="385" y="621" on="1"/>
        <pt x="255" y="55" on="1"/>
        <pt x="242" y="0" on="0"/>
        <pt x="192" y="0" on="1"/>
      </contour>
      <contour>
        <pt x="423" y="785" on="1"/>
        <pt x="732" y="785" on="1"/>
        <pt x="912" y="785" on="0"/>
        <pt x="1157" y="909" on="0"/>
        <pt x="1157" y="1038" on="1"/>
        <pt x="1157" y="1182" on="0"/>
        <pt x="978" y="1270" on="0"/>
        <pt x="832" y="1270" on="1"/>
        <pt x="535" y="1270" on="1"/>
      </contour>
    </TTGlyph>
    <TTGlyph name="Racute" xMin="50" yMin="0" xMax="1352" yMax="1785">
      <component glyphName="uni0301.cap" x="1128" y="0" flags="0x1004"/>
      <component glyphName="R" x="0" y="0" flags="0x1204"/>
    </TTGlyph>
    <TTGlyph name="Rcaron" xMin="50" yMin="0" xMax="1352" yMax="1774">
      <component glyphName="caron.cap" x="234" y="0" flags="0x1004"/>
      <component glyphName="R" x="0" y="0" flags="0x1204"/>
    </TTGlyph>
    <TTGlyph name="S" xMin="34" yMin="-30" xMax="1203" yMax="1464">
      <contour>
        <pt x="84" y="112" on="1"/>
        <pt x="34" y="161" on="0"/>
        <pt x="64" y="198" on="1"/>
        <pt x="121" y="268" on="1"/>
        <pt x="152" y="306" on="0"/>
        <pt x="207" y="255" on="1"/>
        <pt x="272" y="194" on="0"/>
        <pt x="424" y="126" on="0"/>
        <pt x="542" y="126" on="1"/>
        <pt x="642" y="126" on="0"/>
        <pt x="780" y="183" on="0"/>
        <pt x="887" y="292" on="0"/>
        <pt x="887" y="373" on="1"/>
        <pt x="887" y="416" on="0"/>
        <pt x="862" y="508" on="0"/>
        <pt x="783" y="578" on="0"/>
        <pt x="735" y="597" on="1"/>
        <pt x="680" y="619" on="0"/>
        <pt x="556" y="660" on="0"/>
        <pt x="480" y="698" on="1"/>
        <pt x="416" y="730" on="0"/>
        <pt x="324" y="828" on="0"/>
        <pt x="270" y="964" on="0"/>
        <pt x="270" y="1041" on="1"/>
        <pt x="270" y="1182" on="0"/>
        <pt x="450" y="1401" on="0"/>
        <pt x="672" y="1464" on="0"/>
        <pt x="767" y="1464" on="1"/>
        <pt x="900" y="1464" on="0"/>
        <pt x="1080" y="1398" on="0"/>
        <pt x="1154" y="1341" on="1"/>
        <pt x="1203" y="1303" on="0"/>
        <pt x="1171" y="1261" on="1"/>
        <pt x="1113" y="1186" on="1"/>
        <pt x="1090" y="1156" on="0"/>
        <pt x="1044" y="1194" on="1"/>
        <pt x="1008" y="1224" on="0"/>
        <pt x="844" y="1294" on="0"/>
        <pt x="755" y="1294" on="1"/>
        <pt x="698" y="1294" on="0"/>
        <pt x="566" y="1256" on="0"/>
        <pt x="462" y="1139" on="0"/>
        <pt x="462" y="1055" on="1"/>
        <pt x="462" y="1011" on="0"/>
        <pt x="486" y="930" on="0"/>
        <pt x="551" y="870" on="0"/>
        <pt x="588" y="852" on="1"/>
        <pt x="646" y="824" on="0"/>
        <pt x="769" y="784" on="0"/>
        <pt x="819" y="764" on="1"/>
        <pt x="899" y="732" on="0"/>
        <pt x="1032" y="630" on="0"/>
        <pt x="1090" y="475" on="0"/>
        <pt x="1090" y="405" on="1"/>
        <pt x="1090" y="264" on="0"/>
        <pt x="938" y="74" on="0"/>
        <pt x="716" y="-30" on="0"/>
        <pt x="526" y="-30" on="1"/>
        <pt x="362" y="-30" on="0"/>
        <pt x="148" y="50" on="0"/>
      </contour>
    </TTGlyph>
    <TTGlyph name="Sacute" xMin="34" yMin="-30" xMax="1210" yMax="1785">
      <component glyphName="uni0301.cap" x="1033" y="0" flags="0x1004"/>
      <component glyphName="S" x="0" y="0" flags="0x1204"/>
    </TTGlyph>
    <TTGlyph name="Scaron" xMin="34" yMin="-30" xMax="1203" yMax="1774">
      <component glyphName="caron.cap" x="139" y="0" flags="0x1004"/>
      <component glyphName="S" x="0" y="0" flags="0x1204"/>
    </TTGlyph>
    <TTGlyph name="Scircumflex" xMin="34" yMin="-30" xMax="1203" yMax="1762">
      <component glyphName="circumflex.cap" x="138" y="0" flags="0x1004"/>
      <component glyphName="S" x="0" y="0" flags="0x1204"/>
    </TTGlyph>
    <TTGlyph name="Sigma" xMin="-46" yMin="0" xMax="1319" yMax="1434">
      <contour>
        <pt x="9" y="0" on="1"/>
        <pt x="-46" y="0" on="0"/>
        <pt x="-36" y="45" on="1"/>
        <pt x="-25" y="93" on="1"/>
        <pt x="-15" y="139" on="0"/>
        <pt x="26" y="182" on="1"/>
        <pt x="541" y="734" on="1"/>
        <pt x="575" y="771" on="0"/>
        <pt x="557" y="806" on="1"/>
        <pt x="300" y="1299" on="1"/>
        <pt x="286" y="1326" on="0"/>
        <pt x="294" y="1360" on="1"/>
        <pt x="301" y="1389" on="1"/>
        <pt x="312" y="1434" on="0"/>
        <pt x="366" y="1434" on="1"/>
        <pt x="1264" y="1434" on="1"/>
        <pt x="1319" y="1434" on="0"/>
        <pt x="1309" y="1389" on="1"/>
        <pt x="1292" y="1315" on="1"/>
        <pt x="1282" y="1270" on="0"/>
        <pt x="1226" y="1270" on="1"/>
        <pt x="598" y="1270" on="1"/>
        <pt x="558" y="1270" on="0"/>
        <pt x="519" y="1272" on="1"/>
        <pt x="518" y="1268" on="1"/>
        <pt x="775" y="770" on="1"/>
        <pt x="792" y="737" on="0"/>
        <pt x="760" y="703" on="1"/>
        <pt x="254" y="166" on="1"/>
        <pt x="253" y="162" on="1"/>
        <pt x="280" y="164" on="0"/>
        <pt x="334" y="164" on="1"/>
        <pt x="999" y="164" on="1"/>
        <pt x="1053" y="164" on="0"/>
        <pt x="1043" y="119" on="1"/>
        <pt x="1026" y="45" on="1"/>
        <pt x="1016" y="0" on="0"/>
        <pt x="961" y="0" on="1"/>
      </contour>
    </TTGlyph>
    <TTGlyph name="T" xMin="207" yMin="0" xMax="1415" yMax="1434">
      <contour>
        <pt x="262" y="1262" on="1"/>
        <pt x="207" y="1262" on="0"/>
        <pt x="218" y="1307" on="1"/>
        <pt x="237" y="1389" on="1"/>
        <pt x="247" y="1434" on="0"/>
        <pt x="302" y="1434" on="1"/>
        <pt x="1360" y="1434" on="1"/>
        <pt x="1415" y="1434" on="0"/>
        <pt x="1405" y="1389" on="1"/>
        <pt x="1386" y="1307" on="1"/>
        <pt x="1375" y="1262" on="0"/>
        <pt x="1320" y="1262" on="1"/>
        <pt x="887" y="1262" on="1"/>
        <pt x="609" y="55" on="1"/>
        <pt x="596" y="0" on="0"/>
        <pt x="546" y="0" on="1"/>
        <pt x="454" y="0" on="1"/>
        <pt x="404" y="0" on="0"/>
        <pt x="417" y="55" on="1"/>
        <pt x="695" y="1262" on="1"/>
      </contour>
    </TTGlyph>
    <TTGlyph name="Tcaron" xMin="207" yMin="0" xMax="1415" yMax="1774">
      <component glyphName="caron.cap" x="209" y="0" flags="0x1004"/>
      <component glyphName="T" x="0" y="0" flags="0x1204"/>
    </TTGlyph>
    <TTGlyph name="Thorn" xMin="48" yMin="-8" xMax="1194" yMax="1435">
      <contour>
        <pt x="98" y="-8" on="1"/>
        <pt x="48" y="-8" on="0"/>
        <pt x="61" y="47" on="1"/>
        <pt x="369" y="1380" on="1"/>
        <pt x="382" y="1435" on="0"/>
        <pt x="431" y="1435" on="1"/>
        <pt x="523" y="1435" on="1"/>
        <pt x="574" y="1435" on="0"/>
        <pt x="561" y="1380" on="1"/>
        <pt x="514" y="1176" on="1"/>
        <pt x="712" y="1176" on="1"/>
        <pt x="996" y="1176" on="0"/>
        <pt x="1194" y="958" on="0"/>
        <pt x="1194" y="808" on="1"/>
        <pt x="1194" y="594" on="0"/>
        <pt x="864" y="336" on="0"/>
        <pt x="538" y="336" on="1"/>
        <pt x="320" y="336" on="1"/>
        <pt x="253" y="47" on="1"/>
        <pt x="240" y="-8" on="0"/>
        <pt x="190" y="-8" on="1"/>
      </contour>
      <contour>
        <pt x="357" y="500" on="1"/>
        <pt x="593" y="500" on="1"/>
        <pt x="780" y="500" on="0"/>
        <pt x="989" y="656" on="0"/>
        <pt x="989" y="788" on="1"/>
        <pt x="989" y="910" on="0"/>
        <pt x="842" y="1012" on="0"/>
        <pt x="672" y="1012" on="1"/>
        <pt x="476" y="1012" on="1"/>
      </contour>
    </TTGlyph>
    <TTGlyph name="U" xMin="103" yMin="-30" xMax="1443" yMax="1434">
      <contour>
        <pt x="176" y="547" on="1"/>
        <pt x="368" y="1379" on="1"/>
        <pt x="381" y="1434" on="0"/>
        <pt x="431" y="1434" on="1"/>
        <pt x="523" y="1434" on="1"/>
        <pt x="573" y="1434" on="0"/>
        <pt x="560" y="1379" on="1"/>
        <pt x="375" y="577" on="1"/>
        <pt x="311" y="297" on="0"/>
        <pt x="429" y="126" on="0"/>
        <pt x="610" y="126" on="1"/>
        <pt x="756" y="126" on="0"/>
        <pt x="989" y="297" on="0"/>
        <pt x="1053" y="577" on="1"/>
        <pt x="1238" y="1379" on="1"/>
        <pt x="1251" y="1434" on="0"/>
        <pt x="1301" y="1434" on="1"/>
        <pt x="1393" y="1434" on="1"/>
        <pt x="1443" y="1434" on="0"/>
        <pt x="1430" y="1379" on="1"/>
        <pt x="1238" y="547" on="1"/>
        <pt x="1165" y="230" on="0"/>
        <pt x="843" y="-30" on="0"/>
        <pt x="574" y="-30" on="1"/>
        <pt x="375" y="-30" on="0"/>
        <pt x="103" y="230" on="0"/>
      </contour>
    </TTGlyph>
    <TTGlyph name="Uacute" xMin="103" yMin="-30" xMax="1443" yMax="1785">
      <component glyphName="uni0301.cap" x="1184" y="0" flags="0x1004"/>
      <component glyphName="U" x="0" y="0" flags="0x1204"/>
    </TTGlyph>
    <TTGlyph name="Ubreve" xMin="103" yMin="-30" xMax="1443" yMax="1871">
      <component glyphName="breve.cap" x="291" y="0" flags="0x1004"/>
      <component glyphName="U" x="0" y="0" flags="0x1204"/>
    </TTGlyph>
    <TTGlyph name="Ucircumflex" xMin="103" yMin="-30" xMax="1443" yMax="1762">
      <component glyphName="circumflex.cap" x="289" y="0" flags="0x1004"/>
      <component glyphName="U" x="0" y="0" flags="0x1204"/>
    </TTGlyph>
    <TTGlyph name="Udieresis" xMin="103" yMin="-30" xMax="1443" yMax="1732">
      <component glyphName="dieresis.cap" x="290" y="0" flags="0x1004"/>
      <component glyphName="U" x="0" y="0" flags="0x1204"/>
    </TTGlyph>
    <TTGlyph name="Ugrave" xMin="103" yMin="-30" xMax="1443" yMax="1785">
      <component glyphName="uni0300.cap" x="1046" y="0" flags="0x1004"/>
      <component glyphName="U" x="0" y="0" flags="0x1204"/>
    </TTGlyph>
    <TTGlyph name="Uhungarumlaut" xMin="103" yMin="-30" xMax="1516" yMax="1785">
      <component glyphName="hungarumlaut.cap" x="391" y="0" flags="0x1004"/>
      <component glyphName="U" x="0" y="0" flags="0x1204"/>
    </TTGlyph>
    <TTGlyph name="Umacron" xMin="103" yMin="-30" xMax="1443" yMax="1688">
      <component glyphName="uni0304.cap" x="1110" y="0" flags="0x1004"/>
      <component glyphName="U" x="0" y="0" flags="0x1204"/>
    </TTGlyph>
    <TTGlyph name="Uring" xMin="103" yMin="-30" xMax="1443" yMax="1880">
      <component glyphName="ring.cap" x="290" y="0" flags="0x1004"/>
      <component glyphName="U" x="0" y="0" flags="0x1204"/>
    </TTGlyph>
    <TTGlyph name="Utilde" xMin="103" yMin="-30" xMax="1443" yMax="1781">
      <component glyphName="tilde.cap" x="290" y="0" flags="0x1004"/>
      <component glyphName="U" x="0" y="0" flags="0x1204"/>
    </TTGlyph>
    <TTGlyph name="V" xMin="233" yMin="0" xMax="1528" yMax="1434">
      <contour>
        <pt x="242" y="1368" on="1"/>
        <pt x="233" y="1434" on="0"/>
        <pt x="284" y="1434" on="1"/>
        <pt x="374" y="1434" on="1"/>
        <pt x="429" y="1434" on="0"/>
        <pt x="435" y="1385" on="1"/>
        <pt x="553" y="490" on="1"/>
        <pt x="561" y="431" on="0"/>
        <pt x="575" y="235" on="0"/>
        <pt x="575" y="173" on="1"/>
        <pt x="579" y="173" on="1"/>
        <pt x="605" y="236" on="0"/>
        <pt x="716" y="438" on="0"/>
        <pt x="747" y="490" on="1"/>
        <pt x="1279" y="1385" on="1"/>
        <pt x="1308" y="1434" on="0"/>
        <pt x="1362" y="1434" on="1"/>
        <pt x="1476" y="1434" on="1"/>
        <pt x="1528" y="1434" on="0"/>
        <pt x="1488" y="1368" on="1"/>
        <pt x="699" y="61" on="1"/>
        <pt x="662" y="0" on="0"/>
        <pt x="619" y="0" on="1"/>
        <pt x="479" y="0" on="1"/>
        <pt x="436" y="0" on="0"/>
        <pt x="427" y="61" on="1"/>
      </contour>
    </TTGlyph>
    <TTGlyph name="W" xMin="237" yMin="0" xMax="2061" yMax="1434">
      <contour>
        <pt x="240" y="1374" on="1"/>
        <pt x="237" y="1434" on="0"/>
        <pt x="280" y="1434" on="1"/>
        <pt x="387" y="1434" on="1"/>
        <pt x="418" y="1434" on="0"/>
        <pt x="419" y="1388" on="1"/>
        <pt x="442" y="427" on="1"/>
        <pt x="443" y="366" on="0"/>
        <pt x="439" y="253" on="0"/>
        <pt x="439" y="173" on="1"/>
        <pt x="444" y="173" on="1"/>
        <pt x="468" y="232" on="0"/>
        <pt x="521" y="348" on="0"/>
        <pt x="556" y="426" on="1"/>
        <pt x="995" y="1380" on="1"/>
        <pt x="1020" y="1434" on="0"/>
        <pt x="1071" y="1434" on="1"/>
        <pt x="1206" y="1434" on="1"/>
        <pt x="1257" y="1434" on="0"/>
        <pt x="1258" y="1380" on="1"/>
        <pt x="1276" y="426" on="1"/>
        <pt x="1277" y="377" on="0"/>
        <pt x="1275" y="244" on="0"/>
        <pt x="1275" y="173" on="1"/>
        <pt x="1280" y="173" on="1"/>
        <pt x="1307" y="233" on="0"/>
        <pt x="1379" y="380" on="0"/>
        <pt x="1400" y="427" on="1"/>
        <pt x="1834" y="1388" on="1"/>
        <pt x="1855" y="1434" on="0"/>
        <pt x="1888" y="1434" on="1"/>
        <pt x="2020" y="1434" on="1"/>
        <pt x="2061" y="1434" on="0"/>
        <pt x="2032" y="1374" on="1"/>
        <pt x="1399" y="77" on="1"/>
        <pt x="1361" y="0" on="0"/>
        <pt x="1307" y="0" on="1"/>
        <pt x="1182" y="0" on="1"/>
        <pt x="1132" y="0" on="0"/>
        <pt x="1130" y="84" on="1"/>
        <pt x="1104" y="1043" on="1"/>
        <pt x="1102" y="1119" on="0"/>
        <pt x="1107" y="1202" on="0"/>
        <pt x="1107" y="1259" on="1"/>
        <pt x="1105" y="1259" on="1"/>
        <pt x="1084" y="1198" on="0"/>
        <pt x="1052" y="1113" on="0"/>
        <pt x="1019" y="1043" on="1"/>
        <pt x="566" y="84" on="1"/>
        <pt x="526" y="0" on="0"/>
        <pt x="476" y="0" on="1"/>
        <pt x="351" y="0" on="1"/>
        <pt x="298" y="0" on="0"/>
        <pt x="295" y="77" on="1"/>
      </contour>
    </TTGlyph>
    <TTGlyph name="Wacute" xMin="237" yMin="0" xMax="2061" yMax="1785">
      <component glyphName="uni0301.cap" x="1427" y="0" flags="0x1004"/>
      <component glyphName="W" x="0" y="0" flags="0x1204"/>
    </TTGlyph>
    <TTGlyph name="Wcircumflex" xMin="237" yMin="0" xMax="2061" yMax="1762">
      <component glyphName="circumflex.cap" x="532" y="0" flags="0x1004"/>
      <component glyphName="W" x="0" y="0" flags="0x1204"/>
    </TTGlyph>
    <TTGlyph name="Wdieresis" xMin="237" yMin="0" xMax="2061" yMax="1732">
      <component glyphName="dieresis.cap" x="533" y="0" flags="0x1004"/>
      <component glyphName="W" x="0" y="0" flags="0x1204"/>
    </TTGlyph>
    <TTGlyph name="Wgrave" xMin="237" yMin="0" xMax="2061" yMax="1785">
      <component glyphName="uni0300.cap" x="1289" y="0" flags="0x1004"/>
      <component glyphName="W" x="0" y="0" flags="0x1204"/>
    </TTGlyph>
    <TTGlyph name="X" xMin="-106" yMin="0" xMax="1458" yMax="1434">
      <contour>
        <pt x="-42" y="0" on="1"/>
        <pt x="-106" y="0" on="0"/>
        <pt x="-45" y="66" on="1"/>
        <pt x="593" y="752" on="1"/>
        <pt x="294" y="1368" on="1"/>
        <pt x="262" y="1434" on="0"/>
        <pt x="327" y="1434" on="1"/>
        <pt x="425" y="1434" on="1"/>
        <pt x="468" y="1434" on="0"/>
        <pt x="486" y="1395" on="1"/>
        <pt x="721" y="873" on="1"/>
        <pt x="1177" y="1395" on="1"/>
        <pt x="1211" y="1434" on="0"/>
        <pt x="1256" y="1434" on="1"/>
        <pt x="1394" y="1434" on="1"/>
        <pt x="1458" y="1434" on="0"/>
        <pt x="1397" y="1368" on="1"/>
        <pt x="806" y="727" on="1"/>
        <pt x="1132" y="66" on="1"/>
        <pt x="1165" y="0" on="0"/>
        <pt x="1099" y="0" on="1"/>
        <pt x="994" y="0" on="1"/>
        <pt x="950" y="0" on="0"/>
        <pt x="933" y="39" on="1"/>
        <pt x="679" y="607" on="1"/>
        <pt x="182" y="39" on="1"/>
        <pt x="148" y="0" on="0"/>
        <pt x="103" y="0" on="1"/>
      </contour>
    </TTGlyph>
    <TTGlyph name="Y" xMin="223" yMin="0" xMax="1502" yMax="1434">
      <contour>
        <pt x="250" y="1368" on="1"/>
        <pt x="223" y="1434" on="0"/>
        <pt x="292" y="1434" on="1"/>
        <pt x="385" y="1434" on="1"/>
        <pt x="429" y="1434" on="0"/>
        <pt x="446" y="1385" on="1"/>
        <pt x="602" y="948" on="1"/>
        <pt x="616" y="908" on="0"/>
        <pt x="663" y="769" on="0"/>
        <pt x="677" y="709" on="1"/>
        <pt x="681" y="709" on="1"/>
        <pt x="723" y="769" on="0"/>
        <pt x="804" y="873" on="0"/>
        <pt x="866" y="948" on="1"/>
        <pt x="1224" y="1385" on="1"/>
        <pt x="1264" y="1434" on="0"/>
        <pt x="1307" y="1434" on="1"/>
        <pt x="1432" y="1434" on="1"/>
        <pt x="1502" y="1434" on="0"/>
        <pt x="1444" y="1368" on="1"/>
        <pt x="763" y="590" on="1"/>
        <pt x="640" y="55" on="1"/>
        <pt x="627" y="0" on="0"/>
        <pt x="577" y="0" on="1"/>
        <pt x="485" y="0" on="1"/>
        <pt x="435" y="0" on="0"/>
        <pt x="448" y="55" on="1"/>
        <pt x="571" y="590" on="1"/>
      </contour>
    </TTGlyph>
    <TTGlyph name="Yacute" xMin="223" yMin="0" xMax="1502" yMax="1785">
      <component glyphName="uni0301.cap" x="1134" y="0" flags="0x1004"/>
      <component glyphName="Y" x="0" y="0" flags="0x1204"/>
    </TTGlyph>
    <TTGlyph name="Ycircumflex" xMin="223" yMin="0" xMax="1502" yMax="1762">
      <component glyphName="circumflex.cap" x="239" y="0" flags="0x1004"/>
      <component glyphName="Y" x="0" y="0" flags="0x1204"/>
    </TTGlyph>
    <TTGlyph name="Ydieresis" xMin="223" yMin="0" xMax="1502" yMax="1732">
      <component glyphName="dieresis.cap" x="240" y="0" flags="0x1004"/>
      <component glyphName="Y" x="0" y="0" flags="0x1204"/>
    </TTGlyph>
    <TTGlyph name="Ygrave" xMin="223" yMin="0" xMax="1502" yMax="1785">
      <component glyphName="uni0300.cap" x="996" y="0" flags="0x1004"/>
      <component glyphName="Y" x="0" y="0" flags="0x1204"/>
    </TTGlyph>
    <TTGlyph name="Z" xMin="-55" yMin="0" xMax="1340" yMax="1434">
      <contour>
        <pt x="0" y="0" on="1"/>
        <pt x="-55" y="0" on="0"/>
        <pt x="-45" y="45" on="1"/>
        <pt x="-34" y="93" on="1"/>
        <pt x="-24" y="138" on="0"/>
        <pt x="17" y="182" on="1"/>
        <pt x="1027" y="1268" on="1"/>
        <pt x="1028" y="1272" on="1"/>
        <pt x="987" y="1270" on="0"/>
        <pt x="947" y="1270" on="1"/>
        <pt x="325" y="1270" on="1"/>
        <pt x="271" y="1270" on="0"/>
        <pt x="281" y="1315" on="1"/>
        <pt x="298" y="1389" on="1"/>
        <pt x="308" y="1434" on="0"/>
        <pt x="363" y="1434" on="1"/>
        <pt x="1285" y="1434" on="1"/>
        <pt x="1340" y="1434" on="0"/>
        <pt x="1330" y="1389" on="1"/>
        <pt x="1323" y="1358" on="1"/>
        <pt x="1316" y="1328" on="0"/>
        <pt x="1288" y="1297" on="1"/>
        <pt x="254" y="166" on="1"/>
        <pt x="253" y="162" on="1"/>
        <pt x="281" y="164" on="0"/>
        <pt x="334" y="164" on="1"/>
        <pt x="1014" y="164" on="1"/>
        <pt x="1068" y="164" on="0"/>
        <pt x="1058" y="119" on="1"/>
        <pt x="1041" y="45" on="1"/>
        <pt x="1031" y="0" on="0"/>
        <pt x="976" y="0" on="1"/>
      </contour>
    </TTGlyph>
    <TTGlyph name="Zacute" xMin="-55" yMin="0" xMax="1340" yMax="1785">
      <component glyphName="uni0301.cap" x="1092" y="0" flags="0x1004"/>
      <component glyphName="Z" x="0" y="0" flags="0x1204"/>
    </TTGlyph>
    <TTGlyph name="Zcaron" xMin="-55" yMin="0" xMax="1340" yMax="1774">
      <component glyphName="caron.cap" x="198" y="0" flags="0x1004"/>
      <component glyphName="Z" x="0" y="0" flags="0x1204"/>
    </TTGlyph>
    <TTGlyph name="Zdotaccent" xMin="-55" yMin="0" xMax="1340" yMax="1737">
      <component glyphName="dotaccent.cap" x="198" y="0" flags="0x1004"/>
      <component glyphName="Z" x="0" y="0" flags="0x1204"/>
    </TTGlyph>
    <TTGlyph name="a" xMin="66" yMin="-17" xMax="1079" yMax="1067">
      <contour>
        <pt x="66" y="339" on="1"/>
        <pt x="66" y="614" on="0"/>
        <pt x="439" y="1067" on="0"/>
        <pt x="644" y="1067" on="1"/>
        <pt x="734" y="1067" on="0"/>
        <pt x="850" y="992" on="0"/>
        <pt x="878" y="942" on="1"/>
        <pt x="880" y="942" on="1"/>
        <pt x="901" y="1005" on="1"/>
        <pt x="916" y="1050" on="0"/>
        <pt x="950" y="1050" on="1"/>
        <pt x="1034" y="1050" on="1"/>
        <pt x="1079" y="1050" on="0"/>
        <pt x="1069" y="1005" on="1"/>
        <pt x="847" y="45" on="1"/>
        <pt x="837" y="0" on="0"/>
        <pt x="792" y="0" on="1"/>
        <pt x="711" y="0" on="1"/>
        <pt x="667" y="0" on="0"/>
        <pt x="676" y="45" on="1"/>
        <pt x="701" y="165" on="1"/>
        <pt x="699" y="165" on="1"/>
        <pt x="650" y="100" on="0"/>
        <pt x="487" y="-17" on="0"/>
        <pt x="387" y="-17" on="1"/>
        <pt x="242" y="-17" on="0"/>
        <pt x="66" y="158" on="0"/>
      </contour>
      <contour>
        <pt x="252" y="332" on="1"/>
        <pt x="252" y="266" on="0"/>
        <pt x="323" y="113" on="0"/>
        <pt x="433" y="113" on="1"/>
        <pt x="523" y="113" on="0"/>
        <pt x="741" y="351" on="0"/>
        <pt x="771" y="480" on="1"/>
        <pt x="838" y="770" on="1"/>
        <pt x="838" y="860" on="0"/>
        <pt x="723" y="937" on="0"/>
        <pt x="638" y="937" on="1"/>
        <pt x="498" y="937" on="0"/>
        <pt x="252" y="578" on="0"/>
      </contour>
    </TTGlyph>
    <TTGlyph name="aacute" xMin="66" yMin="-17" xMax="1079" yMax="1435">
      <component glyphName="acutecomb" x="863" y="0" flags="0x1004"/>
      <component glyphName="a" x="0" y="0" flags="0x1204"/>
    </TTGlyph>
    <TTGlyph name="abreve" xMin="66" yMin="-17" xMax="1079" yMax="1453">
      <component glyphName="uni0306" x="831" y="0" flags="0x1004"/>
      <component glyphName="a" x="0" y="0" flags="0x1204"/>
    </TTGlyph>
    <TTGlyph name="acircumflex" xMin="66" yMin="-17" xMax="1079" yMax="1434">
      <component glyphName="uni0302" x="824" y="0" flags="0x1004"/>
      <component glyphName="a" x="0" y="0" flags="0x1204"/>
    </TTGlyph>
    <TTGlyph name="acute" xMin="285" yMin="1150" xMax="763" yMax="1435">
      <contour>
        <pt x="335" y="1150" on="1"/>
        <pt x="285" y="1150" on="0"/>
        <pt x="330" y="1203" on="1"/>
        <pt x="496" y="1398" on="1"/>
        <pt x="528" y="1435" on="0"/>
        <pt x="583" y="1435" on="1"/>
        <pt x="704" y="1435" on="1"/>
        <pt x="763" y="1435" on="0"/>
        <pt x="710" y="1383" on="1"/>
        <pt x="504" y="1179" on="1"/>
        <pt x="474" y="1150" on="0"/>
        <pt x="419" y="1150" on="1"/>
      </contour>
    </TTGlyph>
    <TTGlyph name="acute.cap" xMin="457" yMin="1540" xMax="997" yMax="1785">
      <contour>
        <pt x="514" y="1540" on="1"/>
        <pt x="457" y="1540" on="0"/>
        <pt x="510" y="1593" on="1"/>
        <pt x="665" y="1748" on="1"/>
        <pt x="702" y="1785" on="0"/>
        <pt x="751" y="1785" on="1"/>
        <pt x="920" y="1785" on="1"/>
        <pt x="997" y="1785" on="0"/>
        <pt x="927" y="1733" on="1"/>
        <pt x="706" y="1569" on="1"/>
        <pt x="666" y="1540" on="0"/>
        <pt x="620" y="1540" on="1"/>
      </contour>
    </TTGlyph>
    <TTGlyph name="acutecomb" xMin="-329" yMin="1150" xMax="149" yMax="1435">
      <component glyphName="acute" x="-614" y="0" flags="0x1004"/>
    </TTGlyph>
    <TTGlyph name="adieresis" xMin="66" yMin="-17" xMax="1079" yMax="1416">
      <component glyphName="a" x="0" y="0" flags="0x1204"/>
      <component glyphName="dieresis" x="214" y="0" flags="0x1004"/>
    </TTGlyph>
    <TTGlyph name="ae" xMin="35" yMin="-17" xMax="1618" yMax="1067">
      <contour>
        <pt x="35" y="220" on="1"/>
        <pt x="35" y="402" on="0"/>
        <pt x="366" y="618" on="0"/>
        <pt x="765" y="638" on="1"/>
        <pt x="781" y="706" on="1"/>
        <pt x="806" y="812" on="0"/>
        <pt x="735" y="937" on="0"/>
        <pt x="614" y="937" on="1"/>
        <pt x="522" y="937" on="0"/>
        <pt x="396" y="888" on="0"/>
        <pt x="325" y="820" on="1"/>
        <pt x="296" y="792" on="0"/>
        <pt x="274" y="817" on="1"/>
        <pt x="227" y="872" on="1"/>
        <pt x="203" y="900" on="0"/>
        <pt x="242" y="932" on="1"/>
        <pt x="330" y="1004" on="0"/>
        <pt x="546" y="1067" on="0"/>
        <pt x="630" y="1067" on="1"/>
        <pt x="736" y="1067" on="0"/>
        <pt x="884" y="1004" on="0"/>
        <pt x="921" y="923" on="1"/>
        <pt x="923" y="923" on="1"/>
        <pt x="962" y="963" on="0"/>
        <pt x="1150" y="1067" on="0"/>
        <pt x="1292" y="1067" on="1"/>
        <pt x="1446" y="1067" on="0"/>
        <pt x="1618" y="882" on="0"/>
        <pt x="1618" y="778" on="1"/>
        <pt x="1618" y="636" on="0"/>
        <pt x="1383" y="495" on="0"/>
        <pt x="1139" y="445" on="1"/>
        <pt x="915" y="399" on="1"/>
        <pt x="909" y="361" on="0"/>
        <pt x="909" y="359" on="1"/>
        <pt x="909" y="256" on="0"/>
        <pt x="1019" y="114" on="0"/>
        <pt x="1137" y="114" on="1"/>
        <pt x="1235" y="114" on="0"/>
        <pt x="1374" y="204" on="0"/>
        <pt x="1397" y="232" on="1"/>
        <pt x="1434" y="277" on="0"/>
        <pt x="1460" y="253" on="1"/>
        <pt x="1516" y="202" on="1"/>
        <pt x="1539" y="181" on="0"/>
        <pt x="1510" y="146" on="1"/>
        <pt x="1479" y="108" on="0"/>
        <pt x="1299" y="-17" on="0"/>
        <pt x="1113" y="-17" on="1"/>
        <pt x="996" y="-17" on="0"/>
        <pt x="819" y="79" on="0"/>
        <pt x="775" y="182" on="1"/>
        <pt x="773" y="182" on="1"/>
        <pt x="679" y="90" on="0"/>
        <pt x="459" y="-17" on="0"/>
        <pt x="363" y="-17" on="1"/>
        <pt x="176" y="-17" on="0"/>
        <pt x="35" y="110" on="0"/>
      </contour>
      <contour>
        <pt x="217" y="242" on="1"/>
        <pt x="217" y="180" on="0"/>
        <pt x="290" y="118" on="0"/>
        <pt x="378" y="118" on="1"/>
        <pt x="478" y="118" on="0"/>
        <pt x="661" y="201" on="0"/>
        <pt x="734" y="278" on="1"/>
        <pt x="709" y="378" on="0"/>
        <pt x="739" y="507" on="1"/>
        <pt x="414" y="486" on="0"/>
        <pt x="217" y="338" on="0"/>
      </contour>
      <contour>
        <pt x="920" y="538" on="1"/>
        <pt x="1103" y="575" on="1"/>
        <pt x="1303" y="615" on="0"/>
        <pt x="1442" y="700" on="0"/>
        <pt x="1442" y="786" on="1"/>
        <pt x="1442" y="854" on="0"/>
        <pt x="1353" y="937" on="0"/>
        <pt x="1259" y="937" on="1"/>
        <pt x="1152" y="937" on="0"/>
        <pt x="964" y="753" on="0"/>
      </contour>
    </TTGlyph>
    <TTGlyph name="aeacute" xMin="35" yMin="-17" xMax="1618" yMax="1435">
      <component glyphName="acutecomb" x="1174" y="0" flags="0x1004"/>
      <component glyphName="ae" x="0" y="0" flags="0x1204"/>
    </TTGlyph>
    <TTGlyph name="afii10017" xMin="-98" yMin="0" xMax="1220" yMax="1434">
      <component glyphName="A" x="0" y="0" flags="0x1204"/>
    </TTGlyph>
    <TTGlyph name="afii10018" xMin="50" yMin="0" xMax="1321" yMax="1434">
      <contour>
        <pt x="100" y="0" on="1"/>
        <pt x="50" y="0" on="0"/>
        <pt x="63" y="55" on="1"/>
        <pt x="368" y="1379" on="1"/>
        <pt x="381" y="1434" on="0"/>
        <pt x="431" y="1434" on="1"/>
        <pt x="1266" y="1434" on="1"/>
        <pt x="1321" y="1434" on="0"/>
        <pt x="1311" y="1389" on="1"/>
        <pt x="1294" y="1315" on="1"/>
        <pt x="1284" y="1270" on="0"/>
        <pt x="1228" y="1270" on="1"/>
        <pt x="535" y="1270" on="1"/>
        <pt x="434" y="832" on="1"/>
        <pt x="712" y="832" on="1"/>
        <pt x="1022" y="832" on="0"/>
        <pt x="1218" y="606" on="0"/>
        <pt x="1218" y="463" on="1"/>
        <pt x="1218" y="272" on="0"/>
        <pt x="897" y="0" on="0"/>
        <pt x="560" y="0" on="1"/>
      </contour>
      <contour>
        <pt x="280" y="164" on="1"/>
        <pt x="566" y="164" on="1"/>
        <pt x="781" y="164" on="0"/>
        <pt x="1013" y="317" on="0"/>
        <pt x="1013" y="452" on="1"/>
        <pt x="1013" y="572" on="0"/>
        <pt x="852" y="668" on="0"/>
        <pt x="642" y="668" on="1"/>
        <pt x="396" y="668" on="1"/>
      </contour>
    </TTGlyph>
    <TTGlyph name="afii10019" xMin="50" yMin="0" xMax="1286" yMax="1434">
      <component glyphName="B" x="0" y="0" flags="0x1204"/>
    </TTGlyph>
    <TTGlyph name="afii10020" xMin="50" yMin="0" xMax="1281" yMax="1434">
      <contour>
        <pt x="100" y="0" on="1"/>
        <pt x="50" y="0" on="0"/>
        <pt x="63" y="55" on="1"/>
        <pt x="368" y="1379" on="1"/>
        <pt x="381" y="1434" on="0"/>
        <pt x="431" y="1434" on="1"/>
        <pt x="1226" y="1434" on="1"/>
        <pt x="1281" y="1434" on="0"/>
        <pt x="1271" y="1389" on="1"/>
        <pt x="1254" y="1315" on="1"/>
        <pt x="1243" y="1270" on="0"/>
        <pt x="1188" y="1270" on="1"/>
        <pt x="535" y="1270" on="1"/>
        <pt x="255" y="55" on="1"/>
        <pt x="242" y="0" on="0"/>
        <pt x="192" y="0" on="1"/>
      </contour>
    </TTGlyph>
    <TTGlyph name="afii10021" xMin="-151" yMin="-370" xMax="1491" yMax="1434">
      <contour>
        <pt x="-111" y="-370" on="1"/>
        <pt x="-151" y="-370" on="0"/>
        <pt x="-140" y="-320" on="1"/>
        <pt x="-41" y="109" on="1"/>
        <pt x="-28" y="164" on="0"/>
        <pt x="22" y="164" on="1"/>
        <pt x="104" y="164" on="1"/>
        <pt x="322" y="369" on="0"/>
        <pt x="490" y="867" on="0"/>
        <pt x="546" y="1107" on="1"/>
        <pt x="608" y="1379" on="1"/>
        <pt x="621" y="1434" on="0"/>
        <pt x="671" y="1434" on="1"/>
        <pt x="1441" y="1434" on="1"/>
        <pt x="1491" y="1434" on="0"/>
        <pt x="1478" y="1379" on="1"/>
        <pt x="1198" y="164" on="1"/>
        <pt x="1326" y="164" on="1"/>
        <pt x="1376" y="164" on="0"/>
        <pt x="1363" y="109" on="1"/>
        <pt x="1264" y="-320" on="1"/>
        <pt x="1253" y="-370" on="0"/>
        <pt x="1213" y="-370" on="1"/>
        <pt x="1127" y="-370" on="1"/>
        <pt x="1087" y="-370" on="0"/>
        <pt x="1098" y="-320" on="1"/>
        <pt x="1172" y="0" on="1"/>
        <pt x="100" y="0" on="1"/>
        <pt x="26" y="-320" on="1"/>
        <pt x="15" y="-370" on="0"/>
        <pt x="-25" y="-370" on="1"/>
      </contour>
      <contour>
        <pt x="314" y="164" on="1"/>
        <pt x="1006" y="164" on="1"/>
        <pt x="1261" y="1270" on="1"/>
        <pt x="749" y="1270" on="1"/>
        <pt x="699" y="1051" on="1"/>
        <pt x="596" y="601" on="0"/>
        <pt x="388" y="219" on="0"/>
      </contour>
    </TTGlyph>
    <TTGlyph name="afii10022" xMin="50" yMin="0" xMax="1361" yMax="1434">
      <component glyphName="E" x="0" y="0" flags="0x1204"/>
    </TTGlyph>
    <TTGlyph name="afii10023" xMin="50" yMin="0" xMax="1361" yMax="1732">
      <component glyphName="Edieresis" x="0" y="0" flags="0x1204"/>
    </TTGlyph>
    <TTGlyph name="afii10024" xMin="-102" yMin="0" xMax="2094" yMax="1434">
      <contour>
        <pt x="-42" y="0" on="1"/>
        <pt x="-102" y="0" on="0"/>
        <pt x="-45" y="66" on="1"/>
        <pt x="337" y="506" on="1"/>
        <pt x="451" y="637" on="0"/>
        <pt x="590" y="722" on="0"/>
        <pt x="648" y="734" on="1"/>
        <pt x="649" y="735" on="1"/>
        <pt x="625" y="745" on="0"/>
        <pt x="521" y="853" on="0"/>
        <pt x="485" y="932" on="1"/>
        <pt x="287" y="1368" on="1"/>
        <pt x="257" y="1434" on="0"/>
        <pt x="320" y="1434" on="1"/>
        <pt x="417" y="1434" on="1"/>
        <pt x="461" y="1434" on="0"/>
        <pt x="478" y="1395" on="1"/>
        <pt x="642" y="1014" on="1"/>
        <pt x="681" y="923" on="0"/>
        <pt x="803" y="813" on="0"/>
        <pt x="906" y="813" on="1"/>
        <pt x="936" y="813" on="1"/>
        <pt x="1066" y="1379" on="1"/>
        <pt x="1079" y="1434" on="0"/>
        <pt x="1129" y="1434" on="1"/>
        <pt x="1221" y="1434" on="1"/>
        <pt x="1271" y="1434" on="0"/>
        <pt x="1258" y="1379" on="1"/>
        <pt x="1128" y="813" on="1"/>
        <pt x="1158" y="813" on="1"/>
        <pt x="1257" y="813" on="0"/>
        <pt x="1395" y="925" on="0"/>
        <pt x="1474" y="1014" on="1"/>
        <pt x="1814" y="1395" on="1"/>
        <pt x="1849" y="1434" on="0"/>
        <pt x="1893" y="1434" on="1"/>
        <pt x="2030" y="1434" on="1"/>
        <pt x="2094" y="1434" on="0"/>
        <pt x="2033" y="1368" on="1"/>
        <pt x="1633" y="932" on="1"/>
        <pt x="1558" y="850" on="0"/>
        <pt x="1407" y="745" on="0"/>
        <pt x="1379" y="735" on="1"/>
        <pt x="1378" y="734" on="1"/>
        <pt x="1432" y="722" on="0"/>
        <pt x="1532" y="637" on="0"/>
        <pt x="1585" y="506" on="1"/>
        <pt x="1763" y="66" on="1"/>
        <pt x="1790" y="0" on="0"/>
        <pt x="1730" y="0" on="1"/>
        <pt x="1623" y="0" on="1"/>
        <pt x="1576" y="0" on="0"/>
        <pt x="1562" y="39" on="1"/>
        <pt x="1434" y="408" on="1"/>
        <pt x="1395" y="520" on="0"/>
        <pt x="1228" y="653" on="0"/>
        <pt x="1136" y="653" on="1"/>
        <pt x="1091" y="653" on="1"/>
        <pt x="953" y="55" on="1"/>
        <pt x="940" y="0" on="0"/>
        <pt x="890" y="0" on="1"/>
        <pt x="798" y="0" on="1"/>
        <pt x="748" y="0" on="0"/>
        <pt x="761" y="55" on="1"/>
        <pt x="899" y="653" on="1"/>
        <pt x="854" y="653" on="1"/>
        <pt x="768" y="653" on="0"/>
        <pt x="571" y="518" on="0"/>
        <pt x="482" y="408" on="1"/>
        <pt x="184" y="39" on="1"/>
        <pt x="153" y="0" on="0"/>
        <pt x="105" y="0" on="1"/>
      </contour>
    </TTGlyph>
    <TTGlyph name="afii10025" xMin="4" yMin="-30" xMax="1227" yMax="1464">
      <contour>
        <pt x="49" y="165" on="1"/>
        <pt x="4" y="212" on="0"/>
        <pt x="40" y="241" on="1"/>
        <pt x="117" y="303" on="1"/>
        <pt x="154" y="332" on="0"/>
        <pt x="196" y="278" on="1"/>
        <pt x="231" y="234" on="0"/>
        <pt x="417" y="126" on="0"/>
        <pt x="584" y="126" on="1"/>
        <pt x="753" y="126" on="0"/>
        <pt x="943" y="315" on="0"/>
        <pt x="943" y="431" on="1"/>
        <pt x="943" y="546" on="0"/>
        <pt x="786" y="675" on="0"/>
        <pt x="671" y="675" on="1"/>
        <pt x="511" y="675" on="1"/>
        <pt x="456" y="675" on="0"/>
        <pt x="466" y="718" on="1"/>
        <pt x="482" y="788" on="1"/>
        <pt x="492" y="833" on="0"/>
        <pt x="547" y="833" on="1"/>
        <pt x="701" y="833" on="1"/>
        <pt x="863" y="833" on="0"/>
        <pt x="1032" y="1002" on="0"/>
        <pt x="1032" y="1096" on="1"/>
        <pt x="1032" y="1206" on="0"/>
        <pt x="846" y="1308" on="0"/>
        <pt x="734" y="1308" on="1"/>
        <pt x="633" y="1308" on="0"/>
        <pt x="422" y="1227" on="0"/>
        <pt x="374" y="1183" on="1"/>
        <pt x="327" y="1140" on="0"/>
        <pt x="301" y="1175" on="1"/>
        <pt x="243" y="1252" on="1"/>
        <pt x="214" y="1290" on="0"/>
        <pt x="273" y="1333" on="1"/>
        <pt x="361" y="1397" on="0"/>
        <pt x="579" y="1464" on="0"/>
        <pt x="739" y="1464" on="1"/>
        <pt x="981" y="1464" on="0"/>
        <pt x="1227" y="1254" on="0"/>
        <pt x="1227" y="1110" on="1"/>
        <pt x="1227" y="957" on="0"/>
        <pt x="1032" y="780" on="0"/>
        <pt x="903" y="754" on="1"/>
        <pt x="902" y="750" on="1"/>
        <pt x="1005" y="729" on="0"/>
        <pt x="1148" y="555" on="0"/>
        <pt x="1148" y="427" on="1"/>
        <pt x="1148" y="261" on="0"/>
        <pt x="864" y="-30" on="0"/>
        <pt x="577" y="-30" on="1"/>
        <pt x="369" y="-30" on="0"/>
        <pt x="105" y="105" on="0"/>
      </contour>
    </TTGlyph>
    <TTGlyph name="afii10026" xMin="50" yMin="0" xMax="1493" yMax="1434">
      <contour>
        <pt x="100" y="0" on="1"/>
        <pt x="50" y="0" on="0"/>
        <pt x="63" y="55" on="1"/>
        <pt x="368" y="1379" on="1"/>
        <pt x="381" y="1434" on="0"/>
        <pt x="431" y="1434" on="1"/>
        <pt x="523" y="1434" on="1"/>
        <pt x="573" y="1434" on="0"/>
        <pt x="560" y="1379" on="1"/>
        <pt x="327" y="370" on="1"/>
        <pt x="317" y="325" on="0"/>
        <pt x="307" y="290" on="1"/>
        <pt x="311" y="290" on="1"/>
        <pt x="1204" y="1384" on="1"/>
        <pt x="1245" y="1434" on="0"/>
        <pt x="1315" y="1434" on="1"/>
        <pt x="1443" y="1434" on="1"/>
        <pt x="1493" y="1434" on="0"/>
        <pt x="1480" y="1379" on="1"/>
        <pt x="1175" y="55" on="1"/>
        <pt x="1162" y="0" on="0"/>
        <pt x="1112" y="0" on="1"/>
        <pt x="1020" y="0" on="1"/>
        <pt x="970" y="0" on="0"/>
        <pt x="983" y="55" on="1"/>
        <pt x="1216" y="1064" on="1"/>
        <pt x="1226" y="1109" on="0"/>
        <pt x="1236" y="1144" on="1"/>
        <pt x="1232" y="1144" on="1"/>
        <pt x="340" y="50" on="1"/>
        <pt x="299" y="0" on="0"/>
        <pt x="228" y="0" on="1"/>
      </contour>
    </TTGlyph>
    <TTGlyph name="afii10027" xMin="50" yMin="0" xMax="1493" yMax="1890">
      <component glyphName="afii10026" x="0" y="0" flags="0x1204"/>
      <component glyphName="cyrBreve" x="0" y="0" flags="0x1004"/>
    </TTGlyph>
    <TTGlyph name="afii10028" xMin="50" yMin="0" xMax="1437" yMax="1434">
      <contour>
        <pt x="100" y="0" on="1"/>
        <pt x="50" y="0" on="0"/>
        <pt x="63" y="55" on="1"/>
        <pt x="368" y="1379" on="1"/>
        <pt x="381" y="1434" on="0"/>
        <pt x="431" y="1434" on="1"/>
        <pt x="523" y="1434" on="1"/>
        <pt x="573" y="1434" on="0"/>
        <pt x="560" y="1379" on="1"/>
        <pt x="430" y="813" on="1"/>
        <pt x="472" y="813" on="1"/>
        <pt x="586" y="813" on="0"/>
        <pt x="729" y="927" on="0"/>
        <pt x="808" y="1014" on="1"/>
        <pt x="1156" y="1395" on="1"/>
        <pt x="1192" y="1434" on="0"/>
        <pt x="1235" y="1434" on="1"/>
        <pt x="1372" y="1434" on="1"/>
        <pt x="1437" y="1434" on="0"/>
        <pt x="1375" y="1368" on="1"/>
        <pt x="967" y="932" on="1"/>
        <pt x="896" y="856" on="0"/>
        <pt x="737" y="745" on="0"/>
        <pt x="709" y="735" on="1"/>
        <pt x="708" y="734" on="1"/>
        <pt x="765" y="708" on="0"/>
        <pt x="889" y="578" on="0"/>
        <pt x="919" y="506" on="1"/>
        <pt x="1105" y="66" on="1"/>
        <pt x="1133" y="0" on="0"/>
        <pt x="1072" y="0" on="1"/>
        <pt x="965" y="0" on="1"/>
        <pt x="918" y="0" on="0"/>
        <pt x="904" y="39" on="1"/>
        <pt x="768" y="408" on="1"/>
        <pt x="728" y="516" on="0"/>
        <pt x="557" y="653" on="0"/>
        <pt x="450" y="653" on="1"/>
        <pt x="393" y="653" on="1"/>
        <pt x="255" y="55" on="1"/>
        <pt x="242" y="0" on="0"/>
        <pt x="192" y="0" on="1"/>
      </contour>
    </TTGlyph>
    <TTGlyph name="afii10029" xMin="-77" yMin="-30" xMax="1515" yMax="1434">
      <contour>
        <pt x="-46" y="-17" on="1"/>
        <pt x="-77" y="-6" on="0"/>
        <pt x="-67" y="29" on="1"/>
        <pt x="-42" y="112" on="1"/>
        <pt x="-31" y="149" on="0"/>
        <pt x="15" y="135" on="1"/>
        <pt x="41" y="127" on="0"/>
        <pt x="92" y="127" on="1"/>
        <pt x="261" y="127" on="0"/>
        <pt x="466" y="654" on="0"/>
        <pt x="563" y="1077" on="1"/>
        <pt x="632" y="1379" on="1"/>
        <pt x="645" y="1434" on="0"/>
        <pt x="695" y="1434" on="1"/>
        <pt x="1465" y="1434" on="1"/>
        <pt x="1515" y="1434" on="0"/>
        <pt x="1502" y="1379" on="1"/>
        <pt x="1197" y="55" on="1"/>
        <pt x="1184" y="0" on="0"/>
        <pt x="1134" y="0" on="1"/>
        <pt x="1042" y="0" on="1"/>
        <pt x="992" y="0" on="0"/>
        <pt x="1005" y="55" on="1"/>
        <pt x="1285" y="1270" on="1"/>
        <pt x="773" y="1270" on="1"/>
        <pt x="716" y="1021" on="1"/>
        <pt x="572" y="393" on="0"/>
        <pt x="315" y="-30" on="0"/>
        <pt x="79" y="-30" on="1"/>
        <pt x="-9" y="-30" on="0"/>
      </contour>
    </TTGlyph>
    <TTGlyph name="afii10030" xMin="50" yMin="0" xMax="1749" yMax="1434">
      <component glyphName="M" x="0" y="0" flags="0x1204"/>
    </TTGlyph>
    <TTGlyph name="afii10031" xMin="50" yMin="0" xMax="1463" yMax="1434">
      <component glyphName="H" x="0" y="0" flags="0x1204"/>
    </TTGlyph>
    <TTGlyph name="afii10032" xMin="110" yMin="-30" xMax="1495" yMax="1464">
      <component glyphName="O" x="0" y="0" flags="0x1204"/>
    </TTGlyph>
    <TTGlyph name="afii10033" xMin="50" yMin="0" xMax="1457" yMax="1434">
      <contour>
        <pt x="100" y="0" on="1"/>
        <pt x="50" y="0" on="0"/>
        <pt x="63" y="55" on="1"/>
        <pt x="368" y="1379" on="1"/>
        <pt x="381" y="1434" on="0"/>
        <pt x="431" y="1434" on="1"/>
        <pt x="1407" y="1434" on="1"/>
        <pt x="1457" y="1434" on="0"/>
        <pt x="1444" y="1379" on="1"/>
        <pt x="1139" y="55" on="1"/>
        <pt x="1126" y="0" on="0"/>
        <pt x="1076" y="0" on="1"/>
        <pt x="984" y="0" on="1"/>
        <pt x="934" y="0" on="0"/>
        <pt x="947" y="55" on="1"/>
        <pt x="1227" y="1270" on="1"/>
        <pt x="535" y="1270" on="1"/>
        <pt x="255" y="55" on="1"/>
        <pt x="242" y="0" on="0"/>
        <pt x="192" y="0" on="1"/>
      </contour>
    </TTGlyph>
    <TTGlyph name="afii10034" xMin="50" yMin="0" xMax="1318" yMax="1434">
      <component glyphName="P" x="0" y="0" flags="0x1204"/>
    </TTGlyph>
    <TTGlyph name="afii10035" xMin="110" yMin="-30" xMax="1390" yMax="1464">
      <component glyphName="C" x="0" y="0" flags="0x1204"/>
    </TTGlyph>
    <TTGlyph name="afii10036" xMin="207" yMin="0" xMax="1415" yMax="1434">
      <component glyphName="T" x="0" y="0" flags="0x1204"/>
    </TTGlyph>
    <TTGlyph name="afii10037" xMin="60" yMin="-30" xMax="1501" yMax="1434">
      <contour>
        <pt x="262" y="1368" on="1"/>
        <pt x="243" y="1434" on="0"/>
        <pt x="304" y="1434" on="1"/>
        <pt x="390" y="1434" on="1"/>
        <pt x="437" y="1434" on="0"/>
        <pt x="451" y="1385" on="1"/>
        <pt x="627" y="746" on="1"/>
        <pt x="644" y="685" on="0"/>
        <pt x="674" y="532" on="0"/>
        <pt x="683" y="471" on="1"/>
        <pt x="687" y="471" on="1"/>
        <pt x="721" y="549" on="0"/>
        <pt x="814" y="702" on="0"/>
        <pt x="852" y="762" on="1"/>
        <pt x="1245" y="1385" on="1"/>
        <pt x="1276" y="1434" on="0"/>
        <pt x="1328" y="1434" on="1"/>
        <pt x="1446" y="1434" on="1"/>
        <pt x="1501" y="1434" on="0"/>
        <pt x="1458" y="1368" on="1"/>
        <pt x="781" y="331" on="1"/>
        <pt x="663" y="149" on="0"/>
        <pt x="454" y="-30" on="0"/>
        <pt x="279" y="-30" on="1"/>
        <pt x="154" y="-30" on="0"/>
        <pt x="88" y="14" on="1"/>
        <pt x="60" y="32" on="0"/>
        <pt x="77" y="65" on="1"/>
        <pt x="118" y="147" on="1"/>
        <pt x="136" y="185" on="0"/>
        <pt x="176" y="161" on="1"/>
        <pt x="232" y="127" on="0"/>
        <pt x="292" y="127" on="1"/>
        <pt x="373" y="127" on="0"/>
        <pt x="483" y="195" on="0"/>
        <pt x="519" y="249" on="1"/>
        <pt x="561" y="312" on="1"/>
      </contour>
    </TTGlyph>
    <TTGlyph name="afii10038" xMin="122" yMin="-12" xMax="1703" yMax="1439">
      <contour>
        <pt x="122" y="650" on="1"/>
        <pt x="122" y="917" on="0"/>
        <pt x="514" y="1260" on="0"/>
        <pt x="836" y="1260" on="1"/>
        <pt x="939" y="1260" on="1"/>
        <pt x="968" y="1384" on="1"/>
        <pt x="981" y="1439" on="0"/>
        <pt x="1030" y="1439" on="1"/>
        <pt x="1122" y="1439" on="1"/>
        <pt x="1172" y="1439" on="0"/>
        <pt x="1160" y="1384" on="1"/>
        <pt x="1131" y="1260" on="1"/>
        <pt x="1174" y="1260" on="1"/>
        <pt x="1437" y="1260" on="0"/>
        <pt x="1703" y="1017" on="0"/>
        <pt x="1703" y="810" on="1"/>
        <pt x="1703" y="543" on="0"/>
        <pt x="1311" y="200" on="0"/>
        <pt x="989" y="200" on="1"/>
        <pt x="886" y="200" on="1"/>
        <pt x="850" y="43" on="1"/>
        <pt x="837" y="-12" on="0"/>
        <pt x="787" y="-12" on="1"/>
        <pt x="695" y="-12" on="1"/>
        <pt x="645" y="-12" on="0"/>
        <pt x="658" y="43" on="1"/>
        <pt x="694" y="200" on="1"/>
        <pt x="651" y="200" on="1"/>
        <pt x="388" y="200" on="0"/>
        <pt x="122" y="443" on="0"/>
      </contour>
      <contour>
        <pt x="327" y="630" on="1"/>
        <pt x="327" y="491" on="0"/>
        <pt x="511" y="350" on="0"/>
        <pt x="709" y="350" on="1"/>
        <pt x="729" y="350" on="1"/>
        <pt x="904" y="1110" on="1"/>
        <pt x="824" y="1110" on="1"/>
        <pt x="619" y="1110" on="0"/>
        <pt x="327" y="866" on="0"/>
      </contour>
      <contour>
        <pt x="921" y="350" on="1"/>
        <pt x="1001" y="350" on="1"/>
        <pt x="1206" y="350" on="0"/>
        <pt x="1498" y="594" on="0"/>
        <pt x="1498" y="830" on="1"/>
        <pt x="1498" y="969" on="0"/>
        <pt x="1314" y="1110" on="0"/>
        <pt x="1116" y="1110" on="1"/>
        <pt x="1096" y="1110" on="1"/>
      </contour>
    </TTGlyph>
    <TTGlyph name="afii10039" xMin="-106" yMin="0" xMax="1458" yMax="1434">
      <component glyphName="X" x="0" y="0" flags="0x1204"/>
    </TTGlyph>
    <TTGlyph name="afii10040" xMin="50" yMin="-370" xMax="1451" yMax="1434">
      <contour>
        <pt x="100" y="0" on="1"/>
        <pt x="50" y="0" on="0"/>
        <pt x="63" y="55" on="1"/>
        <pt x="368" y="1379" on="1"/>
        <pt x="381" y="1434" on="0"/>
        <pt x="431" y="1434" on="1"/>
        <pt x="523" y="1434" on="1"/>
        <pt x="573" y="1434" on="0"/>
        <pt x="560" y="1379" on="1"/>
        <pt x="280" y="164" on="1"/>
        <pt x="966" y="164" on="1"/>
        <pt x="1246" y="1379" on="1"/>
        <pt x="1259" y="1434" on="0"/>
        <pt x="1309" y="1434" on="1"/>
        <pt x="1401" y="1434" on="1"/>
        <pt x="1451" y="1434" on="0"/>
        <pt x="1438" y="1379" on="1"/>
        <pt x="1158" y="164" on="1"/>
        <pt x="1290" y="164" on="1"/>
        <pt x="1340" y="164" on="0"/>
        <pt x="1327" y="109" on="1"/>
        <pt x="1228" y="-320" on="1"/>
        <pt x="1217" y="-370" on="0"/>
        <pt x="1177" y="-370" on="1"/>
        <pt x="1091" y="-370" on="1"/>
        <pt x="1051" y="-370" on="0"/>
        <pt x="1062" y="-320" on="1"/>
        <pt x="1136" y="0" on="1"/>
      </contour>
    </TTGlyph>
    <TTGlyph name="afii10041" xMin="179" yMin="0" xMax="1327" yMax="1434">
      <contour>
        <pt x="211" y="912" on="1"/>
        <pt x="318" y="1379" on="1"/>
        <pt x="331" y="1434" on="0"/>
        <pt x="381" y="1434" on="1"/>
        <pt x="473" y="1434" on="1"/>
        <pt x="523" y="1434" on="0"/>
        <pt x="510" y="1379" on="1"/>
        <pt x="414" y="960" on="1"/>
        <pt x="382" y="819" on="0"/>
        <pt x="453" y="720" on="0"/>
        <pt x="564" y="720" on="1"/>
        <pt x="618" y="720" on="0"/>
        <pt x="894" y="758" on="0"/>
        <pt x="988" y="797" on="1"/>
        <pt x="1122" y="1379" on="1"/>
        <pt x="1135" y="1434" on="0"/>
        <pt x="1185" y="1434" on="1"/>
        <pt x="1277" y="1434" on="1"/>
        <pt x="1327" y="1434" on="0"/>
        <pt x="1314" y="1379" on="1"/>
        <pt x="1009" y="55" on="1"/>
        <pt x="996" y="0" on="0"/>
        <pt x="946" y="0" on="1"/>
        <pt x="854" y="0" on="1"/>
        <pt x="804" y="0" on="0"/>
        <pt x="817" y="55" on="1"/>
        <pt x="938" y="583" on="1"/>
        <pt x="948" y="625" on="0"/>
        <pt x="959" y="663" on="1"/>
        <pt x="955" y="663" on="1"/>
        <pt x="851" y="622" on="0"/>
        <pt x="654" y="566" on="0"/>
        <pt x="504" y="566" on="1"/>
        <pt x="342" y="566" on="0"/>
        <pt x="179" y="770" on="0"/>
      </contour>
    </TTGlyph>
    <TTGlyph name="afii10042" xMin="50" yMin="0" xMax="2081" yMax="1434">
      <contour>
        <pt x="100" y="0" on="1"/>
        <pt x="50" y="0" on="0"/>
        <pt x="63" y="55" on="1"/>
        <pt x="368" y="1379" on="1"/>
        <pt x="381" y="1434" on="0"/>
        <pt x="431" y="1434" on="1"/>
        <pt x="523" y="1434" on="1"/>
        <pt x="573" y="1434" on="0"/>
        <pt x="560" y="1379" on="1"/>
        <pt x="280" y="164" on="1"/>
        <pt x="842" y="164" on="1"/>
        <pt x="1122" y="1379" on="1"/>
        <pt x="1135" y="1434" on="0"/>
        <pt x="1185" y="1434" on="1"/>
        <pt x="1277" y="1434" on="1"/>
        <pt x="1327" y="1434" on="0"/>
        <pt x="1314" y="1379" on="1"/>
        <pt x="1034" y="164" on="1"/>
        <pt x="1596" y="164" on="1"/>
        <pt x="1876" y="1379" on="1"/>
        <pt x="1889" y="1434" on="0"/>
        <pt x="1939" y="1434" on="1"/>
        <pt x="2031" y="1434" on="1"/>
        <pt x="2081" y="1434" on="0"/>
        <pt x="2068" y="1379" on="1"/>
        <pt x="1763" y="55" on="1"/>
        <pt x="1750" y="0" on="0"/>
        <pt x="1700" y="0" on="1"/>
      </contour>
    </TTGlyph>
    <TTGlyph name="afii10043" xMin="50" yMin="-370" xMax="2081" yMax="1434">
      <contour>
        <pt x="100" y="0" on="1"/>
        <pt x="50" y="0" on="0"/>
        <pt x="63" y="55" on="1"/>
        <pt x="368" y="1379" on="1"/>
        <pt x="381" y="1434" on="0"/>
        <pt x="431" y="1434" on="1"/>
        <pt x="523" y="1434" on="1"/>
        <pt x="573" y="1434" on="0"/>
        <pt x="560" y="1379" on="1"/>
        <pt x="280" y="164" on="1"/>
        <pt x="842" y="164" on="1"/>
        <pt x="1122" y="1379" on="1"/>
        <pt x="1135" y="1434" on="0"/>
        <pt x="1185" y="1434" on="1"/>
        <pt x="1277" y="1434" on="1"/>
        <pt x="1327" y="1434" on="0"/>
        <pt x="1314" y="1379" on="1"/>
        <pt x="1034" y="164" on="1"/>
        <pt x="1596" y="164" on="1"/>
        <pt x="1876" y="1379" on="1"/>
        <pt x="1889" y="1434" on="0"/>
        <pt x="1939" y="1434" on="1"/>
        <pt x="2031" y="1434" on="1"/>
        <pt x="2081" y="1434" on="0"/>
        <pt x="2068" y="1379" on="1"/>
        <pt x="1788" y="164" on="1"/>
        <pt x="1920" y="164" on="1"/>
        <pt x="1970" y="164" on="0"/>
        <pt x="1957" y="109" on="1"/>
        <pt x="1858" y="-320" on="1"/>
        <pt x="1847" y="-370" on="0"/>
        <pt x="1807" y="-370" on="1"/>
        <pt x="1721" y="-370" on="1"/>
        <pt x="1681" y="-370" on="0"/>
        <pt x="1692" y="-320" on="1"/>
        <pt x="1766" y="0" on="1"/>
      </contour>
    </TTGlyph>
    <TTGlyph name="afii10044" xMin="209" yMin="0" xMax="1599" yMax="1434">
      <contour>
        <pt x="264" y="1270" on="1"/>
        <pt x="209" y="1270" on="0"/>
        <pt x="220" y="1315" on="1"/>
        <pt x="237" y="1389" on="1"/>
        <pt x="247" y="1434" on="0"/>
        <pt x="302" y="1434" on="1"/>
        <pt x="915" y="1434" on="1"/>
        <pt x="965" y="1434" on="0"/>
        <pt x="952" y="1379" on="1"/>
        <pt x="825" y="828" on="1"/>
        <pt x="1093" y="828" on="1"/>
        <pt x="1385" y="828" on="0"/>
        <pt x="1599" y="615" on="0"/>
        <pt x="1599" y="454" on="1"/>
        <pt x="1599" y="270" on="0"/>
        <pt x="1279" y="0" on="0"/>
        <pt x="942" y="0" on="1"/>
        <pt x="492" y="0" on="1"/>
        <pt x="442" y="0" on="0"/>
        <pt x="455" y="55" on="1"/>
        <pt x="735" y="1270" on="1"/>
      </contour>
      <contour>
        <pt x="672" y="164" on="1"/>
        <pt x="948" y="164" on="1"/>
        <pt x="1163" y="164" on="0"/>
        <pt x="1394" y="312" on="0"/>
        <pt x="1394" y="444" on="1"/>
        <pt x="1394" y="585" on="0"/>
        <pt x="1208" y="664" on="0"/>
        <pt x="1023" y="664" on="1"/>
        <pt x="787" y="664" on="1"/>
      </contour>
    </TTGlyph>
    <TTGlyph name="afii10045" xMin="50" yMin="0" xMax="1811" yMax="1434">
      <component glyphName="I" x="1238" y="0" flags="0x1004"/>
      <component glyphName="afii10046" x="0" y="0" flags="0x1004"/>
    </TTGlyph>
    <TTGlyph name="afii10046" xMin="50" yMin="0" xMax="1207" yMax="1434">
      <contour>
        <pt x="100" y="0" on="1"/>
        <pt x="50" y="0" on="0"/>
        <pt x="63" y="55" on="1"/>
        <pt x="368" y="1379" on="1"/>
        <pt x="381" y="1434" on="0"/>
        <pt x="431" y="1434" on="1"/>
        <pt x="523" y="1434" on="1"/>
        <pt x="573" y="1434" on="0"/>
        <pt x="560" y="1379" on="1"/>
        <pt x="433" y="828" on="1"/>
        <pt x="701" y="828" on="1"/>
        <pt x="993" y="828" on="0"/>
        <pt x="1207" y="615" on="0"/>
        <pt x="1207" y="454" on="1"/>
        <pt x="1207" y="270" on="0"/>
        <pt x="887" y="0" on="0"/>
        <pt x="550" y="0" on="1"/>
      </contour>
      <contour>
        <pt x="280" y="164" on="1"/>
        <pt x="556" y="164" on="1"/>
        <pt x="771" y="164" on="0"/>
        <pt x="1002" y="312" on="0"/>
        <pt x="1002" y="444" on="1"/>
        <pt x="1002" y="585" on="0"/>
        <pt x="816" y="664" on="0"/>
        <pt x="631" y="664" on="1"/>
        <pt x="395" y="664" on="1"/>
      </contour>
    </TTGlyph>
    <TTGlyph name="afii10047" xMin="20" yMin="-30" xMax="1333" yMax="1464">
      <contour>
        <pt x="55" y="191" on="1"/>
        <pt x="20" y="247" on="0"/>
        <pt x="63" y="276" on="1"/>
        <pt x="138" y="327" on="1"/>
        <pt x="181" y="356" on="0"/>
        <pt x="210" y="309" on="1"/>
        <pt x="243" y="255" on="0"/>
        <pt x="408" y="126" on="0"/>
        <pt x="570" y="126" on="1"/>
        <pt x="752" y="126" on="0"/>
        <pt x="1064" y="378" on="0"/>
        <pt x="1115" y="668" on="1"/>
        <pt x="422" y="668" on="1"/>
        <pt x="366" y="668" on="0"/>
        <pt x="377" y="713" on="1"/>
        <pt x="395" y="787" on="1"/>
        <pt x="406" y="832" on="0"/>
        <pt x="460" y="832" on="1"/>
        <pt x="1130" y="832" on="1"/>
        <pt x="1156" y="1038" on="0"/>
        <pt x="948" y="1308" on="0"/>
        <pt x="738" y="1308" on="1"/>
        <pt x="606" y="1308" on="0"/>
        <pt x="420" y="1218" on="0"/>
        <pt x="375" y="1173" on="1"/>
        <pt x="332" y="1130" on="0"/>
        <pt x="304" y="1156" on="1"/>
        <pt x="243" y="1211" on="1"/>
        <pt x="206" y="1245" on="0"/>
        <pt x="255" y="1296" on="1"/>
        <pt x="318" y="1362" on="0"/>
        <pt x="558" y="1464" on="0"/>
        <pt x="745" y="1464" on="1"/>
        <pt x="1008" y="1464" on="0"/>
        <pt x="1333" y="1174" on="0"/>
        <pt x="1333" y="828" on="1"/>
        <pt x="1333" y="482" on="0"/>
        <pt x="930" y="-30" on="0"/>
        <pt x="570" y="-30" on="1"/>
        <pt x="351" y="-30" on="0"/>
        <pt x="114" y="96" on="0"/>
      </contour>
    </TTGlyph>
    <TTGlyph name="afii10048" xMin="50" yMin="-30" xMax="2004" yMax="1464">
      <contour>
        <pt x="100" y="0" on="1"/>
        <pt x="50" y="0" on="0"/>
        <pt x="63" y="55" on="1"/>
        <pt x="368" y="1379" on="1"/>
        <pt x="381" y="1434" on="0"/>
        <pt x="431" y="1434" on="1"/>
        <pt x="523" y="1434" on="1"/>
        <pt x="573" y="1434" on="0"/>
        <pt x="560" y="1379" on="1"/>
        <pt x="433" y="828" on="1"/>
        <pt x="643" y="828" on="1"/>
        <pt x="690" y="1060" on="0"/>
        <pt x="1047" y="1464" on="0"/>
        <pt x="1387" y="1464" on="1"/>
        <pt x="1692" y="1464" on="0"/>
        <pt x="2004" y="1139" on="0"/>
        <pt x="2004" y="854" on="1"/>
        <pt x="2004" y="454" on="0"/>
        <pt x="1576" y="-30" on="0"/>
        <pt x="1236" y="-30" on="1"/>
        <pt x="931" y="-30" on="0"/>
        <pt x="619" y="295" on="0"/>
        <pt x="619" y="580" on="1"/>
        <pt x="619" y="623" on="0"/>
        <pt x="621" y="664" on="1"/>
        <pt x="395" y="664" on="1"/>
        <pt x="255" y="55" on="1"/>
        <pt x="242" y="0" on="0"/>
        <pt x="192" y="0" on="1"/>
      </contour>
      <contour>
        <pt x="824" y="556" on="1"/>
        <pt x="824" y="351" on="0"/>
        <pt x="1037" y="126" on="0"/>
        <pt x="1247" y="126" on="1"/>
        <pt x="1467" y="126" on="0"/>
        <pt x="1799" y="493" on="0"/>
        <pt x="1799" y="878" on="1"/>
        <pt x="1799" y="1083" on="0"/>
        <pt x="1586" y="1308" on="0"/>
        <pt x="1376" y="1308" on="1"/>
        <pt x="1156" y="1308" on="0"/>
        <pt x="824" y="941" on="0"/>
      </contour>
    </TTGlyph>
    <TTGlyph name="afii10049" xMin="-45" yMin="0" xMax="1404" yMax="1434">
      <contour>
        <pt x="18" y="0" on="1"/>
        <pt x="-45" y="0" on="0"/>
        <pt x="15" y="66" on="1"/>
        <pt x="341" y="425" on="1"/>
        <pt x="360" y="446" on="0"/>
        <pt x="536" y="606" on="0"/>
        <pt x="607" y="636" on="1"/>
        <pt x="607" y="638" on="1"/>
        <pt x="472" y="662" on="0"/>
        <pt x="266" y="844" on="0"/>
        <pt x="266" y="974" on="1"/>
        <pt x="266" y="1200" on="0"/>
        <pt x="612" y="1434" on="0"/>
        <pt x="890" y="1434" on="1"/>
        <pt x="1354" y="1434" on="1"/>
        <pt x="1404" y="1434" on="0"/>
        <pt x="1391" y="1379" on="1"/>
        <pt x="1086" y="55" on="1"/>
        <pt x="1073" y="0" on="0"/>
        <pt x="1023" y="0" on="1"/>
        <pt x="931" y="0" on="1"/>
        <pt x="881" y="0" on="0"/>
        <pt x="894" y="55" on="1"/>
        <pt x="1023" y="613" on="1"/>
        <pt x="922" y="613" on="1"/>
        <pt x="810" y="613" on="0"/>
        <pt x="621" y="475" on="0"/>
        <pt x="546" y="388" on="1"/>
        <pt x="240" y="39" on="1"/>
        <pt x="206" y="0" on="0"/>
        <pt x="161" y="0" on="1"/>
      </contour>
      <contour>
        <pt x="471" y="996" on="1"/>
        <pt x="471" y="888" on="0"/>
        <pt x="597" y="777" on="0"/>
        <pt x="840" y="777" on="1"/>
        <pt x="1060" y="777" on="1"/>
        <pt x="1174" y="1270" on="1"/>
        <pt x="866" y="1270" on="1"/>
        <pt x="700" y="1270" on="0"/>
        <pt x="471" y="1138" on="0"/>
      </contour>
    </TTGlyph>
    <TTGlyph name="afii10050" xMin="50" yMin="0" xMax="1354" yMax="1810">
      <contour>
        <pt x="100" y="0" on="1"/>
        <pt x="50" y="0" on="0"/>
        <pt x="63" y="55" on="1"/>
        <pt x="368" y="1379" on="1"/>
        <pt x="381" y="1434" on="0"/>
        <pt x="431" y="1434" on="1"/>
        <pt x="1101" y="1434" on="1"/>
        <pt x="1176" y="1760" on="1"/>
        <pt x="1188" y="1810" on="0"/>
        <pt x="1228" y="1810" on="1"/>
        <pt x="1314" y="1810" on="1"/>
        <pt x="1354" y="1810" on="0"/>
        <pt x="1342" y="1760" on="1"/>
        <pt x="1242" y="1325" on="1"/>
        <pt x="1229" y="1270" on="0"/>
        <pt x="1179" y="1270" on="1"/>
        <pt x="535" y="1270" on="1"/>
        <pt x="255" y="55" on="1"/>
        <pt x="242" y="0" on="0"/>
        <pt x="192" y="0" on="1"/>
      </contour>
    </TTGlyph>
    <TTGlyph name="afii10051" xMin="210" yMin="-36" xMax="1490" yMax="1434">
      <contour>
        <pt x="265" y="1270" on="1"/>
        <pt x="210" y="1270" on="0"/>
        <pt x="220" y="1315" on="1"/>
        <pt x="237" y="1389" on="1"/>
        <pt x="247" y="1434" on="0"/>
        <pt x="303" y="1434" on="1"/>
        <pt x="1361" y="1434" on="1"/>
        <pt x="1415" y="1434" on="0"/>
        <pt x="1405" y="1389" on="1"/>
        <pt x="1388" y="1315" on="1"/>
        <pt x="1378" y="1270" on="0"/>
        <pt x="1323" y="1270" on="1"/>
        <pt x="860" y="1270" on="1"/>
        <pt x="763" y="851" on="1"/>
        <pt x="752" y="804" on="0"/>
        <pt x="742" y="771" on="1"/>
        <pt x="746" y="771" on="1"/>
        <pt x="826" y="806" on="0"/>
        <pt x="990" y="868" on="0"/>
        <pt x="1097" y="868" on="1"/>
        <pt x="1296" y="868" on="0"/>
        <pt x="1490" y="654" on="0"/>
        <pt x="1490" y="482" on="1"/>
        <pt x="1490" y="240" on="0"/>
        <pt x="1238" y="-36" on="0"/>
        <pt x="1006" y="-36" on="1"/>
        <pt x="919" y="-36" on="0"/>
        <pt x="853" y="-18" on="1"/>
        <pt x="813" y="-8" on="0"/>
        <pt x="827" y="31" on="1"/>
        <pt x="854" y="112" on="1"/>
        <pt x="862" y="136" on="0"/>
        <pt x="908" y="128" on="1"/>
        <pt x="952" y="121" on="0"/>
        <pt x="994" y="121" on="1"/>
        <pt x="1158" y="121" on="0"/>
        <pt x="1285" y="315" on="0"/>
        <pt x="1285" y="448" on="1"/>
        <pt x="1285" y="585" on="0"/>
        <pt x="1191" y="714" on="0"/>
        <pt x="1062" y="714" on="1"/>
        <pt x="1003" y="714" on="0"/>
        <pt x="798" y="674" on="0"/>
        <pt x="714" y="637" on="1"/>
        <pt x="579" y="55" on="1"/>
        <pt x="566" y="0" on="0"/>
        <pt x="516" y="0" on="1"/>
        <pt x="424" y="0" on="1"/>
        <pt x="374" y="0" on="0"/>
        <pt x="387" y="55" on="1"/>
        <pt x="668" y="1270" on="1"/>
      </contour>
    </TTGlyph>
    <TTGlyph name="afii10052" xMin="50" yMin="0" xMax="1281" yMax="1785">
      <component glyphName="afii10020" x="0" y="0" flags="0x1204"/>
      <component glyphName="acute.cap" x="184" y="0" flags="0x1004"/>
    </TTGlyph>
    <TTGlyph name="afii10053" xMin="110" yMin="-30" xMax="1387" yMax="1464">
      <contour>
        <pt x="110" y="580" on="1"/>
        <pt x="110" y="975" on="0"/>
        <pt x="519" y="1464" on="0"/>
        <pt x="908" y="1464" on="1"/>
        <pt x="1092" y="1464" on="0"/>
        <pt x="1303" y="1359" on="0"/>
        <pt x="1359" y="1257" on="1"/>
        <pt x="1387" y="1207" on="0"/>
        <pt x="1343" y="1176" on="1"/>
        <pt x="1270" y="1123" on="1"/>
        <pt x="1244" y="1105" on="0"/>
        <pt x="1215" y="1146" on="1"/>
        <pt x="1179" y="1199" on="0"/>
        <pt x="1026" y="1308" on="0"/>
        <pt x="891" y="1308" on="1"/>
        <pt x="641" y="1308" on="0"/>
        <pt x="380" y="1015" on="0"/>
        <pt x="341" y="833" on="1"/>
        <pt x="1024" y="833" on="1"/>
        <pt x="1078" y="833" on="0"/>
        <pt x="1068" y="788" on="1"/>
        <pt x="1051" y="714" on="1"/>
        <pt x="1041" y="669" on="0"/>
        <pt x="986" y="669" on="1"/>
        <pt x="319" y="669" on="1"/>
        <pt x="315" y="615" on="0"/>
        <pt x="315" y="557" on="1"/>
        <pt x="315" y="375" on="0"/>
        <pt x="492" y="126" on="0"/>
        <pt x="737" y="126" on="1"/>
        <pt x="873" y="126" on="0"/>
        <pt x="1057" y="256" on="0"/>
        <pt x="1115" y="323" on="1"/>
        <pt x="1162" y="377" on="0"/>
        <pt x="1196" y="351" on="1"/>
        <pt x="1281" y="286" on="1"/>
        <pt x="1311" y="262" on="0"/>
        <pt x="1266" y="207" on="1"/>
        <pt x="1176" y="99" on="0"/>
        <pt x="927" y="-30" on="0"/>
        <pt x="710" y="-30" on="1"/>
        <pt x="396" y="-30" on="0"/>
        <pt x="110" y="315" on="0"/>
      </contour>
    </TTGlyph>
    <TTGlyph name="afii10054" xMin="34" yMin="-30" xMax="1203" yMax="1464">
      <component glyphName="S" x="0" y="0" flags="0x1204"/>
    </TTGlyph>
    <TTGlyph name="afii10055" xMin="50" yMin="0" xMax="573" yMax="1434">
      <component glyphName="I" x="0" y="0" flags="0x1204"/>
    </TTGlyph>
    <TTGlyph name="afii10056" xMin="50" yMin="0" xMax="834" yMax="1732">
      <component glyphName="Idieresis" x="0" y="0" flags="0x1204"/>
    </TTGlyph>
    <TTGlyph name="afii10057" xMin="-72" yMin="-30" xMax="865" yMax="1434">
      <component glyphName="J" x="0" y="0" flags="0x1204"/>
    </TTGlyph>
    <TTGlyph name="afii10058" xMin="-77" yMin="-30" xMax="2149" yMax="1434">
      <contour>
        <pt x="-46" y="-17" on="1"/>
        <pt x="-77" y="-6" on="0"/>
        <pt x="-67" y="29" on="1"/>
        <pt x="-42" y="112" on="1"/>
        <pt x="-31" y="149" on="0"/>
        <pt x="15" y="135" on="1"/>
        <pt x="41" y="127" on="0"/>
        <pt x="92" y="127" on="1"/>
        <pt x="261" y="127" on="0"/>
        <pt x="466" y="654" on="0"/>
        <pt x="563" y="1077" on="1"/>
        <pt x="632" y="1379" on="1"/>
        <pt x="645" y="1434" on="0"/>
        <pt x="695" y="1434" on="1"/>
        <pt x="1465" y="1434" on="1"/>
        <pt x="1515" y="1434" on="0"/>
        <pt x="1502" y="1379" on="1"/>
        <pt x="1375" y="828" on="1"/>
        <pt x="1643" y="828" on="1"/>
        <pt x="1935" y="828" on="0"/>
        <pt x="2149" y="615" on="0"/>
        <pt x="2149" y="454" on="1"/>
        <pt x="2149" y="270" on="0"/>
        <pt x="1829" y="0" on="0"/>
        <pt x="1492" y="0" on="1"/>
        <pt x="1042" y="0" on="1"/>
        <pt x="992" y="0" on="0"/>
        <pt x="1005" y="55" on="1"/>
        <pt x="1285" y="1270" on="1"/>
        <pt x="773" y="1270" on="1"/>
        <pt x="716" y="1021" on="1"/>
        <pt x="572" y="393" on="0"/>
        <pt x="315" y="-30" on="0"/>
        <pt x="79" y="-30" on="1"/>
        <pt x="-9" y="-30" on="0"/>
      </contour>
      <contour>
        <pt x="1222" y="164" on="1"/>
        <pt x="1498" y="164" on="1"/>
        <pt x="1713" y="164" on="0"/>
        <pt x="1944" y="312" on="0"/>
        <pt x="1944" y="444" on="1"/>
        <pt x="1944" y="585" on="0"/>
        <pt x="1758" y="664" on="0"/>
        <pt x="1573" y="664" on="1"/>
        <pt x="1337" y="664" on="1"/>
      </contour>
    </TTGlyph>
    <TTGlyph name="afii10059" xMin="50" yMin="0" xMax="2097" yMax="1434">
      <contour>
        <pt x="100" y="0" on="1"/>
        <pt x="50" y="0" on="0"/>
        <pt x="63" y="55" on="1"/>
        <pt x="368" y="1379" on="1"/>
        <pt x="381" y="1434" on="0"/>
        <pt x="431" y="1434" on="1"/>
        <pt x="523" y="1434" on="1"/>
        <pt x="573" y="1434" on="0"/>
        <pt x="560" y="1379" on="1"/>
        <pt x="433" y="828" on="1"/>
        <pt x="1131" y="828" on="1"/>
        <pt x="1258" y="1379" on="1"/>
        <pt x="1271" y="1434" on="0"/>
        <pt x="1321" y="1434" on="1"/>
        <pt x="1413" y="1434" on="1"/>
        <pt x="1463" y="1434" on="0"/>
        <pt x="1450" y="1379" on="1"/>
        <pt x="1323" y="828" on="1"/>
        <pt x="1591" y="828" on="1"/>
        <pt x="1883" y="828" on="0"/>
        <pt x="2097" y="615" on="0"/>
        <pt x="2097" y="454" on="1"/>
        <pt x="2097" y="270" on="0"/>
        <pt x="1777" y="0" on="0"/>
        <pt x="1440" y="0" on="1"/>
        <pt x="990" y="0" on="1"/>
        <pt x="940" y="0" on="0"/>
        <pt x="953" y="55" on="1"/>
        <pt x="1093" y="664" on="1"/>
        <pt x="395" y="664" on="1"/>
        <pt x="255" y="55" on="1"/>
        <pt x="242" y="0" on="0"/>
        <pt x="192" y="0" on="1"/>
      </contour>
      <contour>
        <pt x="1170" y="164" on="1"/>
        <pt x="1446" y="164" on="1"/>
        <pt x="1661" y="164" on="0"/>
        <pt x="1892" y="312" on="0"/>
        <pt x="1892" y="444" on="1"/>
        <pt x="1892" y="585" on="0"/>
        <pt x="1706" y="664" on="0"/>
        <pt x="1521" y="664" on="1"/>
        <pt x="1285" y="664" on="1"/>
      </contour>
    </TTGlyph>
    <TTGlyph name="afii10060" xMin="209" yMin="0" xMax="1522" yMax="1434">
      <contour>
        <pt x="264" y="1270" on="1"/>
        <pt x="209" y="1270" on="0"/>
        <pt x="220" y="1315" on="1"/>
        <pt x="237" y="1389" on="1"/>
        <pt x="247" y="1434" on="0"/>
        <pt x="302" y="1434" on="1"/>
        <pt x="1360" y="1434" on="1"/>
        <pt x="1415" y="1434" on="0"/>
        <pt x="1405" y="1389" on="1"/>
        <pt x="1388" y="1315" on="1"/>
        <pt x="1377" y="1270" on="0"/>
        <pt x="1322" y="1270" on="1"/>
        <pt x="859" y="1270" on="1"/>
        <pt x="763" y="851" on="1"/>
        <pt x="753" y="809" on="0"/>
        <pt x="742" y="771" on="1"/>
        <pt x="746" y="771" on="1"/>
        <pt x="850" y="812" on="0"/>
        <pt x="1047" y="868" on="0"/>
        <pt x="1203" y="868" on="1"/>
        <pt x="1359" y="868" on="0"/>
        <pt x="1522" y="664" on="0"/>
        <pt x="1490" y="522" on="1"/>
        <pt x="1383" y="55" on="1"/>
        <pt x="1370" y="0" on="0"/>
        <pt x="1320" y="0" on="1"/>
        <pt x="1228" y="0" on="1"/>
        <pt x="1178" y="0" on="0"/>
        <pt x="1191" y="55" on="1"/>
        <pt x="1287" y="474" on="1"/>
        <pt x="1319" y="615" on="0"/>
        <pt x="1248" y="714" on="0"/>
        <pt x="1137" y="714" on="1"/>
        <pt x="1083" y="714" on="0"/>
        <pt x="807" y="676" on="0"/>
        <pt x="713" y="637" on="1"/>
        <pt x="579" y="55" on="1"/>
        <pt x="566" y="0" on="0"/>
        <pt x="516" y="0" on="1"/>
        <pt x="424" y="0" on="1"/>
        <pt x="374" y="0" on="0"/>
        <pt x="387" y="55" on="1"/>
        <pt x="667" y="1270" on="1"/>
      </contour>
    </TTGlyph>
    <TTGlyph name="afii10061" xMin="50" yMin="0" xMax="1437" yMax="1785">
      <component glyphName="afii10028" x="0" y="0" flags="0x1204"/>
      <component glyphName="acute.cap" x="263" y="0" flags="0x1004"/>
    </TTGlyph>
    <TTGlyph name="afii10062" xMin="60" yMin="-30" xMax="1501" yMax="1890">
      <component glyphName="afii10037" x="0" y="0" flags="0x1204"/>
      <component glyphName="cyrBreve" x="-56" y="0" flags="0x1004"/>
    </TTGlyph>
    <TTGlyph name="afii10065" xMin="66" yMin="-17" xMax="1079" yMax="1067">
      <component glyphName="a" x="0" y="0" flags="0x1204"/>
    </TTGlyph>
    <TTGlyph name="afii10066" xMin="74" yMin="-17" xMax="1174" yMax="1514">
      <contour>
        <pt x="74" y="452" on="1"/>
        <pt x="74" y="602" on="0"/>
        <pt x="211" y="1026" on="0"/>
        <pt x="330" y="1215" on="0"/>
        <pt x="449" y="1329" on="0"/>
        <pt x="637" y="1422" on="0"/>
        <pt x="736" y="1430" on="1"/>
        <pt x="857" y="1440" on="0"/>
        <pt x="967" y="1442" on="0"/>
        <pt x="1015" y="1460" on="1"/>
        <pt x="1057" y="1476" on="0"/>
        <pt x="1081" y="1514" on="0"/>
        <pt x="1115" y="1514" on="1"/>
        <pt x="1139" y="1514" on="1"/>
        <pt x="1174" y="1514" on="0"/>
        <pt x="1168" y="1479" on="1"/>
        <pt x="1158" y="1426" on="0"/>
        <pt x="1053" y="1315" on="0"/>
        <pt x="949" y="1295" on="1"/>
        <pt x="904" y="1286" on="0"/>
        <pt x="728" y="1274" on="0"/>
        <pt x="591" y="1261" on="0"/>
        <pt x="540" y="1234" on="1"/>
        <pt x="343" y="1131" on="0"/>
        <pt x="254" y="822" on="1"/>
        <pt x="261" y="818" on="1"/>
        <pt x="283" y="876" on="0"/>
        <pt x="526" y="1067" on="0"/>
        <pt x="660" y="1067" on="1"/>
        <pt x="894" y="1067" on="0"/>
        <pt x="1080" y="798" on="0"/>
        <pt x="1080" y="648" on="1"/>
        <pt x="1080" y="384" on="0"/>
        <pt x="753" y="-17" on="0"/>
        <pt x="488" y="-17" on="1"/>
        <pt x="254" y="-17" on="0"/>
        <pt x="74" y="250" on="0"/>
      </contour>
      <contour>
        <pt x="254" y="387" on="1"/>
        <pt x="254" y="262" on="0"/>
        <pt x="371" y="113" on="0"/>
        <pt x="501" y="113" on="1"/>
        <pt x="657" y="113" on="0"/>
        <pt x="894" y="396" on="0"/>
        <pt x="894" y="663" on="1"/>
        <pt x="894" y="788" on="0"/>
        <pt x="777" y="937" on="0"/>
        <pt x="647" y="937" on="1"/>
        <pt x="491" y="937" on="0"/>
        <pt x="254" y="654" on="0"/>
      </contour>
    </TTGlyph>
    <TTGlyph name="afii10067" xMin="72" yMin="-17" xMax="945" yMax="1067">
      <contour>
        <pt x="72" y="404" on="1"/>
        <pt x="72" y="616" on="0"/>
        <pt x="332" y="1067" on="0"/>
        <pt x="656" y="1067" on="1"/>
        <pt x="769" y="1067" on="0"/>
        <pt x="945" y="960" on="0"/>
        <pt x="945" y="848" on="1"/>
        <pt x="945" y="762" on="0"/>
        <pt x="856" y="626" on="0"/>
        <pt x="708" y="570" on="1"/>
        <pt x="708" y="568" on="1"/>
        <pt x="812" y="555" on="0"/>
        <pt x="920" y="410" on="0"/>
        <pt x="920" y="305" on="1"/>
        <pt x="920" y="154" on="0"/>
        <pt x="674" y="-17" on="0"/>
        <pt x="446" y="-17" on="1"/>
        <pt x="284" y="-17" on="0"/>
        <pt x="72" y="176" on="0"/>
      </contour>
      <contour>
        <pt x="258" y="357" on="1"/>
        <pt x="258" y="248" on="0"/>
        <pt x="342" y="113" on="0"/>
        <pt x="472" y="113" on="1"/>
        <pt x="578" y="113" on="0"/>
        <pt x="734" y="200" on="0"/>
        <pt x="734" y="322" on="1"/>
        <pt x="734" y="396" on="0"/>
        <pt x="628" y="481" on="0"/>
        <pt x="548" y="481" on="1"/>
        <pt x="486" y="481" on="0"/>
        <pt x="330" y="444" on="0"/>
        <pt x="264" y="430" on="1"/>
        <pt x="258" y="392" on="0"/>
      </contour>
      <contour>
        <pt x="276" y="569" on="1"/>
        <pt x="571" y="630" on="0"/>
        <pt x="769" y="726" on="0"/>
        <pt x="769" y="836" on="1"/>
        <pt x="769" y="884" on="0"/>
        <pt x="679" y="937" on="0"/>
        <pt x="623" y="937" on="1"/>
        <pt x="520" y="937" on="0"/>
        <pt x="322" y="770" on="0"/>
      </contour>
    </TTGlyph>
    <TTGlyph name="afii10068" xMin="20" yMin="-17" xMax="825" yMax="1067">
      <contour>
        <pt x="20" y="226" on="1"/>
        <pt x="20" y="296" on="0"/>
        <pt x="64" y="382" on="0"/>
        <pt x="158" y="490" on="0"/>
        <pt x="248" y="529" on="1"/>
        <pt x="313" y="557" on="0"/>
        <pt x="467" y="615" on="0"/>
        <pt x="530" y="648" on="1"/>
        <pt x="590" y="679" on="0"/>
        <pt x="632" y="726" on="0"/>
        <pt x="649" y="782" on="0"/>
        <pt x="649" y="806" on="1"/>
        <pt x="649" y="836" on="0"/>
        <pt x="628" y="884" on="0"/>
        <pt x="564" y="937" on="0"/>
        <pt x="499" y="937" on="1"/>
        <pt x="428" y="937" on="0"/>
        <pt x="300" y="890" on="0"/>
        <pt x="258" y="858" on="1"/>
        <pt x="225" y="833" on="0"/>
        <pt x="206" y="854" on="1"/>
        <pt x="166" y="900" on="1"/>
        <pt x="146" y="923" on="0"/>
        <pt x="184" y="956" on="1"/>
        <pt x="238" y="1002" on="0"/>
        <pt x="418" y="1067" on="0"/>
        <pt x="519" y="1067" on="1"/>
        <pt x="638" y="1067" on="0"/>
        <pt x="760" y="988" on="0"/>
        <pt x="825" y="881" on="0"/>
        <pt x="825" y="821" on="1"/>
        <pt x="825" y="736" on="0"/>
        <pt x="784" y="640" on="0"/>
        <pt x="686" y="552" on="0"/>
        <pt x="603" y="514" on="1"/>
        <pt x="538" y="484" on="0"/>
        <pt x="415" y="442" on="0"/>
        <pt x="334" y="401" on="1"/>
        <pt x="272" y="370" on="0"/>
        <pt x="226" y="320" on="0"/>
        <pt x="206" y="267" on="0"/>
        <pt x="206" y="232" on="1"/>
        <pt x="206" y="197" on="0"/>
        <pt x="234" y="144" on="0"/>
        <pt x="294" y="113" on="0"/>
        <pt x="372" y="113" on="1"/>
        <pt x="432" y="113" on="0"/>
        <pt x="600" y="174" on="0"/>
        <pt x="672" y="233" on="1"/>
        <pt x="702" y="258" on="0"/>
        <pt x="724" y="236" on="1"/>
        <pt x="770" y="190" on="1"/>
        <pt x="797" y="163" on="0"/>
        <pt x="768" y="137" on="1"/>
        <pt x="672" y="48" on="0"/>
        <pt x="472" y="-17" on="0"/>
        <pt x="350" y="-17" on="1"/>
        <pt x="210" y="-17" on="0"/>
        <pt x="82" y="58" on="0"/>
        <pt x="20" y="156" on="0"/>
      </contour>
    </TTGlyph>
    <TTGlyph name="afii10069" xMin="68" yMin="-17" xMax="1121" yMax="1493">
      <contour>
        <pt x="68" y="402" on="1"/>
        <pt x="68" y="654" on="0"/>
        <pt x="405" y="1067" on="0"/>
        <pt x="670" y="1067" on="1"/>
        <pt x="764" y="1067" on="0"/>
        <pt x="909" y="992" on="0"/>
        <pt x="939" y="947" on="1"/>
        <pt x="943" y="947" on="1"/>
        <pt x="945" y="981" on="0"/>
        <pt x="945" y="1028" on="1"/>
        <pt x="945" y="1173" on="0"/>
        <pt x="820" y="1363" on="0"/>
        <pt x="691" y="1363" on="1"/>
        <pt x="626" y="1363" on="0"/>
        <pt x="494" y="1316" on="0"/>
        <pt x="462" y="1288" on="1"/>
        <pt x="428" y="1258" on="0"/>
        <pt x="406" y="1290" on="1"/>
        <pt x="376" y="1333" on="1"/>
        <pt x="351" y="1368" on="0"/>
        <pt x="382" y="1393" on="1"/>
        <pt x="430" y="1432" on="0"/>
        <pt x="606" y="1493" on="0"/>
        <pt x="710" y="1493" on="1"/>
        <pt x="898" y="1493" on="0"/>
        <pt x="1121" y="1242" on="0"/>
        <pt x="1121" y="988" on="1"/>
        <pt x="1121" y="453" on="0"/>
        <pt x="760" y="-17" on="0"/>
        <pt x="488" y="-17" on="1"/>
        <pt x="262" y="-17" on="0"/>
        <pt x="68" y="216" on="0"/>
      </contour>
      <contour>
        <pt x="254" y="387" on="1"/>
        <pt x="254" y="243" on="0"/>
        <pt x="376" y="113" on="0"/>
        <pt x="501" y="113" on="1"/>
        <pt x="637" y="113" on="0"/>
        <pt x="910" y="396" on="0"/>
        <pt x="910" y="663" on="1"/>
        <pt x="910" y="770" on="0"/>
        <pt x="787" y="937" on="0"/>
        <pt x="657" y="937" on="1"/>
        <pt x="501" y="937" on="0"/>
        <pt x="254" y="645" on="0"/>
      </contour>
    </TTGlyph>
    <TTGlyph name="afii10070" xMin="68" yMin="-17" xMax="998" yMax="1067">
      <component glyphName="e" x="0" y="0" flags="0x1204"/>
    </TTGlyph>
    <TTGlyph name="afii10071" xMin="68" yMin="-17" xMax="1027" yMax="1416">
      <component glyphName="edieresis" x="0" y="0" flags="0x1204"/>
    </TTGlyph>
    <TTGlyph name="afii10072" xMin="-90" yMin="0" xMax="1533" yMax="1050">
      <contour>
        <pt x="-29" y="0" on="1"/>
        <pt x="-90" y="0" on="0"/>
        <pt x="-41" y="59" on="1"/>
        <pt x="230" y="384" on="1"/>
        <pt x="301" y="469" on="0"/>
        <pt x="392" y="532" on="0"/>
        <pt x="446" y="552" on="1"/>
        <pt x="447" y="554" on="1"/>
        <pt x="406" y="566" on="0"/>
        <pt x="349" y="650" on="0"/>
        <pt x="324" y="706" on="1"/>
        <pt x="197" y="991" on="1"/>
        <pt x="171" y="1050" on="0"/>
        <pt x="236" y="1050" on="1"/>
        <pt x="311" y="1050" on="1"/>
        <pt x="348" y="1050" on="0"/>
        <pt x="358" y="1024" on="1"/>
        <pt x="462" y="760" on="1"/>
        <pt x="476" y="724" on="0"/>
        <pt x="585" y="614" on="0"/>
        <pt x="638" y="614" on="1"/>
        <pt x="663" y="614" on="1"/>
        <pt x="753" y="1005" on="1"/>
        <pt x="763" y="1050" on="0"/>
        <pt x="808" y="1050" on="1"/>
        <pt x="894" y="1050" on="1"/>
        <pt x="939" y="1050" on="0"/>
        <pt x="929" y="1005" on="1"/>
        <pt x="839" y="614" on="1"/>
        <pt x="864" y="614" on="1"/>
        <pt x="917" y="614" on="0"/>
        <pt x="1040" y="721" on="0"/>
        <pt x="1074" y="760" on="1"/>
        <pt x="1300" y="1024" on="1"/>
        <pt x="1322" y="1050" on="0"/>
        <pt x="1359" y="1050" on="1"/>
        <pt x="1466" y="1050" on="1"/>
        <pt x="1533" y="1050" on="0"/>
        <pt x="1479" y="991" on="1"/>
        <pt x="1220" y="706" on="1"/>
        <pt x="1179" y="661" on="0"/>
        <pt x="1052" y="562" on="0"/>
        <pt x="1027" y="554" on="1"/>
        <pt x="1026" y="552" on="1"/>
        <pt x="1072" y="532" on="0"/>
        <pt x="1135" y="467" on="0"/>
        <pt x="1166" y="384" on="1"/>
        <pt x="1287" y="59" on="1"/>
        <pt x="1309" y="0" on="0"/>
        <pt x="1247" y="0" on="1"/>
        <pt x="1168" y="0" on="1"/>
        <pt x="1133" y="0" on="0"/>
        <pt x="1120" y="37" on="1"/>
        <pt x="1010" y="358" on="1"/>
        <pt x="983" y="438" on="0"/>
        <pt x="896" y="482" on="0"/>
        <pt x="834" y="482" on="1"/>
        <pt x="808" y="482" on="1"/>
        <pt x="707" y="45" on="1"/>
        <pt x="697" y="0" on="0"/>
        <pt x="652" y="0" on="1"/>
        <pt x="566" y="0" on="1"/>
        <pt x="521" y="0" on="0"/>
        <pt x="531" y="45" on="1"/>
        <pt x="632" y="482" on="1"/>
        <pt x="606" y="482" on="1"/>
        <pt x="544" y="482" on="0"/>
        <pt x="474" y="438" on="0"/>
        <pt x="410" y="358" on="1"/>
        <pt x="152" y="37" on="1"/>
        <pt x="122" y="0" on="0"/>
        <pt x="86" y="0" on="1"/>
      </contour>
    </TTGlyph>
    <TTGlyph name="afii10073" xMin="1" yMin="-17" xMax="906" yMax="1067">
      <contour>
        <pt x="27" y="119" on="1"/>
        <pt x="1" y="152" on="0"/>
        <pt x="29" y="174" on="1"/>
        <pt x="89" y="223" on="1"/>
        <pt x="116" y="245" on="0"/>
        <pt x="142" y="213" on="1"/>
        <pt x="157" y="195" on="0"/>
        <pt x="286" y="113" on="0"/>
        <pt x="386" y="113" on="1"/>
        <pt x="518" y="113" on="0"/>
        <pt x="666" y="250" on="0"/>
        <pt x="666" y="333" on="1"/>
        <pt x="666" y="422" on="0"/>
        <pt x="550" y="483" on="0"/>
        <pt x="447" y="483" on="1"/>
        <pt x="333" y="483" on="1"/>
        <pt x="288" y="483" on="0"/>
        <pt x="296" y="518" on="1"/>
        <pt x="309" y="578" on="1"/>
        <pt x="317" y="613" on="0"/>
        <pt x="363" y="613" on="1"/>
        <pt x="464" y="613" on="1"/>
        <pt x="586" y="613" on="0"/>
        <pt x="730" y="719" on="0"/>
        <pt x="730" y="800" on="1"/>
        <pt x="730" y="863" on="0"/>
        <pt x="616" y="937" on="0"/>
        <pt x="508" y="937" on="1"/>
        <pt x="438" y="937" on="0"/>
        <pt x="316" y="890" on="0"/>
        <pt x="288" y="864" on="1"/>
        <pt x="252" y="830" on="0"/>
        <pt x="233" y="848" on="1"/>
        <pt x="183" y="896" on="1"/>
        <pt x="151" y="927" on="0"/>
        <pt x="190" y="962" on="1"/>
        <pt x="238" y="1006" on="0"/>
        <pt x="394" y="1067" on="0"/>
        <pt x="544" y="1067" on="1"/>
        <pt x="740" y="1067" on="0"/>
        <pt x="906" y="918" on="0"/>
        <pt x="906" y="819" on="1"/>
        <pt x="906" y="696" on="0"/>
        <pt x="741" y="564" on="0"/>
        <pt x="688" y="551" on="1"/>
        <pt x="688" y="548" on="1"/>
        <pt x="762" y="532" on="0"/>
        <pt x="852" y="421" on="0"/>
        <pt x="852" y="324" on="1"/>
        <pt x="852" y="192" on="0"/>
        <pt x="600" y="-17" on="0"/>
        <pt x="387" y="-17" on="1"/>
        <pt x="219" y="-17" on="0"/>
        <pt x="45" y="96" on="0"/>
      </contour>
    </TTGlyph>
    <TTGlyph name="afii10074" xMin="63" yMin="-17" xMax="1100" yMax="1050">
      <component glyphName="u" x="0" y="0" flags="0x1204"/>
    </TTGlyph>
    <TTGlyph name="afii10075" xMin="63" yMin="-17" xMax="1143" yMax="1472">
      <component glyphName="afii10074" x="0" y="0" flags="0x1204"/>
      <component glyphName="cyrbreve" x="0" y="0" flags="0x1004"/>
    </TTGlyph>
    <TTGlyph name="afii10076" xMin="22" yMin="0" xMax="1065" yMax="1050">
      <contour>
        <pt x="67" y="0" on="1"/>
        <pt x="22" y="0" on="0"/>
        <pt x="32" y="45" on="1"/>
        <pt x="254" y="1005" on="1"/>
        <pt x="264" y="1050" on="0"/>
        <pt x="309" y="1050" on="1"/>
        <pt x="395" y="1050" on="1"/>
        <pt x="440" y="1050" on="0"/>
        <pt x="430" y="1005" on="1"/>
        <pt x="340" y="614" on="1"/>
        <pt x="381" y="614" on="1"/>
        <pt x="434" y="614" on="0"/>
        <pt x="566" y="720" on="0"/>
        <pt x="601" y="760" on="1"/>
        <pt x="831" y="1024" on="1"/>
        <pt x="854" y="1050" on="0"/>
        <pt x="890" y="1050" on="1"/>
        <pt x="997" y="1050" on="1"/>
        <pt x="1065" y="1050" on="0"/>
        <pt x="1010" y="991" on="1"/>
        <pt x="740" y="700" on="1"/>
        <pt x="713" y="671" on="0"/>
        <pt x="576" y="566" on="0"/>
        <pt x="541" y="554" on="1"/>
        <pt x="540" y="552" on="1"/>
        <pt x="593" y="533" on="0"/>
        <pt x="660" y="470" on="0"/>
        <pt x="693" y="384" on="1"/>
        <pt x="818" y="59" on="1"/>
        <pt x="841" y="0" on="0"/>
        <pt x="778" y="0" on="1"/>
        <pt x="698" y="0" on="1"/>
        <pt x="663" y="0" on="0"/>
        <pt x="650" y="37" on="1"/>
        <pt x="537" y="358" on="1"/>
        <pt x="511" y="433" on="0"/>
        <pt x="413" y="482" on="0"/>
        <pt x="351" y="482" on="1"/>
        <pt x="309" y="482" on="1"/>
        <pt x="208" y="45" on="1"/>
        <pt x="198" y="0" on="0"/>
        <pt x="153" y="0" on="1"/>
      </contour>
    </TTGlyph>
    <TTGlyph name="afii10077" xMin="-78" yMin="-17" xMax="1116" yMax="1050">
      <contour>
        <pt x="-60" y="-8" on="1"/>
        <pt x="-78" y="0" on="0"/>
        <pt x="-70" y="22" on="1"/>
        <pt x="-41" y="105" on="1"/>
        <pt x="-34" y="125" on="0"/>
        <pt x="-12" y="119" on="1"/>
        <pt x="10" y="113" on="0"/>
        <pt x="30" y="113" on="1"/>
        <pt x="138" y="113" on="0"/>
        <pt x="300" y="420" on="0"/>
        <pt x="354" y="660" on="1"/>
        <pt x="375" y="754" on="1"/>
        <pt x="405" y="888" on="0"/>
        <pt x="604" y="1050" on="0"/>
        <pt x="849" y="1050" on="1"/>
        <pt x="1071" y="1050" on="1"/>
        <pt x="1116" y="1050" on="0"/>
        <pt x="1106" y="1005" on="1"/>
        <pt x="884" y="45" on="1"/>
        <pt x="874" y="0" on="0"/>
        <pt x="829" y="0" on="1"/>
        <pt x="743" y="0" on="1"/>
        <pt x="698" y="0" on="0"/>
        <pt x="708" y="45" on="1"/>
        <pt x="910" y="918" on="1"/>
        <pt x="874" y="918" on="1"/>
        <pt x="700" y="918" on="0"/>
        <pt x="543" y="818" on="0"/>
        <pt x="514" y="691" on="1"/>
        <pt x="495" y="607" on="1"/>
        <pt x="427" y="306" on="0"/>
        <pt x="216" y="-17" on="0"/>
        <pt x="22" y="-17" on="1"/>
        <pt x="-41" y="-17" on="0"/>
      </contour>
    </TTGlyph>
    <TTGlyph name="afii10078" xMin="22" yMin="0" xMax="1402" yMax="1050">
      <contour>
        <pt x="67" y="0" on="1"/>
        <pt x="22" y="0" on="0"/>
        <pt x="32" y="45" on="1"/>
        <pt x="254" y="1005" on="1"/>
        <pt x="264" y="1050" on="0"/>
        <pt x="309" y="1050" on="1"/>
        <pt x="489" y="1050" on="1"/>
        <pt x="520" y="1050" on="0"/>
        <pt x="525" y="1011" on="1"/>
        <pt x="602" y="351" on="1"/>
        <pt x="604" y="330" on="0"/>
        <pt x="618" y="218" on="0"/>
        <pt x="618" y="168" on="1"/>
        <pt x="622" y="168" on="1"/>
        <pt x="646" y="218" on="0"/>
        <pt x="710" y="330" on="0"/>
        <pt x="722" y="351" on="1"/>
        <pt x="1103" y="1011" on="1"/>
        <pt x="1126" y="1050" on="0"/>
        <pt x="1157" y="1050" on="1"/>
        <pt x="1357" y="1050" on="1"/>
        <pt x="1402" y="1050" on="0"/>
        <pt x="1392" y="1005" on="1"/>
        <pt x="1170" y="45" on="1"/>
        <pt x="1160" y="0" on="0"/>
        <pt x="1115" y="0" on="1"/>
        <pt x="1029" y="0" on="1"/>
        <pt x="984" y="0" on="0"/>
        <pt x="994" y="45" on="1"/>
        <pt x="1169" y="800" on="1"/>
        <pt x="1176" y="829" on="0"/>
        <pt x="1185" y="860" on="1"/>
        <pt x="1183" y="860" on="1"/>
        <pt x="698" y="61" on="1"/>
        <pt x="661" y="0" on="0"/>
        <pt x="630" y="0" on="1"/>
        <pt x="552" y="0" on="1"/>
        <pt x="521" y="0" on="0"/>
        <pt x="512" y="61" on="1"/>
        <pt x="397" y="860" on="1"/>
        <pt x="395" y="860" on="1"/>
        <pt x="390" y="831" on="0"/>
        <pt x="383" y="800" on="1"/>
        <pt x="208" y="45" on="1"/>
        <pt x="198" y="0" on="0"/>
        <pt x="153" y="0" on="1"/>
      </contour>
    </TTGlyph>
    <TTGlyph name="afii10079" xMin="22" yMin="0" xMax="1100" yMax="1050">
      <contour>
        <pt x="67" y="0" on="1"/>
        <pt x="22" y="0" on="0"/>
        <pt x="32" y="45" on="1"/>
        <pt x="254" y="1005" on="1"/>
        <pt x="264" y="1050" on="0"/>
        <pt x="309" y="1050" on="1"/>
        <pt x="395" y="1050" on="1"/>
        <pt x="440" y="1050" on="0"/>
        <pt x="430" y="1005" on="1"/>
        <pt x="340" y="614" on="1"/>
        <pt x="824" y="614" on="1"/>
        <pt x="914" y="1005" on="1"/>
        <pt x="924" y="1050" on="0"/>
        <pt x="969" y="1050" on="1"/>
        <pt x="1055" y="1050" on="1"/>
        <pt x="1100" y="1050" on="0"/>
        <pt x="1090" y="1005" on="1"/>
        <pt x="868" y="45" on="1"/>
        <pt x="858" y="0" on="0"/>
        <pt x="813" y="0" on="1"/>
        <pt x="727" y="0" on="1"/>
        <pt x="682" y="0" on="0"/>
        <pt x="692" y="45" on="1"/>
        <pt x="793" y="482" on="1"/>
        <pt x="309" y="482" on="1"/>
        <pt x="208" y="45" on="1"/>
        <pt x="198" y="0" on="0"/>
        <pt x="153" y="0" on="1"/>
      </contour>
    </TTGlyph>
    <TTGlyph name="afii10080" xMin="68" yMin="-17" xMax="1080" yMax="1067">
      <component glyphName="o" x="0" y="0" flags="0x1204"/>
    </TTGlyph>
    <TTGlyph name="afii10081" xMin="22" yMin="0" xMax="1067" yMax="1067">
      <component glyphName="n" x="0" y="0" flags="0x1204"/>
    </TTGlyph>
    <TTGlyph name="afii10082" xMin="-70" yMin="-400" xMax="1051" yMax="1067">
      <component glyphName="p" x="0" y="0" flags="0x1204"/>
    </TTGlyph>
    <TTGlyph name="afii10083" xMin="68" yMin="-17" xMax="1007" yMax="1067">
      <component glyphName="c" x="0" y="0" flags="0x1204"/>
    </TTGlyph>
    <TTGlyph name="afii10084" xMin="22" yMin="0" xMax="1617" yMax="1067">
      <component glyphName="m" x="0" y="0" flags="0x1204"/>
    </TTGlyph>
    <TTGlyph name="afii10085" xMin="-29" yMin="-417" xMax="1110" yMax="1050">
      <component glyphName="y" x="0" y="0" flags="0x1204"/>
    </TTGlyph>
    <TTGlyph name="afii10086" xMin="70" yMin="-400" xMax="1570" yMax="1440">
      <contour>
        <pt x="70" y="415" on="1"/>
        <pt x="70" y="644" on="0"/>
        <pt x="396" y="1067" on="0"/>
        <pt x="597" y="1067" on="1"/>
        <pt x="690" y="1067" on="0"/>
        <pt x="792" y="996" on="0"/>
        <pt x="824" y="925" on="1"/>
        <pt x="826" y="925" on="1"/>
        <pt x="831" y="954" on="0"/>
        <pt x="838" y="985" on="1"/>
        <pt x="933" y="1395" on="1"/>
        <pt x="943" y="1440" on="0"/>
        <pt x="988" y="1440" on="1"/>
        <pt x="1074" y="1440" on="1"/>
        <pt x="1119" y="1440" on="0"/>
        <pt x="1109" y="1395" on="1"/>
        <pt x="1010" y="965" on="1"/>
        <pt x="1005" y="941" on="0"/>
        <pt x="994" y="905" on="1"/>
        <pt x="996" y="905" on="1"/>
        <pt x="1044" y="984" on="0"/>
        <pt x="1188" y="1067" on="0"/>
        <pt x="1269" y="1067" on="1"/>
        <pt x="1418" y="1067" on="0"/>
        <pt x="1570" y="838" on="0"/>
        <pt x="1570" y="635" on="1"/>
        <pt x="1570" y="406" on="0"/>
        <pt x="1244" y="-17" on="0"/>
        <pt x="1043" y="-17" on="1"/>
        <pt x="950" y="-17" on="0"/>
        <pt x="848" y="54" on="0"/>
        <pt x="816" y="125" on="1"/>
        <pt x="814" y="125" on="1"/>
        <pt x="809" y="93" on="0"/>
        <pt x="802" y="65" on="1"/>
        <pt x="705" y="-355" on="1"/>
        <pt x="695" y="-400" on="0"/>
        <pt x="650" y="-400" on="1"/>
        <pt x="564" y="-400" on="1"/>
        <pt x="519" y="-400" on="0"/>
        <pt x="529" y="-355" on="1"/>
        <pt x="630" y="85" on="1"/>
        <pt x="635" y="108" on="0"/>
        <pt x="646" y="145" on="1"/>
        <pt x="644" y="145" on="1"/>
        <pt x="596" y="66" on="0"/>
        <pt x="452" y="-17" on="0"/>
        <pt x="371" y="-17" on="1"/>
        <pt x="222" y="-17" on="0"/>
        <pt x="70" y="212" on="0"/>
      </contour>
      <contour>
        <pt x="256" y="405" on="1"/>
        <pt x="256" y="225" on="0"/>
        <pt x="360" y="113" on="0"/>
        <pt x="416" y="113" on="1"/>
        <pt x="507" y="113" on="0"/>
        <pt x="684" y="317" on="0"/>
        <pt x="715" y="452" on="1"/>
        <pt x="785" y="755" on="1"/>
        <pt x="785" y="836" on="0"/>
        <pt x="698" y="937" on="0"/>
        <pt x="632" y="937" on="1"/>
        <pt x="456" y="937" on="0"/>
        <pt x="256" y="588" on="0"/>
      </contour>
      <contour>
        <pt x="855" y="295" on="1"/>
        <pt x="855" y="214" on="0"/>
        <pt x="942" y="113" on="0"/>
        <pt x="1008" y="113" on="1"/>
        <pt x="1184" y="113" on="0"/>
        <pt x="1384" y="462" on="0"/>
        <pt x="1384" y="645" on="1"/>
        <pt x="1384" y="825" on="0"/>
        <pt x="1280" y="937" on="0"/>
        <pt x="1224" y="937" on="1"/>
        <pt x="1133" y="937" on="0"/>
        <pt x="956" y="733" on="0"/>
        <pt x="925" y="598" on="1"/>
      </contour>
    </TTGlyph>
    <TTGlyph name="afii10087" xMin="-109" yMin="0" xMax="1032" yMax="1050">
      <component glyphName="x" x="0" y="0" flags="0x1204"/>
    </TTGlyph>
    <TTGlyph name="afii10088" xMin="63" yMin="-350" xMax="1100" yMax="1050">
      <contour>
        <pt x="104" y="366" on="1"/>
        <pt x="252" y="1005" on="1"/>
        <pt x="262" y="1050" on="0"/>
        <pt x="307" y="1050" on="1"/>
        <pt x="393" y="1050" on="1"/>
        <pt x="438" y="1050" on="0"/>
        <pt x="428" y="1005" on="1"/>
        <pt x="292" y="414" on="1"/>
        <pt x="247" y="217" on="0"/>
        <pt x="343" y="113" on="0"/>
        <pt x="448" y="113" on="1"/>
        <pt x="595" y="113" on="0"/>
        <pt x="761" y="346" on="0"/>
        <pt x="796" y="496" on="1"/>
        <pt x="914" y="1005" on="1"/>
        <pt x="924" y="1050" on="0"/>
        <pt x="969" y="1050" on="1"/>
        <pt x="1055" y="1050" on="1"/>
        <pt x="1100" y="1050" on="0"/>
        <pt x="1090" y="1005" on="1"/>
        <pt x="917" y="256" on="1"/>
        <pt x="904" y="200" on="0"/>
        <pt x="904" y="132" on="0"/>
        <pt x="948" y="132" on="1"/>
        <pt x="1009" y="132" on="1"/>
        <pt x="1054" y="132" on="0"/>
        <pt x="1044" y="87" on="1"/>
        <pt x="954" y="-305" on="1"/>
        <pt x="944" y="-350" on="0"/>
        <pt x="903" y="-350" on="1"/>
        <pt x="829" y="-350" on="1"/>
        <pt x="790" y="-350" on="0"/>
        <pt x="800" y="-305" on="1"/>
        <pt x="870" y="0" on="1"/>
        <pt x="848" y="0" on="1"/>
        <pt x="779" y="0" on="0"/>
        <pt x="722" y="78" on="0"/>
        <pt x="722" y="165" on="1"/>
        <pt x="718" y="165" on="1"/>
        <pt x="659" y="92" on="0"/>
        <pt x="468" y="-17" on="0"/>
        <pt x="353" y="-17" on="1"/>
        <pt x="193" y="-17" on="0"/>
        <pt x="63" y="188" on="0"/>
      </contour>
    </TTGlyph>
    <TTGlyph name="afii10089" xMin="114" yMin="0" xMax="1040" yMax="1050">
      <contour>
        <pt x="147" y="706" on="1"/>
        <pt x="216" y="1005" on="1"/>
        <pt x="226" y="1050" on="0"/>
        <pt x="271" y="1050" on="1"/>
        <pt x="357" y="1050" on="1"/>
        <pt x="402" y="1050" on="0"/>
        <pt x="392" y="1005" on="1"/>
        <pt x="329" y="734" on="1"/>
        <pt x="301" y="610" on="0"/>
        <pt x="378" y="543" on="0"/>
        <pt x="459" y="543" on="1"/>
        <pt x="564" y="543" on="0"/>
        <pt x="718" y="567" on="0"/>
        <pt x="762" y="605" on="1"/>
        <pt x="854" y="1005" on="1"/>
        <pt x="864" y="1050" on="0"/>
        <pt x="909" y="1050" on="1"/>
        <pt x="995" y="1050" on="1"/>
        <pt x="1040" y="1050" on="0"/>
        <pt x="1030" y="1005" on="1"/>
        <pt x="808" y="45" on="1"/>
        <pt x="798" y="0" on="0"/>
        <pt x="753" y="0" on="1"/>
        <pt x="667" y="0" on="1"/>
        <pt x="622" y="0" on="0"/>
        <pt x="632" y="45" on="1"/>
        <pt x="716" y="409" on="1"/>
        <pt x="722" y="436" on="0"/>
        <pt x="732" y="469" on="1"/>
        <pt x="728" y="469" on="1"/>
        <pt x="699" y="444" on="0"/>
        <pt x="502" y="413" on="0"/>
        <pt x="404" y="413" on="1"/>
        <pt x="268" y="413" on="0"/>
        <pt x="114" y="565" on="0"/>
      </contour>
    </TTGlyph>
    <TTGlyph name="afii10090" xMin="63" yMin="-17" xMax="1658" yMax="1050">
      <contour>
        <pt x="104" y="366" on="1"/>
        <pt x="252" y="1005" on="1"/>
        <pt x="262" y="1050" on="0"/>
        <pt x="307" y="1050" on="1"/>
        <pt x="393" y="1050" on="1"/>
        <pt x="438" y="1050" on="0"/>
        <pt x="428" y="1005" on="1"/>
        <pt x="293" y="424" on="1"/>
        <pt x="248" y="229" on="0"/>
        <pt x="312" y="113" on="0"/>
        <pt x="422" y="113" on="1"/>
        <pt x="512" y="113" on="0"/>
        <pt x="711" y="354" on="0"/>
        <pt x="744" y="496" on="1"/>
        <pt x="862" y="1005" on="1"/>
        <pt x="872" y="1050" on="0"/>
        <pt x="917" y="1050" on="1"/>
        <pt x="1003" y="1050" on="1"/>
        <pt x="1048" y="1050" on="0"/>
        <pt x="1038" y="1005" on="1"/>
        <pt x="903" y="424" on="1"/>
        <pt x="858" y="229" on="0"/>
        <pt x="922" y="113" on="0"/>
        <pt x="1032" y="113" on="1"/>
        <pt x="1122" y="113" on="0"/>
        <pt x="1319" y="346" on="0"/>
        <pt x="1354" y="496" on="1"/>
        <pt x="1472" y="1005" on="1"/>
        <pt x="1482" y="1050" on="0"/>
        <pt x="1527" y="1050" on="1"/>
        <pt x="1613" y="1050" on="1"/>
        <pt x="1658" y="1050" on="0"/>
        <pt x="1648" y="1005" on="1"/>
        <pt x="1426" y="45" on="1"/>
        <pt x="1416" y="0" on="0"/>
        <pt x="1371" y="0" on="1"/>
        <pt x="1287" y="0" on="1"/>
        <pt x="1242" y="0" on="0"/>
        <pt x="1252" y="45" on="1"/>
        <pt x="1279" y="165" on="1"/>
        <pt x="1275" y="165" on="1"/>
        <pt x="1216" y="93" on="0"/>
        <pt x="1037" y="-17" on="0"/>
        <pt x="947" y="-17" on="1"/>
        <pt x="837" y="-17" on="0"/>
        <pt x="712" y="122" on="0"/>
        <pt x="712" y="217" on="1"/>
        <pt x="708" y="217" on="1"/>
        <pt x="645" y="135" on="0"/>
        <pt x="452" y="-17" on="0"/>
        <pt x="337" y="-17" on="1"/>
        <pt x="197" y="-17" on="0"/>
        <pt x="63" y="188" on="0"/>
      </contour>
    </TTGlyph>
    <TTGlyph name="afii10091" xMin="63" yMin="-350" xMax="1658" yMax="1050">
      <contour>
        <pt x="104" y="366" on="1"/>
        <pt x="252" y="1005" on="1"/>
        <pt x="262" y="1050" on="0"/>
        <pt x="307" y="1050" on="1"/>
        <pt x="393" y="1050" on="1"/>
        <pt x="438" y="1050" on="0"/>
        <pt x="428" y="1005" on="1"/>
        <pt x="293" y="424" on="1"/>
        <pt x="248" y="229" on="0"/>
        <pt x="312" y="113" on="0"/>
        <pt x="422" y="113" on="1"/>
        <pt x="512" y="113" on="0"/>
        <pt x="711" y="354" on="0"/>
        <pt x="744" y="496" on="1"/>
        <pt x="862" y="1005" on="1"/>
        <pt x="872" y="1050" on="0"/>
        <pt x="917" y="1050" on="1"/>
        <pt x="1003" y="1050" on="1"/>
        <pt x="1048" y="1050" on="0"/>
        <pt x="1038" y="1005" on="1"/>
        <pt x="903" y="424" on="1"/>
        <pt x="858" y="229" on="0"/>
        <pt x="922" y="113" on="0"/>
        <pt x="1032" y="113" on="1"/>
        <pt x="1122" y="113" on="0"/>
        <pt x="1319" y="346" on="0"/>
        <pt x="1354" y="496" on="1"/>
        <pt x="1472" y="1005" on="1"/>
        <pt x="1482" y="1050" on="0"/>
        <pt x="1527" y="1050" on="1"/>
        <pt x="1613" y="1050" on="1"/>
        <pt x="1658" y="1050" on="0"/>
        <pt x="1648" y="1005" on="1"/>
        <pt x="1475" y="256" on="1"/>
        <pt x="1462" y="200" on="0"/>
        <pt x="1462" y="132" on="0"/>
        <pt x="1506" y="132" on="1"/>
        <pt x="1567" y="132" on="1"/>
        <pt x="1612" y="132" on="0"/>
        <pt x="1602" y="87" on="1"/>
        <pt x="1512" y="-305" on="1"/>
        <pt x="1502" y="-350" on="0"/>
        <pt x="1461" y="-350" on="1"/>
        <pt x="1387" y="-350" on="1"/>
        <pt x="1348" y="-350" on="0"/>
        <pt x="1358" y="-305" on="1"/>
        <pt x="1428" y="0" on="1"/>
        <pt x="1406" y="0" on="1"/>
        <pt x="1337" y="0" on="0"/>
        <pt x="1280" y="78" on="0"/>
        <pt x="1280" y="165" on="1"/>
        <pt x="1275" y="165" on="1"/>
        <pt x="1216" y="93" on="0"/>
        <pt x="1037" y="-17" on="0"/>
        <pt x="947" y="-17" on="1"/>
        <pt x="837" y="-17" on="0"/>
        <pt x="712" y="122" on="0"/>
        <pt x="712" y="217" on="1"/>
        <pt x="708" y="217" on="1"/>
        <pt x="645" y="135" on="0"/>
        <pt x="452" y="-17" on="0"/>
        <pt x="337" y="-17" on="1"/>
        <pt x="197" y="-17" on="0"/>
        <pt x="63" y="188" on="0"/>
      </contour>
    </TTGlyph>
    <TTGlyph name="afii10092" xMin="142" yMin="-17" xMax="1170" yMax="1050">
      <contour>
        <pt x="187" y="920" on="1"/>
        <pt x="142" y="920" on="0"/>
        <pt x="150" y="955" on="1"/>
        <pt x="164" y="1015" on="1"/>
        <pt x="172" y="1050" on="0"/>
        <pt x="217" y="1050" on="1"/>
        <pt x="663" y="1050" on="1"/>
        <pt x="708" y="1050" on="0"/>
        <pt x="698" y="1005" on="1"/>
        <pt x="616" y="649" on="1"/>
        <pt x="606" y="610" on="0"/>
        <pt x="598" y="588" on="1"/>
        <pt x="600" y="588" on="1"/>
        <pt x="646" y="638" on="0"/>
        <pt x="764" y="680" on="0"/>
        <pt x="854" y="680" on="1"/>
        <pt x="1016" y="680" on="0"/>
        <pt x="1170" y="494" on="0"/>
        <pt x="1170" y="354" on="1"/>
        <pt x="1170" y="208" on="0"/>
        <pt x="940" y="-17" on="0"/>
        <pt x="680" y="-17" on="1"/>
        <pt x="504" y="-17" on="0"/>
        <pt x="343" y="232" on="0"/>
        <pt x="392" y="444" on="1"/>
        <pt x="502" y="920" on="1"/>
      </contour>
      <contour>
        <pt x="552" y="370" on="1"/>
        <pt x="523" y="244" on="0"/>
        <pt x="618" y="113" on="0"/>
        <pt x="717" y="113" on="1"/>
        <pt x="842" y="113" on="0"/>
        <pt x="984" y="244" on="0"/>
        <pt x="984" y="366" on="1"/>
        <pt x="984" y="442" on="0"/>
        <pt x="894" y="550" on="0"/>
        <pt x="800" y="550" on="1"/>
        <pt x="698" y="550" on="0"/>
        <pt x="569" y="442" on="0"/>
      </contour>
    </TTGlyph>
    <TTGlyph name="afii10093" xMin="75" yMin="-17" xMax="1412" yMax="1050">
      <component glyphName="afii10094" x="0" y="0" flags="0x1004"/>
      <component glyphName="dotlessi" x="972" y="0" flags="0x1004"/>
    </TTGlyph>
    <TTGlyph name="afii10094" xMin="75" yMin="-17" xMax="902" yMax="1050">
      <contour>
        <pt x="124" y="444" on="1"/>
        <pt x="254" y="1005" on="1"/>
        <pt x="264" y="1050" on="0"/>
        <pt x="309" y="1050" on="1"/>
        <pt x="395" y="1050" on="1"/>
        <pt x="440" y="1050" on="0"/>
        <pt x="430" y="1005" on="1"/>
        <pt x="348" y="649" on="1"/>
        <pt x="338" y="610" on="0"/>
        <pt x="330" y="588" on="1"/>
        <pt x="332" y="588" on="1"/>
        <pt x="378" y="638" on="0"/>
        <pt x="496" y="680" on="0"/>
        <pt x="586" y="680" on="1"/>
        <pt x="748" y="680" on="0"/>
        <pt x="902" y="494" on="0"/>
        <pt x="902" y="354" on="1"/>
        <pt x="902" y="208" on="0"/>
        <pt x="672" y="-17" on="0"/>
        <pt x="412" y="-17" on="1"/>
        <pt x="236" y="-17" on="0"/>
        <pt x="75" y="232" on="0"/>
      </contour>
      <contour>
        <pt x="284" y="370" on="1"/>
        <pt x="255" y="244" on="0"/>
        <pt x="350" y="113" on="0"/>
        <pt x="449" y="113" on="1"/>
        <pt x="574" y="113" on="0"/>
        <pt x="716" y="244" on="0"/>
        <pt x="716" y="366" on="1"/>
        <pt x="716" y="442" on="0"/>
        <pt x="626" y="550" on="0"/>
        <pt x="532" y="550" on="1"/>
        <pt x="430" y="550" on="0"/>
        <pt x="301" y="442" on="0"/>
      </contour>
    </TTGlyph>
    <TTGlyph name="afii10095" xMin="-2" yMin="-17" xMax="958" yMax="1067">
      <contour>
        <pt x="16" y="154" on="1"/>
        <pt x="-2" y="190" on="0"/>
        <pt x="23" y="208" on="1"/>
        <pt x="79" y="249" on="1"/>
        <pt x="109" y="271" on="0"/>
        <pt x="140" y="225" on="1"/>
        <pt x="166" y="186" on="0"/>
        <pt x="278" y="113" on="0"/>
        <pt x="369" y="113" on="1"/>
        <pt x="515" y="113" on="0"/>
        <pt x="720" y="307" on="0"/>
        <pt x="756" y="482" on="1"/>
        <pt x="298" y="482" on="1"/>
        <pt x="253" y="482" on="0"/>
        <pt x="261" y="517" on="1"/>
        <pt x="275" y="577" on="1"/>
        <pt x="283" y="612" on="0"/>
        <pt x="328" y="612" on="1"/>
        <pt x="772" y="612" on="1"/>
        <pt x="785" y="757" on="0"/>
        <pt x="668" y="937" on="0"/>
        <pt x="524" y="937" on="1"/>
        <pt x="438" y="937" on="0"/>
        <pt x="302" y="880" on="0"/>
        <pt x="270" y="846" on="1"/>
        <pt x="236" y="810" on="0"/>
        <pt x="216" y="829" on="1"/>
        <pt x="164" y="876" on="1"/>
        <pt x="132" y="904" on="0"/>
        <pt x="168" y="941" on="1"/>
        <pt x="218" y="994" on="0"/>
        <pt x="410" y="1067" on="0"/>
        <pt x="537" y="1067" on="1"/>
        <pt x="762" y="1067" on="0"/>
        <pt x="958" y="817" on="0"/>
        <pt x="958" y="645" on="1"/>
        <pt x="958" y="389" on="0"/>
        <pt x="638" y="-17" on="0"/>
        <pt x="356" y="-17" on="1"/>
        <pt x="206" y="-17" on="0"/>
        <pt x="42" y="100" on="0"/>
      </contour>
    </TTGlyph>
    <TTGlyph name="afii10096" xMin="22" yMin="-17" xMax="1491" yMax="1067">
      <contour>
        <pt x="67" y="0" on="1"/>
        <pt x="22" y="0" on="0"/>
        <pt x="32" y="45" on="1"/>
        <pt x="254" y="1005" on="1"/>
        <pt x="264" y="1050" on="0"/>
        <pt x="309" y="1050" on="1"/>
        <pt x="395" y="1050" on="1"/>
        <pt x="440" y="1050" on="0"/>
        <pt x="430" y="1005" on="1"/>
        <pt x="340" y="614" on="1"/>
        <pt x="508" y="614" on="1"/>
        <pt x="541" y="758" on="0"/>
        <pt x="828" y="1067" on="0"/>
        <pt x="1071" y="1067" on="1"/>
        <pt x="1305" y="1067" on="0"/>
        <pt x="1491" y="798" on="0"/>
        <pt x="1491" y="648" on="1"/>
        <pt x="1491" y="384" on="0"/>
        <pt x="1164" y="-17" on="0"/>
        <pt x="899" y="-17" on="1"/>
        <pt x="665" y="-17" on="0"/>
        <pt x="479" y="252" on="0"/>
        <pt x="479" y="402" on="1"/>
        <pt x="479" y="443" on="0"/>
        <pt x="483" y="482" on="1"/>
        <pt x="309" y="482" on="1"/>
        <pt x="208" y="45" on="1"/>
        <pt x="198" y="0" on="0"/>
        <pt x="153" y="0" on="1"/>
      </contour>
      <contour>
        <pt x="665" y="387" on="1"/>
        <pt x="665" y="262" on="0"/>
        <pt x="782" y="113" on="0"/>
        <pt x="912" y="113" on="1"/>
        <pt x="1068" y="113" on="0"/>
        <pt x="1305" y="396" on="0"/>
        <pt x="1305" y="663" on="1"/>
        <pt x="1305" y="788" on="0"/>
        <pt x="1188" y="937" on="0"/>
        <pt x="1058" y="937" on="1"/>
        <pt x="902" y="937" on="0"/>
        <pt x="665" y="654" on="0"/>
      </contour>
    </TTGlyph>
    <TTGlyph name="afii10097" xMin="-68" yMin="0" xMax="1064" yMax="1050">
      <contour>
        <pt x="1" y="0" on="1"/>
        <pt x="-68" y="0" on="0"/>
        <pt x="-11" y="59" on="1"/>
        <pt x="236" y="314" on="1"/>
        <pt x="267" y="346" on="0"/>
        <pt x="396" y="448" on="0"/>
        <pt x="436" y="460" on="1"/>
        <pt x="437" y="462" on="1"/>
        <pt x="298" y="488" on="0"/>
        <pt x="199" y="624" on="0"/>
        <pt x="199" y="713" on="1"/>
        <pt x="199" y="874" on="0"/>
        <pt x="418" y="1050" on="0"/>
        <pt x="652" y="1050" on="1"/>
        <pt x="1019" y="1050" on="1"/>
        <pt x="1064" y="1050" on="0"/>
        <pt x="1054" y="1005" on="1"/>
        <pt x="832" y="45" on="1"/>
        <pt x="822" y="0" on="0"/>
        <pt x="777" y="0" on="1"/>
        <pt x="691" y="0" on="1"/>
        <pt x="646" y="0" on="0"/>
        <pt x="656" y="45" on="1"/>
        <pt x="746" y="432" on="1"/>
        <pt x="662" y="432" on="1"/>
        <pt x="606" y="432" on="0"/>
        <pt x="499" y="364" on="0"/>
        <pt x="428" y="288" on="1"/>
        <pt x="195" y="37" on="1"/>
        <pt x="161" y="0" on="0"/>
        <pt x="129" y="0" on="1"/>
      </contour>
      <contour>
        <pt x="385" y="728" on="1"/>
        <pt x="385" y="630" on="0"/>
        <pt x="506" y="562" on="0"/>
        <pt x="625" y="562" on="1"/>
        <pt x="776" y="562" on="1"/>
        <pt x="858" y="919" on="1"/>
        <pt x="668" y="919" on="1"/>
        <pt x="526" y="919" on="0"/>
        <pt x="385" y="828" on="0"/>
      </contour>
    </TTGlyph>
    <TTGlyph name="afii10098" xMin="22" yMin="0" xMax="1017" yMax="1366">
      <contour>
        <pt x="67" y="0" on="1"/>
        <pt x="22" y="0" on="0"/>
        <pt x="32" y="45" on="1"/>
        <pt x="254" y="1005" on="1"/>
        <pt x="264" y="1050" on="0"/>
        <pt x="309" y="1050" on="1"/>
        <pt x="790" y="1050" on="1"/>
        <pt x="853" y="1321" on="1"/>
        <pt x="863" y="1366" on="0"/>
        <pt x="903" y="1366" on="1"/>
        <pt x="977" y="1366" on="1"/>
        <pt x="1017" y="1366" on="0"/>
        <pt x="1007" y="1321" on="1"/>
        <pt x="924" y="963" on="1"/>
        <pt x="914" y="918" on="0"/>
        <pt x="869" y="918" on="1"/>
        <pt x="410" y="918" on="1"/>
        <pt x="208" y="45" on="1"/>
        <pt x="198" y="0" on="0"/>
        <pt x="153" y="0" on="1"/>
      </contour>
    </TTGlyph>
    <TTGlyph name="afii10099" xMin="112" yMin="-418" xMax="1012" yMax="1476">
      <contour>
        <pt x="187" y="918" on="1"/>
        <pt x="142" y="918" on="0"/>
        <pt x="150" y="953" on="1"/>
        <pt x="164" y="1015" on="1"/>
        <pt x="172" y="1050" on="0"/>
        <pt x="217" y="1050" on="1"/>
        <pt x="354" y="1050" on="1"/>
        <pt x="442" y="1431" on="1"/>
        <pt x="452" y="1476" on="0"/>
        <pt x="498" y="1476" on="1"/>
        <pt x="584" y="1476" on="1"/>
        <pt x="628" y="1476" on="0"/>
        <pt x="618" y="1431" on="1"/>
        <pt x="530" y="1050" on="1"/>
        <pt x="963" y="1050" on="1"/>
        <pt x="1008" y="1050" on="0"/>
        <pt x="1000" y="1015" on="1"/>
        <pt x="986" y="953" on="1"/>
        <pt x="978" y="918" on="0"/>
        <pt x="933" y="918" on="1"/>
        <pt x="500" y="918" on="1"/>
        <pt x="431" y="618" on="1"/>
        <pt x="424" y="589" on="0"/>
        <pt x="415" y="558" on="1"/>
        <pt x="419" y="558" on="1"/>
        <pt x="448" y="604" on="0"/>
        <pt x="627" y="708" on="0"/>
        <pt x="719" y="708" on="1"/>
        <pt x="885" y="708" on="0"/>
        <pt x="1012" y="530" on="0"/>
        <pt x="1012" y="362" on="1"/>
        <pt x="1012" y="126" on="0"/>
        <pt x="664" y="-312" on="0"/>
        <pt x="491" y="-401" on="1"/>
        <pt x="458" y="-418" on="0"/>
        <pt x="444" y="-394" on="1"/>
        <pt x="412" y="-338" on="1"/>
        <pt x="399" y="-316" on="0"/>
        <pt x="432" y="-293" on="1"/>
        <pt x="535" y="-221" on="0"/>
        <pt x="826" y="159" on="0"/>
        <pt x="826" y="374" on="1"/>
        <pt x="826" y="468" on="0"/>
        <pt x="772" y="578" on="0"/>
        <pt x="681" y="578" on="1"/>
        <pt x="569" y="578" on="0"/>
        <pt x="377" y="387" on="0"/>
        <pt x="350" y="269" on="1"/>
        <pt x="298" y="45" on="1"/>
        <pt x="288" y="0" on="0"/>
        <pt x="243" y="0" on="1"/>
        <pt x="157" y="0" on="1"/>
        <pt x="112" y="0" on="0"/>
        <pt x="122" y="45" on="1"/>
        <pt x="324" y="918" on="1"/>
      </contour>
    </TTGlyph>
    <TTGlyph name="afii10100" xMin="22" yMin="0" xMax="958" yMax="1435">
      <component glyphName="ghe.ital" x="0" y="0" flags="0x1204"/>
      <component glyphName="acute" x="166" y="0" flags="0x1004"/>
    </TTGlyph>
    <TTGlyph name="afii10101" xMin="68" yMin="-17" xMax="1011" yMax="1067">
      <contour>
        <pt x="68" y="402" on="1"/>
        <pt x="68" y="676" on="0"/>
        <pt x="395" y="1067" on="0"/>
        <pt x="660" y="1067" on="1"/>
        <pt x="822" y="1067" on="0"/>
        <pt x="955" y="972" on="0"/>
        <pt x="992" y="907" on="1"/>
        <pt x="1011" y="872" on="0"/>
        <pt x="983" y="854" on="1"/>
        <pt x="920" y="813" on="1"/>
        <pt x="888" y="792" on="0"/>
        <pt x="865" y="833" on="1"/>
        <pt x="847" y="864" on="0"/>
        <pt x="744" y="937" on="0"/>
        <pt x="647" y="937" on="1"/>
        <pt x="488" y="937" on="0"/>
        <pt x="308" y="723" on="0"/>
        <pt x="279" y="612" on="1"/>
        <pt x="740" y="612" on="1"/>
        <pt x="785" y="612" on="0"/>
        <pt x="777" y="577" on="1"/>
        <pt x="763" y="517" on="1"/>
        <pt x="755" y="482" on="0"/>
        <pt x="710" y="482" on="1"/>
        <pt x="258" y="482" on="1"/>
        <pt x="254" y="437" on="0"/>
        <pt x="254" y="387" on="1"/>
        <pt x="254" y="265" on="0"/>
        <pt x="362" y="113" on="0"/>
        <pt x="501" y="113" on="1"/>
        <pt x="608" y="113" on="0"/>
        <pt x="734" y="205" on="0"/>
        <pt x="765" y="244" on="1"/>
        <pt x="791" y="277" on="0"/>
        <pt x="819" y="253" on="1"/>
        <pt x="878" y="202" on="1"/>
        <pt x="905" y="179" on="0"/>
        <pt x="878" y="147" on="1"/>
        <pt x="846" y="110" on="0"/>
        <pt x="660" y="-17" on="0"/>
        <pt x="488" y="-17" on="1"/>
        <pt x="254" y="-17" on="0"/>
        <pt x="68" y="238" on="0"/>
      </contour>
    </TTGlyph>
    <TTGlyph name="afii10102" xMin="-1" yMin="-17" xMax="892" yMax="1067">
      <component glyphName="s" x="0" y="0" flags="0x1204"/>
    </TTGlyph>
    <TTGlyph name="afii10103" xMin="22" yMin="0" xMax="525" yMax="1416">
      <component glyphName="i" x="0" y="0" flags="0x1204"/>
    </TTGlyph>
    <TTGlyph name="afii10104" xMin="22" yMin="0" xMax="692" yMax="1416">
      <component glyphName="idieresis" x="0" y="0" flags="0x1204"/>
    </TTGlyph>
    <TTGlyph name="afii10105" xMin="-307" yMin="-417" xMax="531" yMax="1416">
      <component glyphName="j" x="0" y="0" flags="0x1204"/>
    </TTGlyph>
    <TTGlyph name="afii10106" xMin="-78" yMin="-17" xMax="1578" yMax="1050">
      <contour>
        <pt x="-60" y="-8" on="1"/>
        <pt x="-78" y="0" on="0"/>
        <pt x="-70" y="22" on="1"/>
        <pt x="-41" y="105" on="1"/>
        <pt x="-34" y="125" on="0"/>
        <pt x="-12" y="119" on="1"/>
        <pt x="10" y="113" on="0"/>
        <pt x="30" y="113" on="1"/>
        <pt x="138" y="113" on="0"/>
        <pt x="300" y="420" on="0"/>
        <pt x="354" y="660" on="1"/>
        <pt x="375" y="754" on="1"/>
        <pt x="405" y="888" on="0"/>
        <pt x="604" y="1050" on="0"/>
        <pt x="849" y="1050" on="1"/>
        <pt x="1071" y="1050" on="1"/>
        <pt x="1116" y="1050" on="0"/>
        <pt x="1106" y="1005" on="1"/>
        <pt x="1024" y="649" on="1"/>
        <pt x="1014" y="610" on="0"/>
        <pt x="1006" y="588" on="1"/>
        <pt x="1008" y="588" on="1"/>
        <pt x="1054" y="638" on="0"/>
        <pt x="1172" y="680" on="0"/>
        <pt x="1262" y="680" on="1"/>
        <pt x="1424" y="680" on="0"/>
        <pt x="1578" y="494" on="0"/>
        <pt x="1578" y="354" on="1"/>
        <pt x="1578" y="208" on="0"/>
        <pt x="1348" y="-17" on="0"/>
        <pt x="1088" y="-17" on="1"/>
        <pt x="912" y="-17" on="0"/>
        <pt x="751" y="232" on="0"/>
        <pt x="800" y="444" on="1"/>
        <pt x="910" y="918" on="1"/>
        <pt x="874" y="918" on="1"/>
        <pt x="700" y="918" on="0"/>
        <pt x="543" y="818" on="0"/>
        <pt x="514" y="691" on="1"/>
        <pt x="495" y="607" on="1"/>
        <pt x="427" y="306" on="0"/>
        <pt x="216" y="-17" on="0"/>
        <pt x="22" y="-17" on="1"/>
        <pt x="-41" y="-17" on="0"/>
      </contour>
      <contour>
        <pt x="960" y="370" on="1"/>
        <pt x="931" y="244" on="0"/>
        <pt x="1026" y="113" on="0"/>
        <pt x="1125" y="113" on="1"/>
        <pt x="1250" y="113" on="0"/>
        <pt x="1392" y="244" on="0"/>
        <pt x="1392" y="366" on="1"/>
        <pt x="1392" y="442" on="0"/>
        <pt x="1302" y="550" on="0"/>
        <pt x="1208" y="550" on="1"/>
        <pt x="1106" y="550" on="0"/>
        <pt x="977" y="442" on="0"/>
      </contour>
    </TTGlyph>
    <TTGlyph name="afii10107" xMin="22" yMin="-17" xMax="1562" yMax="1050">
      <contour>
        <pt x="67" y="0" on="1"/>
        <pt x="22" y="0" on="0"/>
        <pt x="32" y="45" on="1"/>
        <pt x="254" y="1005" on="1"/>
        <pt x="264" y="1050" on="0"/>
        <pt x="309" y="1050" on="1"/>
        <pt x="395" y="1050" on="1"/>
        <pt x="440" y="1050" on="0"/>
        <pt x="430" y="1005" on="1"/>
        <pt x="340" y="614" on="1"/>
        <pt x="824" y="614" on="1"/>
        <pt x="914" y="1005" on="1"/>
        <pt x="924" y="1050" on="0"/>
        <pt x="969" y="1050" on="1"/>
        <pt x="1055" y="1050" on="1"/>
        <pt x="1100" y="1050" on="0"/>
        <pt x="1090" y="1005" on="1"/>
        <pt x="1008" y="649" on="1"/>
        <pt x="998" y="610" on="0"/>
        <pt x="990" y="588" on="1"/>
        <pt x="992" y="588" on="1"/>
        <pt x="1038" y="638" on="0"/>
        <pt x="1156" y="680" on="0"/>
        <pt x="1246" y="680" on="1"/>
        <pt x="1408" y="680" on="0"/>
        <pt x="1562" y="494" on="0"/>
        <pt x="1562" y="354" on="1"/>
        <pt x="1562" y="208" on="0"/>
        <pt x="1332" y="-17" on="0"/>
        <pt x="1072" y="-17" on="1"/>
        <pt x="896" y="-17" on="0"/>
        <pt x="735" y="232" on="0"/>
        <pt x="784" y="444" on="1"/>
        <pt x="793" y="482" on="1"/>
        <pt x="309" y="482" on="1"/>
        <pt x="208" y="45" on="1"/>
        <pt x="198" y="0" on="0"/>
        <pt x="153" y="0" on="1"/>
      </contour>
      <contour>
        <pt x="944" y="370" on="1"/>
        <pt x="915" y="244" on="0"/>
        <pt x="1010" y="113" on="0"/>
        <pt x="1109" y="113" on="1"/>
        <pt x="1234" y="113" on="0"/>
        <pt x="1376" y="244" on="0"/>
        <pt x="1376" y="366" on="1"/>
        <pt x="1376" y="442" on="0"/>
        <pt x="1286" y="550" on="0"/>
        <pt x="1192" y="550" on="1"/>
        <pt x="1090" y="550" on="0"/>
        <pt x="961" y="442" on="0"/>
      </contour>
    </TTGlyph>
    <TTGlyph name="afii10108" xMin="112" yMin="0" xMax="1046" yMax="1476">
      <contour>
        <pt x="187" y="918" on="1"/>
        <pt x="142" y="918" on="0"/>
        <pt x="150" y="953" on="1"/>
        <pt x="164" y="1015" on="1"/>
        <pt x="172" y="1050" on="0"/>
        <pt x="217" y="1050" on="1"/>
        <pt x="354" y="1050" on="1"/>
        <pt x="442" y="1431" on="1"/>
        <pt x="452" y="1476" on="0"/>
        <pt x="498" y="1476" on="1"/>
        <pt x="584" y="1476" on="1"/>
        <pt x="628" y="1476" on="0"/>
        <pt x="618" y="1431" on="1"/>
        <pt x="530" y="1050" on="1"/>
        <pt x="963" y="1050" on="1"/>
        <pt x="1008" y="1050" on="0"/>
        <pt x="1000" y="1015" on="1"/>
        <pt x="986" y="953" on="1"/>
        <pt x="978" y="918" on="0"/>
        <pt x="933" y="918" on="1"/>
        <pt x="500" y="918" on="1"/>
        <pt x="430" y="618" on="1"/>
        <pt x="423" y="588" on="0"/>
        <pt x="414" y="558" on="1"/>
        <pt x="418" y="558" on="1"/>
        <pt x="446" y="600" on="0"/>
        <pt x="636" y="708" on="0"/>
        <pt x="751" y="708" on="1"/>
        <pt x="906" y="708" on="0"/>
        <pt x="1046" y="523" on="0"/>
        <pt x="1006" y="348" on="1"/>
        <pt x="936" y="45" on="1"/>
        <pt x="926" y="0" on="0"/>
        <pt x="881" y="0" on="1"/>
        <pt x="795" y="0" on="1"/>
        <pt x="750" y="0" on="0"/>
        <pt x="760" y="45" on="1"/>
        <pt x="824" y="320" on="1"/>
        <pt x="860" y="476" on="0"/>
        <pt x="791" y="578" on="0"/>
        <pt x="696" y="578" on="1"/>
        <pt x="567" y="578" on="0"/>
        <pt x="377" y="388" on="0"/>
        <pt x="349" y="266" on="1"/>
        <pt x="298" y="45" on="1"/>
        <pt x="288" y="0" on="0"/>
        <pt x="243" y="0" on="1"/>
        <pt x="157" y="0" on="1"/>
        <pt x="112" y="0" on="0"/>
        <pt x="122" y="45" on="1"/>
        <pt x="324" y="918" on="1"/>
      </contour>
    </TTGlyph>
    <TTGlyph name="afii10109" xMin="22" yMin="0" xMax="1065" yMax="1435">
      <component glyphName="afii10076" x="0" y="0" flags="0x1204"/>
      <component glyphName="acute" x="217" y="0" flags="0x1004"/>
    </TTGlyph>
    <TTGlyph name="afii10110" xMin="-29" yMin="-417" xMax="1153" yMax="1472">
      <component glyphName="afii10085" x="0" y="0" flags="0x1204"/>
      <component glyphName="cyrbreve" x="10" y="0" flags="0x1004"/>
    </TTGlyph>
    <TTGlyph name="afii10145" xMin="50" yMin="-370" xMax="1451" yMax="1434">
      <contour>
        <pt x="100" y="0" on="1"/>
        <pt x="50" y="0" on="0"/>
        <pt x="63" y="55" on="1"/>
        <pt x="368" y="1379" on="1"/>
        <pt x="381" y="1434" on="0"/>
        <pt x="431" y="1434" on="1"/>
        <pt x="523" y="1434" on="1"/>
        <pt x="573" y="1434" on="0"/>
        <pt x="560" y="1379" on="1"/>
        <pt x="280" y="164" on="1"/>
        <pt x="966" y="164" on="1"/>
        <pt x="1246" y="1379" on="1"/>
        <pt x="1259" y="1434" on="0"/>
        <pt x="1309" y="1434" on="1"/>
        <pt x="1401" y="1434" on="1"/>
        <pt x="1451" y="1434" on="0"/>
        <pt x="1438" y="1379" on="1"/>
        <pt x="1133" y="55" on="1"/>
        <pt x="1120" y="0" on="0"/>
        <pt x="1070" y="0" on="1"/>
        <pt x="668" y="0" on="1"/>
        <pt x="594" y="-320" on="1"/>
        <pt x="583" y="-370" on="0"/>
        <pt x="543" y="-370" on="1"/>
        <pt x="457" y="-370" on="1"/>
        <pt x="417" y="-370" on="0"/>
        <pt x="428" y="-320" on="1"/>
        <pt x="502" y="0" on="1"/>
      </contour>
    </TTGlyph>
    <TTGlyph name="afii10146" xMin="161" yMin="0" xMax="1531" yMax="1454">
      <contour>
        <pt x="216" y="1060" on="1"/>
        <pt x="161" y="1060" on="0"/>
        <pt x="171" y="1105" on="1"/>
        <pt x="188" y="1179" on="1"/>
        <pt x="199" y="1224" on="0"/>
        <pt x="254" y="1224" on="1"/>
        <pt x="657" y="1224" on="1"/>
        <pt x="697" y="1399" on="1"/>
        <pt x="710" y="1454" on="0"/>
        <pt x="760" y="1454" on="1"/>
        <pt x="852" y="1454" on="1"/>
        <pt x="902" y="1454" on="0"/>
        <pt x="889" y="1399" on="1"/>
        <pt x="849" y="1224" on="1"/>
        <pt x="1252" y="1224" on="1"/>
        <pt x="1307" y="1224" on="0"/>
        <pt x="1296" y="1179" on="1"/>
        <pt x="1279" y="1105" on="1"/>
        <pt x="1269" y="1060" on="0"/>
        <pt x="1214" y="1060" on="1"/>
        <pt x="811" y="1060" on="1"/>
        <pt x="757" y="828" on="1"/>
        <pt x="1025" y="828" on="1"/>
        <pt x="1317" y="828" on="0"/>
        <pt x="1531" y="615" on="0"/>
        <pt x="1531" y="454" on="1"/>
        <pt x="1531" y="270" on="0"/>
        <pt x="1211" y="0" on="0"/>
        <pt x="874" y="0" on="1"/>
        <pt x="424" y="0" on="1"/>
        <pt x="374" y="0" on="0"/>
        <pt x="387" y="55" on="1"/>
        <pt x="619" y="1060" on="1"/>
      </contour>
      <contour>
        <pt x="604" y="164" on="1"/>
        <pt x="880" y="164" on="1"/>
        <pt x="1095" y="164" on="0"/>
        <pt x="1326" y="312" on="0"/>
        <pt x="1326" y="444" on="1"/>
        <pt x="1326" y="585" on="0"/>
        <pt x="1140" y="664" on="0"/>
        <pt x="955" y="664" on="1"/>
        <pt x="719" y="664" on="1"/>
      </contour>
    </TTGlyph>
    <TTGlyph name="afii10147" xMin="110" yMin="-30" xMax="1495" yMax="1464">
      <contour>
        <pt x="110" y="580" on="1"/>
        <pt x="110" y="980" on="0"/>
        <pt x="538" y="1464" on="0"/>
        <pt x="878" y="1464" on="1"/>
        <pt x="1183" y="1464" on="0"/>
        <pt x="1495" y="1139" on="0"/>
        <pt x="1495" y="854" on="1"/>
        <pt x="1495" y="454" on="0"/>
        <pt x="1067" y="-30" on="0"/>
        <pt x="727" y="-30" on="1"/>
        <pt x="422" y="-30" on="0"/>
        <pt x="110" y="295" on="0"/>
      </contour>
      <contour>
        <pt x="315" y="556" on="1"/>
        <pt x="315" y="351" on="0"/>
        <pt x="528" y="126" on="0"/>
        <pt x="738" y="126" on="1"/>
        <pt x="958" y="126" on="0"/>
        <pt x="1240" y="438" on="0"/>
        <pt x="1275" y="664" on="1"/>
        <pt x="319" y="664" on="1"/>
        <pt x="315" y="612" on="0"/>
      </contour>
      <contour>
        <pt x="341" y="828" on="1"/>
        <pt x="1289" y="828" on="1"/>
        <pt x="1290" y="853" on="0"/>
        <pt x="1290" y="878" on="1"/>
        <pt x="1290" y="1083" on="0"/>
        <pt x="1077" y="1308" on="0"/>
        <pt x="867" y="1308" on="1"/>
        <pt x="647" y="1308" on="0"/>
        <pt x="380" y="1013" on="0"/>
      </contour>
    </TTGlyph>
    <TTGlyph name="afii10148" xMin="232" yMin="0" xMax="1723" yMax="1464">
      <contour>
        <pt x="242" y="1368" on="1"/>
        <pt x="232" y="1434" on="0"/>
        <pt x="284" y="1434" on="1"/>
        <pt x="374" y="1434" on="1"/>
        <pt x="428" y="1434" on="0"/>
        <pt x="435" y="1385" on="1"/>
        <pt x="553" y="490" on="1"/>
        <pt x="560" y="438" on="0"/>
        <pt x="575" y="226" on="0"/>
        <pt x="575" y="173" on="1"/>
        <pt x="579" y="173" on="1"/>
        <pt x="604" y="232" on="0"/>
        <pt x="715" y="436" on="0"/>
        <pt x="747" y="490" on="1"/>
        <pt x="1074" y="1038" on="1"/>
        <pt x="1173" y="1205" on="0"/>
        <pt x="1364" y="1464" on="0"/>
        <pt x="1573" y="1464" on="1"/>
        <pt x="1643" y="1464" on="0"/>
        <pt x="1690" y="1447" on="1"/>
        <pt x="1723" y="1435" on="0"/>
        <pt x="1711" y="1401" on="1"/>
        <pt x="1682" y="1318" on="1"/>
        <pt x="1668" y="1277" on="0"/>
        <pt x="1625" y="1295" on="1"/>
        <pt x="1596" y="1307" on="0"/>
        <pt x="1557" y="1307" on="1"/>
        <pt x="1472" y="1307" on="0"/>
        <pt x="1264" y="997" on="0"/>
        <pt x="1215" y="916" on="1"/>
        <pt x="699" y="61" on="1"/>
        <pt x="662" y="0" on="0"/>
        <pt x="619" y="0" on="1"/>
        <pt x="479" y="0" on="1"/>
        <pt x="436" y="0" on="0"/>
        <pt x="427" y="61" on="1"/>
      </contour>
    </TTGlyph>
    <TTGlyph name="afii10193" xMin="63" yMin="-350" xMax="1100" yMax="1050">
      <contour>
        <pt x="104" y="366" on="1"/>
        <pt x="252" y="1005" on="1"/>
        <pt x="262" y="1050" on="0"/>
        <pt x="307" y="1050" on="1"/>
        <pt x="393" y="1050" on="1"/>
        <pt x="438" y="1050" on="0"/>
        <pt x="428" y="1005" on="1"/>
        <pt x="292" y="414" on="1"/>
        <pt x="247" y="217" on="0"/>
        <pt x="343" y="113" on="0"/>
        <pt x="448" y="113" on="1"/>
        <pt x="595" y="113" on="0"/>
        <pt x="761" y="346" on="0"/>
        <pt x="796" y="496" on="1"/>
        <pt x="914" y="1005" on="1"/>
        <pt x="924" y="1050" on="0"/>
        <pt x="969" y="1050" on="1"/>
        <pt x="1055" y="1050" on="1"/>
        <pt x="1100" y="1050" on="0"/>
        <pt x="1090" y="1005" on="1"/>
        <pt x="868" y="45" on="1"/>
        <pt x="858" y="0" on="0"/>
        <pt x="813" y="0" on="1"/>
        <pt x="729" y="0" on="1"/>
        <pt x="684" y="0" on="0"/>
        <pt x="694" y="45" on="1"/>
        <pt x="722" y="165" on="1"/>
        <pt x="718" y="165" on="1"/>
        <pt x="659" y="92" on="0"/>
        <pt x="468" y="-17" on="0"/>
        <pt x="353" y="-17" on="1"/>
        <pt x="193" y="-17" on="0"/>
        <pt x="63" y="188" on="0"/>
      </contour>
      <contour>
        <pt x="346" y="-350" on="1"/>
        <pt x="306" y="-350" on="0"/>
        <pt x="317" y="-305" on="1"/>
        <pt x="353" y="-148" on="1"/>
        <pt x="364" y="-103" on="0"/>
        <pt x="404" y="-103" on="1"/>
        <pt x="478" y="-103" on="1"/>
        <pt x="518" y="-103" on="0"/>
        <pt x="507" y="-148" on="1"/>
        <pt x="471" y="-305" on="1"/>
        <pt x="460" y="-350" on="0"/>
        <pt x="420" y="-350" on="1"/>
      </contour>
    </TTGlyph>
    <TTGlyph name="afii10194" xMin="22" yMin="-17" xMax="1513" yMax="1067">
      <contour>
        <pt x="67" y="0" on="1"/>
        <pt x="22" y="0" on="0"/>
        <pt x="32" y="45" on="1"/>
        <pt x="254" y="1005" on="1"/>
        <pt x="264" y="1050" on="0"/>
        <pt x="309" y="1050" on="1"/>
        <pt x="393" y="1050" on="1"/>
        <pt x="438" y="1050" on="0"/>
        <pt x="428" y="1005" on="1"/>
        <pt x="396" y="865" on="1"/>
        <pt x="400" y="865" on="1"/>
        <pt x="452" y="938" on="0"/>
        <pt x="643" y="1067" on="0"/>
        <pt x="733" y="1067" on="1"/>
        <pt x="888" y="1067" on="0"/>
        <pt x="1013" y="886" on="0"/>
        <pt x="982" y="749" on="1"/>
        <pt x="959" y="649" on="1"/>
        <pt x="949" y="610" on="0"/>
        <pt x="941" y="588" on="1"/>
        <pt x="943" y="588" on="1"/>
        <pt x="989" y="638" on="0"/>
        <pt x="1107" y="680" on="0"/>
        <pt x="1197" y="680" on="1"/>
        <pt x="1359" y="680" on="0"/>
        <pt x="1513" y="494" on="0"/>
        <pt x="1513" y="354" on="1"/>
        <pt x="1513" y="208" on="0"/>
        <pt x="1283" y="-17" on="0"/>
        <pt x="1023" y="-17" on="1"/>
        <pt x="847" y="-17" on="0"/>
        <pt x="686" y="232" on="0"/>
        <pt x="735" y="444" on="1"/>
        <pt x="784" y="656" on="1"/>
        <pt x="824" y="830" on="0"/>
        <pt x="754" y="937" on="0"/>
        <pt x="681" y="937" on="1"/>
        <pt x="590" y="937" on="0"/>
        <pt x="350" y="661" on="0"/>
        <pt x="312" y="496" on="1"/>
        <pt x="208" y="45" on="1"/>
        <pt x="198" y="0" on="0"/>
        <pt x="153" y="0" on="1"/>
      </contour>
      <contour>
        <pt x="895" y="370" on="1"/>
        <pt x="866" y="244" on="0"/>
        <pt x="961" y="113" on="0"/>
        <pt x="1060" y="113" on="1"/>
        <pt x="1185" y="113" on="0"/>
        <pt x="1327" y="244" on="0"/>
        <pt x="1327" y="366" on="1"/>
        <pt x="1327" y="442" on="0"/>
        <pt x="1237" y="550" on="0"/>
        <pt x="1143" y="550" on="1"/>
        <pt x="1041" y="550" on="0"/>
        <pt x="912" y="442" on="0"/>
      </contour>
    </TTGlyph>
    <TTGlyph name="afii10195" xMin="68" yMin="-17" xMax="1080" yMax="1067">
      <contour>
        <pt x="68" y="402" on="1"/>
        <pt x="68" y="666" on="0"/>
        <pt x="395" y="1067" on="0"/>
        <pt x="660" y="1067" on="1"/>
        <pt x="894" y="1067" on="0"/>
        <pt x="1080" y="798" on="0"/>
        <pt x="1080" y="648" on="1"/>
        <pt x="1080" y="384" on="0"/>
        <pt x="753" y="-17" on="0"/>
        <pt x="488" y="-17" on="1"/>
        <pt x="254" y="-17" on="0"/>
        <pt x="68" y="252" on="0"/>
      </contour>
      <contour>
        <pt x="254" y="387" on="1"/>
        <pt x="254" y="262" on="0"/>
        <pt x="371" y="113" on="0"/>
        <pt x="501" y="113" on="1"/>
        <pt x="637" y="113" on="0"/>
        <pt x="852" y="330" on="0"/>
        <pt x="878" y="482" on="1"/>
        <pt x="258" y="482" on="1"/>
        <pt x="254" y="437" on="0"/>
      </contour>
      <contour>
        <pt x="281" y="614" on="1"/>
        <pt x="893" y="614" on="1"/>
        <pt x="894" y="638" on="0"/>
        <pt x="894" y="663" on="1"/>
        <pt x="894" y="788" on="0"/>
        <pt x="777" y="937" on="0"/>
        <pt x="647" y="937" on="1"/>
        <pt x="517" y="937" on="0"/>
        <pt x="310" y="740" on="0"/>
      </contour>
    </TTGlyph>
    <TTGlyph name="afii10196" xMin="150" yMin="0" xMax="1196" yMax="1067">
      <contour>
        <pt x="156" y="1001" on="1"/>
        <pt x="150" y="1050" on="0"/>
        <pt x="194" y="1050" on="1"/>
        <pt x="293" y="1050" on="1"/>
        <pt x="325" y="1050" on="0"/>
        <pt x="329" y="1011" on="1"/>
        <pt x="389" y="351" on="1"/>
        <pt x="396" y="275" on="0"/>
        <pt x="399" y="209" on="0"/>
        <pt x="399" y="164" on="1"/>
        <pt x="403" y="164" on="1"/>
        <pt x="421" y="209" on="0"/>
        <pt x="477" y="312" on="0"/>
        <pt x="499" y="351" on="1"/>
        <pt x="728" y="765" on="1"/>
        <pt x="818" y="929" on="0"/>
        <pt x="963" y="1067" on="0"/>
        <pt x="1112" y="1067" on="1"/>
        <pt x="1148" y="1067" on="0"/>
        <pt x="1180" y="1055" on="1"/>
        <pt x="1196" y="1048" on="0"/>
        <pt x="1190" y="1025" on="1"/>
        <pt x="1168" y="944" on="1"/>
        <pt x="1162" y="923" on="0"/>
        <pt x="1139" y="930" on="1"/>
        <pt x="1115" y="937" on="0"/>
        <pt x="1096" y="937" on="1"/>
        <pt x="1020" y="937" on="0"/>
        <pt x="872" y="693" on="0"/>
        <pt x="866" y="682" on="1"/>
        <pt x="507" y="61" on="1"/>
        <pt x="472" y="0" on="0"/>
        <pt x="439" y="0" on="1"/>
        <pt x="307" y="0" on="1"/>
        <pt x="274" y="0" on="0"/>
        <pt x="267" y="61" on="1"/>
      </contour>
    </TTGlyph>
    <TTGlyph name="afii10846" xMin="76" yMin="-17" xMax="1018" yMax="1067">
      <contour>
        <pt x="76" y="297" on="1"/>
        <pt x="76" y="438" on="0"/>
        <pt x="321" y="584" on="0"/>
        <pt x="576" y="630" on="1"/>
        <pt x="831" y="676" on="1"/>
        <pt x="832" y="694" on="0"/>
        <pt x="832" y="715" on="1"/>
        <pt x="832" y="806" on="0"/>
        <pt x="736" y="936" on="0"/>
        <pt x="589" y="936" on="1"/>
        <pt x="508" y="936" on="0"/>
        <pt x="350" y="864" on="0"/>
        <pt x="308" y="825" on="1"/>
        <pt x="264" y="785" on="0"/>
        <pt x="243" y="809" on="1"/>
        <pt x="195" y="863" on="1"/>
        <pt x="173" y="887" on="0"/>
        <pt x="206" y="918" on="1"/>
        <pt x="264" y="972" on="0"/>
        <pt x="476" y="1067" on="0"/>
        <pt x="613" y="1067" on="1"/>
        <pt x="836" y="1067" on="0"/>
        <pt x="1018" y="820" on="0"/>
        <pt x="1018" y="654" on="1"/>
        <pt x="1018" y="354" on="0"/>
        <pt x="705" y="-17" on="0"/>
        <pt x="434" y="-17" on="1"/>
        <pt x="268" y="-17" on="0"/>
        <pt x="76" y="156" on="0"/>
      </contour>
      <contour>
        <pt x="249" y="300" on="1"/>
        <pt x="249" y="212" on="0"/>
        <pt x="360" y="113" on="0"/>
        <pt x="467" y="113" on="1"/>
        <pt x="588" y="113" on="0"/>
        <pt x="784" y="323" on="0"/>
        <pt x="828" y="538" on="1"/>
        <pt x="612" y="499" on="1"/>
        <pt x="488" y="477" on="0"/>
        <pt x="249" y="400" on="0"/>
      </contour>
    </TTGlyph>
    <TTGlyph name="afii61289" xMin="4" yMin="-17" xMax="976" yMax="1487">
      <contour>
        <pt x="14" y="318" on="1"/>
        <pt x="35" y="407" on="1"/>
        <pt x="43" y="442" on="0"/>
        <pt x="73" y="458" on="1"/>
        <pt x="117" y="482" on="0"/>
        <pt x="193" y="541" on="1"/>
        <pt x="292" y="969" on="1"/>
        <pt x="356" y="1244" on="0"/>
        <pt x="568" y="1487" on="0"/>
        <pt x="728" y="1487" on="1"/>
        <pt x="856" y="1487" on="0"/>
        <pt x="976" y="1370" on="0"/>
        <pt x="976" y="1254" on="1"/>
        <pt x="976" y="1074" on="0"/>
        <pt x="644" y="700" on="0"/>
        <pt x="356" y="493" on="1"/>
        <pt x="324" y="351" on="1"/>
        <pt x="293" y="212" on="0"/>
        <pt x="354" y="118" on="0"/>
        <pt x="419" y="118" on="1"/>
        <pt x="497" y="118" on="0"/>
        <pt x="640" y="211" on="0"/>
        <pt x="693" y="292" on="1"/>
        <pt x="715" y="326" on="0"/>
        <pt x="742" y="308" on="1"/>
        <pt x="805" y="266" on="1"/>
        <pt x="826" y="252" on="0"/>
        <pt x="803" y="218" on="1"/>
        <pt x="731" y="109" on="0"/>
        <pt x="537" y="-17" on="0"/>
        <pt x="401" y="-17" on="1"/>
        <pt x="240" y="-17" on="0"/>
        <pt x="110" y="183" on="0"/>
        <pt x="140" y="313" on="1"/>
        <pt x="142" y="319" on="1"/>
        <pt x="149" y="349" on="0"/>
        <pt x="157" y="379" on="1"/>
        <pt x="155" y="379" on="1"/>
        <pt x="100" y="331" on="0"/>
        <pt x="56" y="305" on="1"/>
        <pt x="4" y="275" on="0"/>
      </contour>
      <contour>
        <pt x="394" y="672" on="1"/>
        <pt x="396" y="672" on="1"/>
        <pt x="564" y="793" on="0"/>
        <pt x="828" y="1108" on="0"/>
        <pt x="828" y="1266" on="1"/>
        <pt x="828" y="1300" on="0"/>
        <pt x="776" y="1357" on="0"/>
        <pt x="721" y="1357" on="1"/>
        <pt x="631" y="1357" on="0"/>
        <pt x="514" y="1175" on="0"/>
        <pt x="470" y="986" on="1"/>
        <pt x="410" y="732" on="1"/>
        <pt x="403" y="701" on="0"/>
      </contour>
    </TTGlyph>
    <TTGlyph name="agrave" xMin="66" yMin="-17" xMax="1079" yMax="1435">
      <component glyphName="gravecomb" x="713" y="0" flags="0x1004"/>
      <component glyphName="a" x="0" y="0" flags="0x1204"/>
    </TTGlyph>
    <TTGlyph name="amacron" xMin="66" yMin="-17" xMax="1079" yMax="1350">
      <component glyphName="uni0304" x="825" y="0" flags="0x1004"/>
      <component glyphName="a" x="0" y="0" flags="0x1204"/>
    </TTGlyph>
    <TTGlyph name="ampersand" xMin="71" yMin="-30" xMax="1306" yMax="1464">
      <contour>
        <pt x="71" y="290" on="1"/>
        <pt x="71" y="393" on="0"/>
        <pt x="254" y="663" on="0"/>
        <pt x="497" y="817" on="1"/>
        <pt x="472" y="868" on="0"/>
        <pt x="401" y="1045" on="0"/>
        <pt x="401" y="1157" on="1"/>
        <pt x="401" y="1277" on="0"/>
        <pt x="575" y="1464" on="0"/>
        <pt x="769" y="1464" on="1"/>
        <pt x="875" y="1464" on="0"/>
        <pt x="1067" y="1336" on="0"/>
        <pt x="1067" y="1179" on="1"/>
        <pt x="1067" y="1084" on="0"/>
        <pt x="864" y="882" on="0"/>
        <pt x="719" y="793" on="1"/>
        <pt x="954" y="406" on="1"/>
        <pt x="1003" y="448" on="0"/>
        <pt x="1124" y="612" on="0"/>
        <pt x="1144" y="659" on="1"/>
        <pt x="1163" y="704" on="0"/>
        <pt x="1198" y="688" on="1"/>
        <pt x="1265" y="658" on="1"/>
        <pt x="1306" y="640" on="0"/>
        <pt x="1289" y="601" on="1"/>
        <pt x="1251" y="514" on="0"/>
        <pt x="1085" y="325" on="0"/>
        <pt x="1030" y="280" on="1"/>
        <pt x="1165" y="58" on="1"/>
        <pt x="1200" y="0" on="0"/>
        <pt x="1134" y="0" on="1"/>
        <pt x="1053" y="0" on="1"/>
        <pt x="995" y="0" on="0"/>
        <pt x="969" y="43" on="1"/>
        <pt x="889" y="173" on="1"/>
        <pt x="775" y="82" on="0"/>
        <pt x="602" y="-30" on="0"/>
        <pt x="449" y="-30" on="1"/>
        <pt x="277" y="-30" on="0"/>
        <pt x="71" y="124" on="0"/>
      </contour>
      <contour>
        <pt x="266" y="307" on="1"/>
        <pt x="266" y="215" on="0"/>
        <pt x="361" y="115" on="0"/>
        <pt x="483" y="115" on="1"/>
        <pt x="575" y="115" on="0"/>
        <pt x="733" y="221" on="0"/>
        <pt x="816" y="293" on="1"/>
        <pt x="571" y="698" on="1"/>
        <pt x="418" y="606" on="0"/>
        <pt x="266" y="397" on="0"/>
      </contour>
      <contour>
        <pt x="581" y="1143" on="1"/>
        <pt x="581" y="1052" on="0"/>
        <pt x="620" y="954" on="0"/>
        <pt x="644" y="911" on="1"/>
        <pt x="776" y="1000" on="0"/>
        <pt x="887" y="1132" on="0"/>
        <pt x="887" y="1195" on="1"/>
        <pt x="887" y="1251" on="0"/>
        <pt x="817" y="1325" on="0"/>
        <pt x="743" y="1325" on="1"/>
        <pt x="677" y="1325" on="0"/>
        <pt x="581" y="1236" on="0"/>
      </contour>
    </TTGlyph>
    <TTGlyph name="aogonek" xMin="66" yMin="-417" xMax="1079" yMax="1067">
      <contour>
        <pt x="66" y="339" on="1"/>
        <pt x="66" y="614" on="0"/>
        <pt x="439" y="1067" on="0"/>
        <pt x="644" y="1067" on="1"/>
        <pt x="734" y="1067" on="0"/>
        <pt x="850" y="992" on="0"/>
        <pt x="878" y="942" on="1"/>
        <pt x="880" y="942" on="1"/>
        <pt x="901" y="1005" on="1"/>
        <pt x="916" y="1050" on="0"/>
        <pt x="950" y="1050" on="1"/>
        <pt x="1034" y="1050" on="1"/>
        <pt x="1079" y="1050" on="0"/>
        <pt x="1069" y="1005" on="1"/>
        <pt x="847" y="45" on="1"/>
        <pt x="840" y="15" on="0"/>
        <pt x="820" y="0" on="1"/>
        <pt x="726" y="-70" on="0"/>
        <pt x="581" y="-186" on="0"/>
        <pt x="581" y="-233" on="1"/>
        <pt x="581" y="-260" on="0"/>
        <pt x="611" y="-287" on="0"/>
        <pt x="647" y="-287" on="1"/>
        <pt x="690" y="-287" on="0"/>
        <pt x="720" y="-281" on="1"/>
        <pt x="745" y="-276" on="0"/>
        <pt x="747" y="-303" on="1"/>
        <pt x="753" y="-380" on="1"/>
        <pt x="755" y="-404" on="0"/>
        <pt x="735" y="-408" on="1"/>
        <pt x="677" y="-417" on="0"/>
        <pt x="617" y="-417" on="1"/>
        <pt x="517" y="-417" on="0"/>
        <pt x="421" y="-342" on="0"/>
        <pt x="421" y="-284" on="1"/>
        <pt x="421" y="-232" on="0"/>
        <pt x="456" y="-149" on="0"/>
        <pt x="548" y="-72" on="0"/>
        <pt x="649" y="-6" on="1"/>
        <pt x="668" y="7" on="0"/>
        <pt x="676" y="45" on="1"/>
        <pt x="701" y="165" on="1"/>
        <pt x="699" y="165" on="1"/>
        <pt x="650" y="100" on="0"/>
        <pt x="487" y="-17" on="0"/>
        <pt x="387" y="-17" on="1"/>
        <pt x="242" y="-17" on="0"/>
        <pt x="66" y="158" on="0"/>
      </contour>
      <contour>
        <pt x="252" y="332" on="1"/>
        <pt x="252" y="266" on="0"/>
        <pt x="323" y="113" on="0"/>
        <pt x="433" y="113" on="1"/>
        <pt x="523" y="113" on="0"/>
        <pt x="741" y="351" on="0"/>
        <pt x="771" y="480" on="1"/>
        <pt x="838" y="770" on="1"/>
        <pt x="838" y="860" on="0"/>
        <pt x="723" y="937" on="0"/>
        <pt x="638" y="937" on="1"/>
        <pt x="498" y="937" on="0"/>
        <pt x="252" y="578" on="0"/>
      </contour>
    </TTGlyph>
    <TTGlyph name="approxequal" xMin="103" yMin="290" xMax="1229" yMax="1070">
      <component glyphName="asciitilde" x="-21" y="160" flags="0x1004"/>
      <component glyphName="asciitilde" x="-21" y="-250" flags="0x1204"/>
    </TTGlyph>
    <TTGlyph name="aring" xMin="66" yMin="-17" xMax="1079" yMax="1493">
      <component glyphName="uni030A" x="783" y="0" flags="0x1004"/>
      <component glyphName="a" x="0" y="0" flags="0x1204"/>
    </TTGlyph>
    <TTGlyph name="asciicircum" xMin="160" yMin="872" xMax="904" yMax="1434">
      <contour>
        <pt x="189" y="923" on="1"/>
        <pt x="160" y="942" on="0"/>
        <pt x="183" y="979" on="1"/>
        <pt x="446" y="1400" on="1"/>
        <pt x="467" y="1434" on="0"/>
        <pt x="511" y="1434" on="1"/>
        <pt x="553" y="1434" on="1"/>
        <pt x="597" y="1434" on="0"/>
        <pt x="618" y="1400" on="1"/>
        <pt x="881" y="979" on="1"/>
        <pt x="904" y="942" on="0"/>
        <pt x="875" y="923" on="1"/>
        <pt x="826" y="891" on="1"/>
        <pt x="797" y="872" on="0"/>
        <pt x="772" y="911" on="1"/>
        <pt x="533" y="1290" on="1"/>
        <pt x="531" y="1290" on="1"/>
        <pt x="292" y="911" on="1"/>
        <pt x="267" y="872" on="0"/>
        <pt x="238" y="891" on="1"/>
      </contour>
    </TTGlyph>
    <TTGlyph name="asciitilde" xMin="124" yMin="540" xMax="1250" yMax="910">
      <contour>
        <pt x="148" y="628" on="1"/>
        <pt x="124" y="636" on="0"/>
        <pt x="135" y="671" on="1"/>
        <pt x="170" y="781" on="0"/>
        <pt x="332" y="910" on="0"/>
        <pt x="447" y="910" on="1"/>
        <pt x="562" y="910" on="0"/>
        <pt x="889" y="670" on="0"/>
        <pt x="964" y="670" on="1"/>
        <pt x="1033" y="670" on="0"/>
        <pt x="1121" y="760" on="0"/>
        <pt x="1146" y="816" on="1"/>
        <pt x="1159" y="846" on="0"/>
        <pt x="1183" y="837" on="1"/>
        <pt x="1226" y="822" on="1"/>
        <pt x="1250" y="814" on="0"/>
        <pt x="1239" y="779" on="1"/>
        <pt x="1204" y="669" on="0"/>
        <pt x="1042" y="540" on="0"/>
        <pt x="927" y="540" on="1"/>
        <pt x="812" y="540" on="0"/>
        <pt x="485" y="780" on="0"/>
        <pt x="410" y="780" on="1"/>
        <pt x="341" y="780" on="0"/>
        <pt x="253" y="690" on="0"/>
        <pt x="228" y="634" on="1"/>
        <pt x="215" y="604" on="0"/>
        <pt x="191" y="613" on="1"/>
      </contour>
    </TTGlyph>
    <TTGlyph name="asterisk" xMin="169" yMin="651" xMax="1020" yMax="1464">
      <contour>
        <pt x="494" y="1057" on="1"/>
        <pt x="301" y="1150" on="1"/>
        <pt x="228" y="1185" on="0"/>
        <pt x="285" y="1256" on="1"/>
        <pt x="293" y="1266" on="1"/>
        <pt x="350" y="1336" on="0"/>
        <pt x="409" y="1283" on="1"/>
        <pt x="564" y="1144" on="1"/>
        <pt x="591" y="1376" on="1"/>
        <pt x="601" y="1464" on="0"/>
        <pt x="682" y="1464" on="1"/>
        <pt x="694" y="1464" on="1"/>
        <pt x="775" y="1464" on="0"/>
        <pt x="745" y="1376" on="1"/>
        <pt x="664" y="1144" on="1"/>
        <pt x="883" y="1283" on="1"/>
        <pt x="966" y="1336" on="0"/>
        <pt x="991" y="1266" on="1"/>
        <pt x="995" y="1256" on="1"/>
        <pt x="1020" y="1185" on="0"/>
        <pt x="929" y="1150" on="1"/>
        <pt x="694" y="1057" on="1"/>
        <pt x="887" y="965" on="1"/>
        <pt x="961" y="930" on="0"/>
        <pt x="903" y="859" on="1"/>
        <pt x="895" y="849" on="1"/>
        <pt x="838" y="779" on="0"/>
        <pt x="779" y="831" on="1"/>
        <pt x="624" y="971" on="1"/>
        <pt x="598" y="739" on="1"/>
        <pt x="587" y="651" on="0"/>
        <pt x="506" y="651" on="1"/>
        <pt x="494" y="651" on="1"/>
        <pt x="413" y="651" on="0"/>
        <pt x="444" y="739" on="1"/>
        <pt x="524" y="971" on="1"/>
        <pt x="305" y="831" on="1"/>
        <pt x="222" y="779" on="0"/>
        <pt x="197" y="849" on="1"/>
        <pt x="193" y="859" on="1"/>
        <pt x="169" y="930" on="0"/>
        <pt x="259" y="965" on="1"/>
      </contour>
    </TTGlyph>
</ttFont>
